VesperLibre-Medium.ufo
<glyph name="exclam" format="1">
  <advance width="555"/>
  <unicode hex="0021"/>
  <outline>
    <contour>
      <point x="380" y="423" type="line"/>
      <point x="399" y="1384" type="line"/>
      <point x="148" y="1384" type="line"/>
      <point x="148" y="1105"/>
      <point x="148" y="719"/>
      <point x="165" y="475" type="curve"/>
    </contour>
    <contour>
      <point x="200" y="269"/>
      <point x="167" y="215"/>
      <point x="149" y="163" type="curve"/>
      <point x="135" y="130"/>
      <point x="126" y="96"/>
      <point x="132" y="79" type="curve" smooth="yes"/>
      <point x="141" y="53"/>
      <point x="200" y="17"/>
      <point x="253" y="-2" type="curve" smooth="yes"/>
      <point x="285" y="-14"/>
      <point x="314" y="-20"/>
      <point x="330" y="-15" type="curve"/>
      <point x="357" y="-5"/>
      <point x="388" y="50"/>
      <point x="408" y="101" type="curve" smooth="yes"/>
      <point x="422" y="134"/>
      <point x="430" y="168"/>
      <point x="424" y="185" type="curve" smooth="yes"/>
      <point x="415" y="210"/>
      <point x="356" y="246"/>
      <point x="304" y="265" type="curve" smooth="yes"/>
      <point x="271" y="277"/>
      <point x="242" y="284"/>
      <point x="225" y="279" type="curve"/>
    </contour>
  </outline>
</glyph>
<glyph name="quotedbl" format="1">
  <advance width="748"/>
  <unicode hex="0022"/>
  <outline>
    <contour>
      <point x="110" y="1401" type="line"/>
      <point x="110" y="956" type="line"/>
      <point x="282" y="903" type="line"/>
      <point x="297" y="1048"/>
      <point x="307" y="1241"/>
      <point x="310" y="1401" type="curve"/>
    </contour>
    <contour>
      <point x="433" y="1401" type="line"/>
      <point x="433" y="956" type="line"/>
      <point x="605" y="903" type="line"/>
      <point x="620" y="1048"/>
      <point x="631" y="1241"/>
      <point x="633" y="1401" type="curve"/>
    </contour>
  </outline>
</glyph>
<glyph name="numbersign" format="1">
  <advance width="1403"/>
  <unicode hex="0023"/>
  <outline>
    <contour>
      <point x="1331" y="908" type="line"/>
      <point x="1145" y="908" type="line"/>
      <point x="1237" y="1138" type="line"/>
      <point x="1085" y="1185" type="line"/>
      <point x="973" y="908" type="line"/>
      <point x="694" y="908" type="line"/>
      <point x="786" y="1138" type="line"/>
      <point x="635" y="1185" type="line"/>
      <point x="523" y="908" type="line"/>
      <point x="282" y="908" type="line"/>
      <point x="252" y="742" type="line"/>
      <point x="320" y="741"/>
      <point x="388" y="741"/>
      <point x="456" y="741" type="curve"/>
      <point x="339" y="451" type="line"/>
      <point x="99" y="451" type="line"/>
      <point x="68" y="286" type="line"/>
      <point x="273" y="287" type="line"/>
      <point x="158" y="3" type="line"/>
      <point x="317" y="-35" type="line"/>
      <point x="446" y="289" type="line"/>
      <point x="540" y="290"/>
      <point x="633" y="292"/>
      <point x="726" y="294" type="curve"/>
      <point x="609" y="3" type="line"/>
      <point x="768" y="-35" type="line"/>
      <point x="902" y="300" type="line"/>
      <point x="976" y="302"/>
      <point x="1050" y="305"/>
      <point x="1124" y="308" type="curve"/>
      <point x="1148" y="451" type="line"/>
      <point x="962" y="451" type="line"/>
      <point x="1083" y="754" type="line"/>
      <point x="1158" y="757"/>
      <point x="1233" y="760"/>
      <point x="1308" y="764" type="curve"/>
    </contour>
    <contour>
      <point x="789" y="451" type="line"/>
      <point x="511" y="451" type="line"/>
      <point x="628" y="742" type="line"/>
      <point x="721" y="743"/>
      <point x="815" y="745"/>
      <point x="909" y="748" type="curve"/>
    </contour>
  </outline>
</glyph>
<glyph name="dollar" format="1">
  <advance width="1048"/>
  <unicode hex="0024"/>
  <outline>
    <contour>
      <point x="970" y="626"/>
      <point x="812" y="714"/>
      <point x="649" y="777" type="curve" smooth="yes"/>
      <point x="600" y="796" type="line"/>
      <point x="636" y="1227" type="line"/>
      <point x="662" y="1229"/>
      <point x="688" y="1230"/>
      <point x="716" y="1230" type="curve"/>
      <point x="816" y="1007" type="line"/>
      <point x="924" y="1033" type="line"/>
      <point x="892" y="1322" type="line"/>
      <point x="805" y="1317" type="line"/>
      <point x="785" y="1321"/>
      <point x="716" y="1336"/>
      <point x="646" y="1341" type="curve"/>
      <point x="658" y="1482" type="line"/>
      <point x="512" y="1448" type="line"/>
      <point x="506" y="1337" type="line"/>
      <point x="285" y="1309"/>
      <point x="122" y="1176"/>
      <point x="122" y="981" type="curve" smooth="yes"/>
      <point x="122" y="769"/>
      <point x="272" y="683"/>
      <point x="449" y="610" type="curve"/>
      <point x="458" y="607" type="line"/>
      <point x="416" y="136" type="line"/>
      <point x="400" y="135"/>
      <point x="384" y="134"/>
      <point x="369" y="134" type="curve" smooth="yes"/>
      <point x="332" y="134"/>
      <point x="300" y="135"/>
      <point x="268" y="139" type="curve"/>
      <point x="248" y="344" type="line"/>
      <point x="127" y="378" type="line"/>
      <point x="65" y="108" type="line"/>
      <point x="134" y="65"/>
      <point x="259" y="17"/>
      <point x="405" y="5" type="curve"/>
      <point x="390" y="-161" type="line"/>
      <point x="533" y="-125" type="line"/>
      <point x="541" y="5" type="line"/>
      <point x="800" y="28"/>
      <point x="970" y="184"/>
      <point x="970" y="416" type="curve" smooth="yes"/>
    </contour>
    <contour>
      <point x="341" y="1064"/>
      <point x="345" y="1100"/>
      <point x="357" y="1122" type="curve"/>
      <point x="377" y="1152"/>
      <point x="428" y="1182"/>
      <point x="499" y="1202" type="curve"/>
      <point x="481" y="847" type="line"/>
      <point x="391" y="891"/>
      <point x="341" y="940"/>
      <point x="341" y="1029" type="curve" smooth="yes"/>
    </contour>
    <contour>
      <point x="667" y="202"/>
      <point x="612" y="176"/>
      <point x="550" y="159" type="curve"/>
      <point x="573" y="558" type="line"/>
      <point x="657" y="515"/>
      <point x="721" y="456"/>
      <point x="721" y="350" type="curve" smooth="yes"/>
      <point x="721" y="312"/>
      <point x="707" y="257"/>
      <point x="692" y="237" type="curve" smooth="yes"/>
    </contour>
  </outline>
</glyph>
<glyph name="percent" format="1">
  <advance width="1509"/>
  <unicode hex="0025"/>
  <outline>
    <contour>
      <point x="579" y="688"/>
      <point x="715" y="849"/>
      <point x="715" y="1043" type="curve" smooth="yes"/>
      <point x="715" y="1235"/>
      <point x="573" y="1367"/>
      <point x="404" y="1367" type="curve" smooth="yes"/>
      <point x="207" y="1367"/>
      <point x="73" y="1203"/>
      <point x="73" y="1010" type="curve" smooth="yes"/>
      <point x="73" y="819"/>
      <point x="215" y="688"/>
      <point x="389" y="688" type="curve" smooth="yes"/>
    </contour>
    <contour>
      <point x="300" y="841"/>
      <point x="236" y="945"/>
      <point x="236" y="1053" type="curve" smooth="yes"/>
      <point x="236" y="1134"/>
      <point x="286" y="1215"/>
      <point x="375" y="1215" type="curve" smooth="yes"/>
      <point x="485" y="1215"/>
      <point x="553" y="1118"/>
      <point x="553" y="1004" type="curve" smooth="yes"/>
      <point x="553" y="917"/>
      <point x="498" y="841"/>
      <point x="415" y="841" type="curve" smooth="yes"/>
    </contour>
    <contour>
      <point x="326" y="242" type="line"/>
      <point x="483" y="197" type="line"/>
      <point x="1205" y="1146" type="line"/>
      <point x="1041" y="1196" type="line"/>
    </contour>
    <contour>
      <point x="1302" y="0"/>
      <point x="1437" y="161"/>
      <point x="1437" y="355" type="curve" smooth="yes"/>
      <point x="1437" y="547"/>
      <point x="1296" y="679"/>
      <point x="1126" y="679" type="curve" smooth="yes"/>
      <point x="929" y="679"/>
      <point x="795" y="515"/>
      <point x="795" y="322" type="curve" smooth="yes"/>
      <point x="795" y="131"/>
      <point x="937" y="0"/>
      <point x="1111" y="0" type="curve" smooth="yes"/>
    </contour>
    <contour>
      <point x="1023" y="153"/>
      <point x="959" y="257"/>
      <point x="959" y="365" type="curve" smooth="yes"/>
      <point x="959" y="446"/>
      <point x="1008" y="527"/>
      <point x="1097" y="527" type="curve" smooth="yes"/>
      <point x="1208" y="527"/>
      <point x="1275" y="430"/>
      <point x="1275" y="316" type="curve" smooth="yes"/>
      <point x="1275" y="229"/>
      <point x="1220" y="153"/>
      <point x="1137" y="153" type="curve" smooth="yes"/>
    </contour>
  </outline>
</glyph>
<glyph name="ampersand" format="1">
  <advance width="1544"/>
  <unicode hex="0026"/>
  <outline>
    <contour>
      <point x="1496" y="76" type="line"/>
      <point x="1348" y="123" type="line"/>
      <point x="1303" y="165"/>
      <point x="1269" y="197"/>
      <point x="1128" y="334" type="curve"/>
      <point x="1248" y="478"/>
      <point x="1301" y="664"/>
      <point x="1301" y="835" type="curve"/>
      <point x="1418" y="866" type="line"/>
      <point x="1431" y="950" type="line"/>
      <point x="1024" y="950" type="line"/>
      <point x="1004" y="873" type="line"/>
      <point x="1123" y="840" type="line"/>
      <point x="1126" y="815"/>
      <point x="1127" y="789"/>
      <point x="1127" y="764" type="curve" smooth="yes"/>
      <point x="1127" y="647"/>
      <point x="1095" y="522"/>
      <point x="1042" y="417" type="curve"/>
      <point x="671" y="779" type="line"/>
      <point x="828" y="856"/>
      <point x="943" y="963"/>
      <point x="943" y="1142" type="curve" smooth="yes"/>
      <point x="943" y="1327"/>
      <point x="786" y="1419"/>
      <point x="587" y="1419" type="curve" smooth="yes"/>
      <point x="384" y="1419"/>
      <point x="219" y="1290"/>
      <point x="219" y="1098" type="curve" smooth="yes"/>
      <point x="219" y="957"/>
      <point x="303" y="846"/>
      <point x="400" y="753" type="curve"/>
      <point x="222" y="673"/>
      <point x="74" y="565"/>
      <point x="74" y="361" type="curve" smooth="yes"/>
      <point x="74" y="88"/>
      <point x="293" y="-32"/>
      <point x="522" y="-32" type="curve" smooth="yes"/>
      <point x="716" y="-32"/>
      <point x="874" y="41"/>
      <point x="990" y="163" type="curve"/>
      <point x="1034" y="115"/>
      <point x="1064" y="79"/>
      <point x="1073" y="61" type="curve"/>
      <point x="1061" y="0" type="line"/>
      <point x="1478" y="0" type="line"/>
    </contour>
    <contour>
      <point x="467" y="1295"/>
      <point x="507" y="1306"/>
      <point x="552" y="1306" type="curve" smooth="yes"/>
      <point x="627" y="1306"/>
      <point x="736" y="1253"/>
      <point x="736" y="1093" type="curve" smooth="yes"/>
      <point x="736" y="1021"/>
      <point x="706" y="944"/>
      <point x="626" y="883" type="curve"/>
      <point x="615" y="873"/>
      <point x="604" y="863"/>
      <point x="592" y="855" type="curve"/>
      <point x="492" y="948"/>
      <point x="423" y="1042"/>
      <point x="423" y="1172" type="curve" smooth="yes"/>
      <point x="423" y="1226"/>
      <point x="443" y="1266"/>
      <point x="455" y="1280" type="curve" smooth="yes"/>
    </contour>
    <contour>
      <point x="450" y="128"/>
      <point x="322" y="289"/>
      <point x="322" y="421" type="curve" smooth="yes"/>
      <point x="322" y="522"/>
      <point x="383" y="602"/>
      <point x="481" y="673" type="curve"/>
      <point x="613" y="544"/>
      <point x="787" y="375"/>
      <point x="913" y="245" type="curve"/>
      <point x="849" y="175"/>
      <point x="757" y="128"/>
      <point x="664" y="128" type="curve" smooth="yes"/>
    </contour>
  </outline>
</glyph>
<glyph name="quotesingle" format="1">
  <advance width="424"/>
  <unicode hex="0027"/>
  <outline>
    <contour>
      <point x="110" y="1401" type="line"/>
      <point x="110" y="956" type="line"/>
      <point x="282" y="903" type="line"/>
      <point x="297" y="1048"/>
      <point x="307" y="1241"/>
      <point x="310" y="1401" type="curve"/>
    </contour>
  </outline>
</glyph>
<glyph name="parenleft" format="1">
  <advance width="621"/>
  <unicode hex="0028"/>
  <outline>
    <contour>
      <point x="79" y="196"/>
      <point x="213" y="-109"/>
      <point x="513" y="-327" type="curve"/>
      <point x="596" y="-280" type="line"/>
      <point x="408" y="-72"/>
      <point x="291" y="264"/>
      <point x="291" y="578" type="curve" smooth="yes"/>
      <point x="291" y="885"/>
      <point x="412" y="1233"/>
      <point x="596" y="1438" type="curve"/>
      <point x="515" y="1486" type="line"/>
      <point x="216" y="1270"/>
      <point x="79" y="952"/>
      <point x="79" y="578" type="curve" smooth="yes"/>
    </contour>
  </outline>
</glyph>
<glyph name="parenright" format="1">
  <advance width="622"/>
  <unicode hex="0029"/>
  <outline>
    <contour>
      <point x="542" y="952"/>
      <point x="406" y="1270"/>
      <point x="107" y="1486" type="curve"/>
      <point x="25" y="1438" type="line"/>
      <point x="210" y="1233"/>
      <point x="330" y="885"/>
      <point x="330" y="578" type="curve" smooth="yes"/>
      <point x="330" y="264"/>
      <point x="214" y="-72"/>
      <point x="25" y="-280" type="curve"/>
      <point x="109" y="-327" type="line"/>
      <point x="408" y="-109"/>
      <point x="542" y="196"/>
      <point x="542" y="578" type="curve" smooth="yes"/>
    </contour>
  </outline>
</glyph>
<glyph name="asterisk" format="1">
  <advance width="843"/>
  <unicode hex="002A"/>
  <outline>
    <contour>
      <point x="627" y="1422" type="line"/>
      <point x="580" y="1352"/>
      <point x="504" y="1318"/>
      <point x="430" y="1309" type="curve"/>
      <point x="456" y="1328" type="line" smooth="yes"/>
      <point x="468" y="1337"/>
      <point x="482" y="1349"/>
      <point x="487" y="1356" type="curve" smooth="yes"/>
      <point x="517" y="1398"/>
      <point x="536" y="1465"/>
      <point x="536" y="1531" type="curve" smooth="yes"/>
      <point x="536" y="1643"/>
      <point x="473" y="1702"/>
      <point x="456" y="1702" type="curve"/>
      <point x="355" y="1563" type="line"/>
      <point x="407" y="1497"/>
      <point x="416" y="1412"/>
      <point x="401" y="1338" type="curve"/>
      <point x="390" y="1370" type="line" smooth="yes"/>
      <point x="385" y="1384"/>
      <point x="378" y="1401"/>
      <point x="373" y="1408" type="curve" smooth="yes"/>
      <point x="342" y="1450"/>
      <point x="285" y="1489"/>
      <point x="222" y="1509" type="curve" smooth="yes"/>
      <point x="115" y="1544"/>
      <point x="40" y="1502"/>
      <point x="35" y="1486" type="curve"/>
      <point x="135" y="1346" type="line"/>
      <point x="214" y="1375"/>
      <point x="296" y="1358"/>
      <point x="361" y="1321" type="curve"/>
      <point x="331" y="1321" type="line" smooth="yes"/>
      <point x="315" y="1321"/>
      <point x="298" y="1319"/>
      <point x="289" y="1316" type="curve" smooth="yes"/>
      <point x="240" y="1300"/>
      <point x="185" y="1258"/>
      <point x="146" y="1204" type="curve" smooth="yes"/>
      <point x="80" y="1114"/>
      <point x="98" y="1029"/>
      <point x="111" y="1020" type="curve"/>
      <point x="274" y="1071" type="line"/>
      <point x="272" y="1156"/>
      <point x="314" y="1229"/>
      <point x="369" y="1280" type="curve"/>
      <point x="359" y="1247" type="line" smooth="yes"/>
      <point x="354" y="1232"/>
      <point x="350" y="1215"/>
      <point x="351" y="1206" type="curve"/>
      <point x="351" y="1154"/>
      <point x="375" y="1089"/>
      <point x="413" y="1036" type="curve" smooth="yes"/>
      <point x="479" y="944"/>
      <point x="564" y="935"/>
      <point x="578" y="944" type="curve"/>
      <point x="580" y="1116" type="line"/>
      <point x="498" y="1140"/>
      <point x="441" y="1203"/>
      <point x="410" y="1270" type="curve"/>
      <point x="435" y="1253" type="line" smooth="yes"/>
      <point x="448" y="1244"/>
      <point x="462" y="1235"/>
      <point x="471" y="1232" type="curve" smooth="yes"/>
      <point x="520" y="1216"/>
      <point x="590" y="1218"/>
      <point x="652" y="1239" type="curve" smooth="yes"/>
      <point x="759" y="1273"/>
      <point x="795" y="1351"/>
      <point x="790" y="1368" type="curve"/>
    </contour>
  </outline>
</glyph>
<glyph name="plus" format="1">
  <advance width="1024"/>
  <unicode hex="002B"/>
  <outline>
    <contour>
      <point x="591" y="182" type="line"/>
      <point x="591" y="485" type="line"/>
      <point x="699" y="488"/>
      <point x="796" y="492"/>
      <point x="874" y="502" type="curve"/>
      <point x="894" y="654" type="line"/>
      <point x="591" y="654" type="line"/>
      <point x="591" y="938" type="line"/>
      <point x="419" y="916" type="line"/>
      <point x="419" y="654" type="line"/>
      <point x="155" y="654" type="line"/>
      <point x="134" y="481" type="line"/>
      <point x="205" y="481"/>
      <point x="311" y="481"/>
      <point x="420" y="482" type="curve"/>
      <point x="421" y="357"/>
      <point x="423" y="237"/>
      <point x="431" y="156" type="curve"/>
    </contour>
  </outline>
</glyph>
<glyph name="comma" format="1">
  <advance width="552"/>
  <unicode hex="002C"/>
  <outline>
    <contour>
      <point x="127" y="71"/>
      <point x="179" y="26"/>
      <point x="241" y="-3" type="curve"/>
      <point x="105" y="-293" type="line"/>
      <point x="194" y="-310" type="line"/>
      <point x="317" y="-210"/>
      <point x="402" y="-64"/>
      <point x="419" y="47" type="curve"/>
      <point x="426" y="83"/>
      <point x="430" y="152"/>
      <point x="421" y="186" type="curve"/>
      <point x="412" y="214"/>
      <point x="347" y="254"/>
      <point x="292" y="273" type="curve" smooth="yes"/>
      <point x="258" y="284"/>
      <point x="235" y="286"/>
      <point x="214" y="279" type="curve" smooth="yes"/>
      <point x="181" y="268"/>
      <point x="147" y="217"/>
      <point x="128" y="163" type="curve" smooth="yes"/>
      <point x="119" y="137"/>
      <point x="116" y="113"/>
      <point x="120" y="99" type="curve" smooth="yes"/>
    </contour>
  </outline>
</glyph>
<glyph name="hyphen" format="1">
  <advance width="881"/>
  <unicode hex="002D"/>
  <outline>
    <contour>
      <point x="180" y="622" type="line"/>
      <point x="141" y="436" type="line"/>
      <point x="273" y="436"/>
      <point x="578" y="452"/>
      <point x="710" y="470" type="curve"/>
      <point x="739" y="622" type="line"/>
    </contour>
  </outline>
</glyph>
<glyph name="period" format="1">
  <advance width="553"/>
  <unicode hex="002E"/>
  <outline>
    <contour>
      <point x="369" y="-8"/>
      <point x="446" y="140"/>
      <point x="429" y="185" type="curve"/>
      <point x="416" y="224"/>
      <point x="275" y="303"/>
      <point x="224" y="286" type="curve" smooth="yes"/>
      <point x="180" y="273"/>
      <point x="105" y="123"/>
      <point x="122" y="79" type="curve" smooth="yes"/>
      <point x="139" y="34"/>
      <point x="285" y="-35"/>
      <point x="327" y="-22" type="curve" smooth="yes"/>
    </contour>
  </outline>
</glyph>
<glyph name="slash" format="1">
  <advance width="887"/>
  <unicode hex="002F"/>
  <outline>
    <contour>
      <point x="825" y="1446" type="line"/>
      <point x="653" y="1496" type="line"/>
      <point x="62" y="-172" type="line"/>
      <point x="238" y="-219" type="line"/>
    </contour>
  </outline>
</glyph>
<glyph name="zero" format="1">
  <advance width="1237"/>
  <unicode hex="0030"/>
  <outline>
    <contour>
      <point x="943" y="-24"/>
      <point x="1106" y="222"/>
      <point x="1106" y="642" type="curve" smooth="yes"/>
      <point x="1106" y="1024"/>
      <point x="893" y="1212"/>
      <point x="643" y="1212" type="curve" smooth="yes"/>
      <point x="289" y="1212"/>
      <point x="131" y="958"/>
      <point x="131" y="563" type="curve" smooth="yes"/>
      <point x="131" y="166"/>
      <point x="327" y="-24"/>
      <point x="600" y="-24" type="curve" smooth="yes"/>
    </contour>
    <contour>
      <point x="405" y="395"/>
      <point x="396" y="541"/>
      <point x="396" y="679" type="curve" smooth="yes"/>
      <point x="396" y="855"/>
      <point x="437" y="1027"/>
      <point x="486" y="1077" type="curve"/>
      <point x="506" y="1099"/>
      <point x="540" y="1106"/>
      <point x="583" y="1106" type="curve" smooth="yes"/>
      <point x="675" y="1106"/>
      <point x="743" y="1038"/>
      <point x="778" y="960" type="curve" smooth="yes"/>
      <point x="833" y="838"/>
      <point x="842" y="646"/>
      <point x="842" y="523" type="curve" smooth="yes"/>
      <point x="842" y="356"/>
      <point x="806" y="169"/>
      <point x="750" y="110" type="curve" smooth="yes"/>
      <point x="730" y="89"/>
      <point x="694" y="82"/>
      <point x="645" y="82" type="curve" smooth="yes"/>
      <point x="546" y="82"/>
      <point x="459" y="190"/>
      <point x="431" y="305" type="curve"/>
    </contour>
  </outline>
</glyph>
<glyph name="one" format="1">
  <advance width="894"/>
  <unicode hex="0031"/>
  <outline>
    <contour>
      <point x="105" y="998" type="line"/>
      <point x="351" y="998" type="line"/>
      <point x="351" y="138" type="line"/>
      <point x="136" y="78" type="line"/>
      <point x="121" y="0" type="line"/>
      <point x="752" y="0" type="line"/>
      <point x="774" y="94" type="line"/>
      <point x="595" y="139" type="line"/>
      <point x="595" y="1205" type="line"/>
      <point x="123" y="1085" type="line"/>
    </contour>
  </outline>
</glyph>
<glyph name="two" format="1">
  <advance width="1184"/>
  <unicode hex="0032"/>
  <outline>
    <contour>
      <point x="167" y="864" type="line"/>
      <point x="273" y="844" type="line"/>
      <point x="364" y="1079" type="line"/>
      <point x="408" y="1087"/>
      <point x="444" y="1091"/>
      <point x="483" y="1091" type="curve" smooth="yes"/>
      <point x="597" y="1091"/>
      <point x="685" y="1053"/>
      <point x="717" y="992" type="curve" smooth="yes"/>
      <point x="732" y="964"/>
      <point x="739" y="932"/>
      <point x="739" y="898" type="curve" smooth="yes"/>
      <point x="739" y="791"/>
      <point x="657" y="669"/>
      <point x="599" y="602" type="curve" smooth="yes"/>
      <point x="492" y="479"/>
      <point x="242" y="229"/>
      <point x="120" y="92" type="curve"/>
      <point x="156" y="0" type="line"/>
      <point x="987" y="0" type="line"/>
      <point x="1060" y="309" type="line"/>
      <point x="957" y="328" type="line"/>
      <point x="842" y="149" type="line"/>
      <point x="353" y="105" type="line"/>
      <point x="628" y="334"/>
      <point x="1003" y="626"/>
      <point x="1003" y="898" type="curve" smooth="yes"/>
      <point x="1003" y="1093"/>
      <point x="832" y="1212"/>
      <point x="574" y="1212" type="curve" smooth="yes"/>
      <point x="516" y="1212"/>
      <point x="312" y="1193"/>
      <point x="165" y="1112" type="curve"/>
    </contour>
  </outline>
</glyph>
<glyph name="three" format="1">
  <advance width="1086"/>
  <unicode hex="0033"/>
  <outline>
    <contour>
      <point x="971" y="1090" type="line"/>
      <point x="933" y="1193" type="line"/>
      <point x="297" y="1187" type="line"/>
      <point x="133" y="1197" type="line"/>
      <point x="122" y="901" type="line"/>
      <point x="226" y="883" type="line"/>
      <point x="285" y="1041" type="line"/>
      <point x="423" y="1045"/>
      <point x="626" y="1053"/>
      <point x="751" y="1068" type="curve"/>
      <point x="354" y="688" type="line"/>
      <point x="332" y="598" type="line"/>
      <point x="497" y="598"/>
      <point x="690" y="550"/>
      <point x="690" y="369" type="curve" smooth="yes"/>
      <point x="690" y="128"/>
      <point x="369" y="53"/>
      <point x="146" y="-1" type="curve"/>
      <point x="162" y="-79" type="line"/>
      <point x="448" y="-74"/>
      <point x="945" y="-6"/>
      <point x="945" y="367" type="curve" smooth="yes"/>
      <point x="945" y="572"/>
      <point x="784" y="676"/>
      <point x="597" y="678" type="curve"/>
    </contour>
  </outline>
</glyph>
<glyph name="four" format="1">
  <advance width="1173"/>
  <unicode hex="0034"/>
  <outline>
    <contour>
      <point x="1044" y="260" type="line"/>
      <point x="1074" y="433" type="line"/>
      <point x="890" y="424" type="line"/>
      <point x="890" y="698" type="line"/>
      <point x="654" y="636" type="line"/>
      <point x="654" y="413" type="line"/>
      <point x="314" y="397" type="line"/>
      <point x="791" y="1140" type="line"/>
      <point x="549" y="1212" type="line"/>
      <point x="45" y="346" type="line"/>
      <point x="94" y="260" type="line"/>
      <point x="654" y="260" type="line"/>
      <point x="654" y="-104" type="line"/>
      <point x="890" y="-46" type="line"/>
      <point x="890" y="260" type="line"/>
    </contour>
  </outline>
</glyph>
<glyph name="five" format="1">
  <advance width="1037"/>
  <unicode hex="0035"/>
  <outline>
    <contour>
      <point x="121" y="-80" type="line"/>
      <point x="422" y="-74"/>
      <point x="882" y="3"/>
      <point x="882" y="381" type="curve" smooth="yes"/>
      <point x="882" y="593"/>
      <point x="742" y="705"/>
      <point x="508" y="705" type="curve" smooth="yes"/>
      <point x="469" y="705"/>
      <point x="425" y="703"/>
      <point x="379" y="699" type="curve"/>
      <point x="391" y="1052" type="line"/>
      <point x="829" y="1022" type="line"/>
      <point x="906" y="1187" type="line"/>
      <point x="195" y="1187" type="line"/>
      <point x="157" y="606" type="line"/>
      <point x="194" y="610"/>
      <point x="255" y="613"/>
      <point x="304" y="613" type="curve" smooth="yes"/>
      <point x="476" y="613"/>
      <point x="624" y="551"/>
      <point x="624" y="364" type="curve" smooth="yes"/>
      <point x="624" y="135"/>
      <point x="314" y="49"/>
      <point x="103" y="-1" type="curve"/>
    </contour>
  </outline>
</glyph>
<glyph name="six" format="1">
  <advance width="1145"/>
  <unicode hex="0036"/>
  <outline>
    <contour>
      <point x="371" y="283"/>
      <point x="353" y="376"/>
      <point x="353" y="501" type="curve" smooth="yes"/>
      <point x="353" y="805"/>
      <point x="560" y="1020"/>
      <point x="851" y="1201" type="curve"/>
      <point x="783" y="1256" type="line"/>
      <point x="376" y="1146"/>
      <point x="100" y="833"/>
      <point x="100" y="465" type="curve" smooth="yes"/>
      <point x="100" y="162"/>
      <point x="271" y="-27"/>
      <point x="561" y="-27" type="curve" smooth="yes"/>
      <point x="819" y="-27"/>
      <point x="1025" y="126"/>
      <point x="1025" y="389" type="curve" smooth="yes"/>
      <point x="1025" y="602"/>
      <point x="881" y="724"/>
      <point x="667" y="724" type="curve" smooth="yes"/>
      <point x="620" y="724"/>
      <point x="561" y="713"/>
      <point x="513" y="692" type="curve"/>
      <point x="498" y="633" type="line"/>
      <point x="715" y="613"/>
      <point x="780" y="489"/>
      <point x="780" y="334" type="curve" smooth="yes"/>
      <point x="780" y="235"/>
      <point x="765" y="162"/>
      <point x="740" y="129" type="curve" smooth="yes"/>
      <point x="718" y="101"/>
      <point x="683" y="87"/>
      <point x="623" y="87" type="curve" smooth="yes"/>
      <point x="534" y="87"/>
      <point x="461" y="144"/>
      <point x="418" y="210" type="curve" smooth="yes"/>
    </contour>
  </outline>
</glyph>
<glyph name="seven" format="1">
  <advance width="1131"/>
  <unicode hex="0037"/>
  <outline>
    <contour>
      <point x="818" y="1043" type="line"/>
      <point x="217" y="0" type="line"/>
      <point x="457" y="-67" type="line"/>
      <point x="1052" y="1074" type="line"/>
      <point x="1010" y="1190" type="line"/>
      <point x="300" y="1187" type="line"/>
      <point x="128" y="1199" type="line"/>
      <point x="117" y="863" type="line"/>
      <point x="228" y="843" type="line"/>
      <point x="294" y="1024" type="line"/>
    </contour>
  </outline>
</glyph>
<glyph name="eight" format="1">
  <advance width="1121"/>
  <unicode hex="0038"/>
  <outline>
    <contour>
      <point x="131" y="53"/>
      <point x="353" y="-27"/>
      <point x="571" y="-27" type="curve" smooth="yes"/>
      <point x="812" y="-27"/>
      <point x="990" y="78"/>
      <point x="990" y="289" type="curve" smooth="yes"/>
      <point x="990" y="459"/>
      <point x="889" y="550"/>
      <point x="761" y="622" type="curve"/>
      <point x="862" y="689"/>
      <point x="956" y="778"/>
      <point x="956" y="925" type="curve" smooth="yes"/>
      <point x="956" y="1117"/>
      <point x="772" y="1212"/>
      <point x="562" y="1212" type="curve" smooth="yes"/>
      <point x="326" y="1212"/>
      <point x="161" y="1084"/>
      <point x="161" y="906" type="curve" smooth="yes"/>
      <point x="161" y="748"/>
      <point x="248" y="666"/>
      <point x="362" y="598" type="curve"/>
      <point x="240" y="527"/>
      <point x="131" y="435"/>
      <point x="131" y="278" type="curve" smooth="yes"/>
    </contour>
    <contour>
      <point x="602" y="705"/>
      <point x="475" y="778"/>
      <point x="432" y="827" type="curve" smooth="yes"/>
      <point x="393" y="871"/>
      <point x="381" y="921"/>
      <point x="381" y="969" type="curve" smooth="yes"/>
      <point x="381" y="1013"/>
      <point x="390" y="1062"/>
      <point x="419" y="1087" type="curve" smooth="yes"/>
      <point x="442" y="1107"/>
      <point x="474" y="1112"/>
      <point x="508" y="1112" type="curve" smooth="yes"/>
      <point x="627" y="1112"/>
      <point x="734" y="1014"/>
      <point x="734" y="877" type="curve" smooth="yes"/>
      <point x="734" y="799"/>
      <point x="694" y="718"/>
      <point x="668" y="673" type="curve"/>
    </contour>
    <contour>
      <point x="368" y="418"/>
      <point x="407" y="490"/>
      <point x="448" y="551" type="curve"/>
      <point x="516" y="519"/>
      <point x="661" y="436"/>
      <point x="713" y="373" type="curve" smooth="yes"/>
      <point x="750" y="329"/>
      <point x="764" y="279"/>
      <point x="764" y="224" type="curve" smooth="yes"/>
      <point x="764" y="181"/>
      <point x="759" y="139"/>
      <point x="729" y="115" type="curve"/>
      <point x="698" y="86"/>
      <point x="654" y="82"/>
      <point x="606" y="82" type="curve" smooth="yes"/>
      <point x="478" y="82"/>
      <point x="368" y="187"/>
      <point x="368" y="330" type="curve" smooth="yes"/>
    </contour>
  </outline>
</glyph>
<glyph name="nine" format="1">
  <advance width="1142"/>
  <unicode hex="0039"/>
  <outline>
    <contour>
      <point x="193" y="-78" type="line"/>
      <point x="422" y="-78"/>
      <point x="652" y="5"/>
      <point x="815" y="168" type="curve" smooth="yes"/>
      <point x="970" y="323"/>
      <point x="1020" y="503"/>
      <point x="1020" y="711" type="curve" smooth="yes"/>
      <point x="1020" y="1011"/>
      <point x="855" y="1212"/>
      <point x="540" y="1212" type="curve" smooth="yes"/>
      <point x="271" y="1212"/>
      <point x="110" y="1071"/>
      <point x="110" y="840" type="curve" smooth="yes"/>
      <point x="110" y="732"/>
      <point x="141" y="654"/>
      <point x="198" y="596" type="curve" smooth="yes"/>
      <point x="254" y="539"/>
      <point x="346" y="507"/>
      <point x="452" y="507" type="curve" smooth="yes"/>
      <point x="505" y="507"/>
      <point x="577" y="512"/>
      <point x="631" y="531" type="curve"/>
      <point x="616" y="591" type="line"/>
      <point x="509" y="600"/>
      <point x="444" y="629"/>
      <point x="407" y="674" type="curve" smooth="yes"/>
      <point x="362" y="730"/>
      <point x="354" y="802"/>
      <point x="354" y="886" type="curve" smooth="yes"/>
      <point x="354" y="971"/>
      <point x="367" y="1038"/>
      <point x="396" y="1068" type="curve" smooth="yes"/>
      <point x="424" y="1098"/>
      <point x="465" y="1106"/>
      <point x="503" y="1106" type="curve" smooth="yes"/>
      <point x="567" y="1106"/>
      <point x="614" y="1084"/>
      <point x="651" y="1048" type="curve" smooth="yes"/>
      <point x="732" y="966"/>
      <point x="761" y="818"/>
      <point x="761" y="718" type="curve" smooth="yes"/>
      <point x="761" y="424"/>
      <point x="636" y="161"/>
      <point x="177" y="-4" type="curve"/>
    </contour>
  </outline>
</glyph>
<glyph name="colon" format="1">
  <advance width="582"/>
  <unicode hex="003A"/>
  <outline>
    <contour>
      <point x="388" y="592"/>
      <point x="464" y="740"/>
      <point x="448" y="786" type="curve" smooth="yes"/>
      <point x="434" y="825"/>
      <point x="293" y="904"/>
      <point x="242" y="886" type="curve"/>
      <point x="198" y="873"/>
      <point x="123" y="724"/>
      <point x="141" y="679" type="curve" smooth="yes"/>
      <point x="157" y="635"/>
      <point x="304" y="566"/>
      <point x="345" y="579" type="curve" smooth="yes"/>
    </contour>
    <contour>
      <point x="388" y="-8"/>
      <point x="464" y="140"/>
      <point x="448" y="185" type="curve" smooth="yes"/>
      <point x="434" y="224"/>
      <point x="293" y="303"/>
      <point x="242" y="286" type="curve" smooth="yes"/>
      <point x="198" y="273"/>
      <point x="123" y="123"/>
      <point x="141" y="79" type="curve"/>
      <point x="157" y="34"/>
      <point x="304" y="-35"/>
      <point x="345" y="-22" type="curve" smooth="yes"/>
    </contour>
  </outline>
</glyph>
<glyph name="semicolon" format="1">
  <advance width="571"/>
  <unicode hex="003B"/>
  <outline>
    <contour>
      <point x="388" y="592"/>
      <point x="464" y="740"/>
      <point x="448" y="786" type="curve" smooth="yes"/>
      <point x="434" y="825"/>
      <point x="293" y="904"/>
      <point x="242" y="886" type="curve"/>
      <point x="198" y="873"/>
      <point x="123" y="724"/>
      <point x="141" y="679" type="curve" smooth="yes"/>
      <point x="157" y="635"/>
      <point x="304" y="566"/>
      <point x="345" y="579" type="curve" smooth="yes"/>
    </contour>
    <contour>
      <point x="154" y="71"/>
      <point x="206" y="26"/>
      <point x="268" y="-3" type="curve"/>
      <point x="132" y="-293" type="line"/>
      <point x="221" y="-310" type="line"/>
      <point x="344" y="-210"/>
      <point x="429" y="-64"/>
      <point x="446" y="47" type="curve"/>
      <point x="453" y="83"/>
      <point x="457" y="152"/>
      <point x="448" y="186" type="curve"/>
      <point x="439" y="214"/>
      <point x="374" y="254"/>
      <point x="319" y="273" type="curve" smooth="yes"/>
      <point x="285" y="284"/>
      <point x="262" y="286"/>
      <point x="241" y="279" type="curve" smooth="yes"/>
      <point x="208" y="268"/>
      <point x="174" y="217"/>
      <point x="155" y="163" type="curve" smooth="yes"/>
      <point x="146" y="137"/>
      <point x="142" y="113"/>
      <point x="147" y="99" type="curve"/>
    </contour>
  </outline>
</glyph>
<glyph name="less" format="1">
  <advance width="1024"/>
  <unicode hex="003C"/>
  <outline>
    <contour>
      <point x="106" y="410" type="line"/>
      <point x="842" y="59" type="line"/>
      <point x="911" y="215" type="line"/>
      <point x="362" y="475" type="line"/>
      <point x="911" y="732" type="line"/>
      <point x="844" y="889" type="line"/>
      <point x="106" y="540" type="line"/>
    </contour>
  </outline>
</glyph>
<glyph name="equal" format="1">
  <advance width="1024"/>
  <unicode hex="003D"/>
  <outline>
    <contour>
      <point x="158" y="827" type="line"/>
      <point x="131" y="655" type="line"/>
      <point x="387" y="656"/>
      <point x="634" y="662"/>
      <point x="872" y="677" type="curve"/>
      <point x="894" y="827" type="line"/>
    </contour>
    <contour>
      <point x="158" y="498" type="line"/>
      <point x="131" y="326" type="line"/>
      <point x="388" y="326"/>
      <point x="632" y="334"/>
      <point x="872" y="348" type="curve"/>
      <point x="894" y="498" type="line"/>
    </contour>
  </outline>
</glyph>
<glyph name="greater" format="1">
  <advance width="1024"/>
  <unicode hex="003E"/>
  <outline>
    <contour>
      <point x="115" y="215" type="line"/>
      <point x="184" y="59" type="line"/>
      <point x="920" y="410" type="line"/>
      <point x="920" y="540" type="line"/>
      <point x="182" y="889" type="line"/>
      <point x="115" y="732" type="line"/>
      <point x="664" y="475" type="line"/>
    </contour>
  </outline>
</glyph>
<glyph name="question" format="1">
  <advance width="948"/>
  <unicode hex="003F"/>
  <outline>
    <contour>
      <point x="271" y="474" type="line"/>
      <point x="459" y="428" type="line"/>
      <point x="476" y="485"/>
      <point x="513" y="621"/>
      <point x="522" y="662" type="curve"/>
      <point x="760" y="754"/>
      <point x="871" y="870"/>
      <point x="871" y="1058" type="curve" smooth="yes"/>
      <point x="871" y="1304"/>
      <point x="588" y="1418"/>
      <point x="364" y="1418" type="curve" smooth="yes"/>
      <point x="244" y="1418"/>
      <point x="91" y="1373"/>
      <point x="91" y="1287" type="curve" smooth="yes"/>
      <point x="91" y="1227"/>
      <point x="188" y="1133"/>
      <point x="241" y="1133" type="curve" smooth="yes"/>
      <point x="270" y="1133"/>
      <point x="307" y="1157"/>
      <point x="326" y="1174" type="curve"/>
      <point x="364" y="1341" type="line"/>
      <point x="434" y="1337"/>
      <point x="604" y="1221"/>
      <point x="604" y="1034" type="curve" smooth="yes"/>
      <point x="604" y="916"/>
      <point x="520" y="800"/>
      <point x="285" y="681" type="curve" smooth="yes"/>
      <point x="267" y="672"/>
      <point x="264" y="666"/>
      <point x="265" y="644" type="curve" smooth="yes"/>
    </contour>
    <contour>
      <point x="466" y="-8"/>
      <point x="543" y="140"/>
      <point x="526" y="185" type="curve" smooth="yes"/>
      <point x="512" y="224"/>
      <point x="371" y="303"/>
      <point x="321" y="286" type="curve"/>
      <point x="277" y="273"/>
      <point x="202" y="123"/>
      <point x="219" y="79" type="curve" smooth="yes"/>
      <point x="236" y="34"/>
      <point x="382" y="-35"/>
      <point x="424" y="-22" type="curve" smooth="yes"/>
    </contour>
  </outline>
</glyph>
<glyph name="at" format="1">
  <advance width="1723"/>
  <unicode hex="0040"/>
  <outline>
    <contour>
      <point x="1176" y="726" type="line"/>
      <point x="1211" y="880" type="line"/>
      <point x="1088" y="855" type="line"/>
      <point x="1051" y="893"/>
      <point x="984" y="915"/>
      <point x="916" y="915" type="curve" smooth="yes"/>
      <point x="654" y="915"/>
      <point x="449" y="613"/>
      <point x="449" y="332" type="curve" smooth="yes"/>
      <point x="449" y="131"/>
      <point x="557" y="40"/>
      <point x="683" y="40" type="curve" smooth="yes"/>
      <point x="772" y="40"/>
      <point x="856" y="105"/>
      <point x="907" y="172" type="curve"/>
      <point x="922" y="172" type="line"/>
      <point x="933" y="130"/>
      <point x="986" y="40"/>
      <point x="1063" y="40" type="curve" smooth="yes"/>
      <point x="1273" y="40"/>
      <point x="1616" y="246"/>
      <point x="1616" y="611" type="curve" smooth="yes"/>
      <point x="1616" y="936"/>
      <point x="1430" y="1214"/>
      <point x="966" y="1214" type="curve" smooth="yes"/>
      <point x="510" y="1214"/>
      <point x="72" y="841"/>
      <point x="72" y="332" type="curve" smooth="yes"/>
      <point x="72" y="-43"/>
      <point x="302" y="-295"/>
      <point x="692" y="-295" type="curve" smooth="yes"/>
      <point x="922" y="-295"/>
      <point x="1060" y="-193"/>
      <point x="1119" y="-130" type="curve"/>
      <point x="1001" y="-87" type="line"/>
      <point x="940" y="-121"/>
      <point x="838" y="-163"/>
      <point x="747" y="-163" type="curve" smooth="yes"/>
      <point x="526" y="-163"/>
      <point x="278" y="-10"/>
      <point x="278" y="351" type="curve" smooth="yes"/>
      <point x="278" y="741"/>
      <point x="604" y="1079"/>
      <point x="935" y="1079" type="curve" smooth="yes"/>
      <point x="1224" y="1079"/>
      <point x="1412" y="879"/>
      <point x="1412" y="597" type="curve" smooth="yes"/>
      <point x="1412" y="356"/>
      <point x="1258" y="166"/>
      <point x="1154" y="166" type="curve" smooth="yes"/>
      <point x="1140" y="166"/>
      <point x="1121" y="179"/>
      <point x="1108" y="195" type="curve"/>
    </contour>
    <contour>
      <point x="908" y="814"/>
      <point x="958" y="765"/>
      <point x="978" y="645" type="curve"/>
      <point x="902" y="237" type="line"/>
      <point x="852" y="207"/>
      <point x="785" y="189"/>
      <point x="735" y="187" type="curve"/>
      <point x="693" y="224"/>
      <point x="679" y="306"/>
      <point x="679" y="385" type="curve" smooth="yes"/>
      <point x="679" y="587"/>
      <point x="765" y="771"/>
      <point x="851" y="816" type="curve"/>
    </contour>
  </outline>
</glyph>
<glyph name="B" format="1">
  <advance width="1309"/>
  <unicode hex="0042"/>
  <outline>
    <contour>
      <point x="80" y="85" type="line"/>
      <point x="64" y="0" type="line"/>
      <point x="544" y="0" type="line" smooth="yes"/>
      <point x="976" y="0"/>
      <point x="1225" y="76"/>
      <point x="1225" y="396" type="curve" smooth="yes"/>
      <point x="1225" y="603"/>
      <point x="1044" y="720"/>
      <point x="835" y="743" type="curve"/>
      <point x="998" y="772"/>
      <point x="1161" y="871"/>
      <point x="1161" y="1060" type="curve" smooth="yes"/>
      <point x="1161" y="1362"/>
      <point x="849" y="1384"/>
      <point x="466" y="1384" type="curve" smooth="yes"/>
      <point x="85" y="1384" type="line"/>
      <point x="67" y="1303" type="line"/>
      <point x="255" y="1236" type="line"/>
      <point x="255" y="149" type="line"/>
    </contour>
    <contour>
      <point x="898" y="914"/>
      <point x="801" y="811"/>
      <point x="627" y="763" type="curve"/>
      <point x="618" y="704" type="line"/>
      <point x="795" y="661"/>
      <point x="951" y="576"/>
      <point x="951" y="393" type="curve" smooth="yes"/>
      <point x="951" y="164"/>
      <point x="724" y="110"/>
      <point x="515" y="81" type="curve"/>
      <point x="515" y="1305" type="line"/>
      <point x="695" y="1288"/>
      <point x="898" y="1235"/>
      <point x="898" y="1051" type="curve" smooth="yes"/>
    </contour>
  </outline>
</glyph>
<glyph name="C" format="1">
  <advance width="1270"/>
  <unicode hex="0043"/>
  <outline>
    <contour>
      <point x="942" y="-35"/>
      <point x="1098" y="33"/>
      <point x="1227" y="169" type="curve"/>
      <point x="1187" y="234" type="line"/>
      <point x="1130" y="216"/>
      <point x="879" y="149"/>
      <point x="792" y="149" type="curve" smooth="yes"/>
      <point x="688" y="149"/>
      <point x="574" y="196"/>
      <point x="489" y="308" type="curve" smooth="yes"/>
      <point x="412" y="410"/>
      <point x="367" y="557"/>
      <point x="367" y="728" type="curve" smooth="yes"/>
      <point x="367" y="957"/>
      <point x="420" y="1137"/>
      <point x="497" y="1212" type="curve" smooth="yes"/>
      <point x="538" y="1250"/>
      <point x="625" y="1275"/>
      <point x="714" y="1275" type="curve" smooth="yes"/>
      <point x="818" y="1275"/>
      <point x="898" y="1259"/>
      <point x="977" y="1218" type="curve"/>
      <point x="1067" y="1012" type="line"/>
      <point x="1179" y="1034" type="line"/>
      <point x="1146" y="1408" type="line"/>
      <point x="1007" y="1395" type="line"/>
      <point x="939" y="1408"/>
      <point x="856" y="1419"/>
      <point x="787" y="1419" type="curve" smooth="yes"/>
      <point x="619" y="1419"/>
      <point x="479" y="1374"/>
      <point x="362" y="1281" type="curve" smooth="yes"/>
      <point x="188" y="1144"/>
      <point x="96" y="907"/>
      <point x="96" y="638" type="curve" smooth="yes"/>
      <point x="96" y="209"/>
      <point x="354" y="-35"/>
      <point x="729" y="-35" type="curve" smooth="yes"/>
    </contour>
  </outline>
</glyph>
<glyph name="F" format="1">
  <advance width="1222"/>
  <unicode hex="0046"/>
  <outline>
    <contour>
      <point x="66" y="1302" type="line"/>
      <point x="253" y="1238" type="line"/>
      <point x="253" y="151" type="line"/>
      <point x="75" y="86" type="line"/>
      <point x="58" y="0" type="line"/>
      <point x="753" y="0" type="line"/>
      <point x="789" y="102" type="line"/>
      <point x="513" y="157" type="line"/>
      <point x="513" y="653" type="line"/>
      <point x="607" y="639"/>
      <point x="706" y="633"/>
      <point x="809" y="631" type="curve"/>
      <point x="855" y="471" type="line"/>
      <point x="943" y="455" type="line"/>
      <point x="962" y="919" type="line"/>
      <point x="876" y="941" type="line"/>
      <point x="811" y="771" type="line"/>
      <point x="710" y="765"/>
      <point x="611" y="757"/>
      <point x="513" y="741" type="curve"/>
      <point x="513" y="1293" type="line"/>
      <point x="995" y="1239" type="line"/>
      <point x="1092" y="1023" type="line"/>
      <point x="1200" y="1043" type="line"/>
      <point x="1166" y="1397" type="line"/>
      <point x="1039" y="1384" type="line"/>
      <point x="83" y="1384" type="line"/>
    </contour>
  </outline>
</glyph>
<glyph name="G" format="1">
  <advance width="1449"/>
  <unicode hex="0047"/>
  <outline>
    <contour>
      <point x="759" y="583" type="line"/>
      <point x="1032" y="513" type="line"/>
      <point x="1032" y="171" type="line"/>
      <point x="983" y="137"/>
      <point x="880" y="121"/>
      <point x="815" y="121" type="curve" smooth="yes"/>
      <point x="713" y="121"/>
      <point x="606" y="143"/>
      <point x="506" y="242" type="curve" smooth="yes"/>
      <point x="402" y="342"/>
      <point x="355" y="522"/>
      <point x="355" y="699" type="curve" smooth="yes"/>
      <point x="355" y="974"/>
      <point x="410" y="1140"/>
      <point x="495" y="1218" type="curve" smooth="yes"/>
      <point x="539" y="1258"/>
      <point x="647" y="1280"/>
      <point x="751" y="1280" type="curve" smooth="yes"/>
      <point x="850" y="1280"/>
      <point x="979" y="1252"/>
      <point x="1049" y="1203" type="curve"/>
      <point x="1133" y="1013" type="line"/>
      <point x="1246" y="1034" type="line"/>
      <point x="1205" y="1404" type="line"/>
      <point x="1062" y="1390" type="line"/>
      <point x="979" y="1409"/>
      <point x="876" y="1419"/>
      <point x="788" y="1419" type="curve" smooth="yes"/>
      <point x="623" y="1419"/>
      <point x="465" y="1371"/>
      <point x="354" y="1281" type="curve" smooth="yes"/>
      <point x="153" y="1118"/>
      <point x="82" y="873"/>
      <point x="82" y="646" type="curve" smooth="yes"/>
      <point x="82" y="438"/>
      <point x="148" y="250"/>
      <point x="269" y="136" type="curve" smooth="yes"/>
      <point x="414" y="3"/>
      <point x="557" y="-35"/>
      <point x="769" y="-35" type="curve" smooth="yes"/>
      <point x="988" y="-35"/>
      <point x="1191" y="69"/>
      <point x="1286" y="211" type="curve"/>
      <point x="1287" y="505" type="line"/>
      <point x="1408" y="576" type="line"/>
      <point x="1423" y="666" type="line"/>
      <point x="775" y="666" type="line"/>
    </contour>
  </outline>
</glyph>
<glyph name="H" format="1">
  <advance width="1620"/>
  <unicode hex="0048"/>
  <outline>
    <contour>
      <point x="719" y="87" type="line"/>
      <point x="513" y="153" type="line"/>
      <point x="513" y="610" type="line"/>
      <point x="712" y="615"/>
      <point x="910" y="623"/>
      <point x="1107" y="633" type="curve"/>
      <point x="1107" y="152" type="line"/>
      <point x="913" y="88" type="line"/>
      <point x="896" y="0" type="line"/>
      <point x="1533" y="0" type="line"/>
      <point x="1552" y="81" type="line"/>
      <point x="1363" y="148" type="line"/>
      <point x="1363" y="1235" type="line"/>
      <point x="1544" y="1301" type="line"/>
      <point x="1559" y="1384" type="line"/>
      <point x="933" y="1384" type="line"/>
      <point x="914" y="1299" type="line"/>
      <point x="1107" y="1233" type="line"/>
      <point x="1107" y="766" type="line"/>
      <point x="513" y="766" type="line"/>
      <point x="513" y="1230" type="line"/>
      <point x="695" y="1294" type="line"/>
      <point x="713" y="1384" type="line"/>
      <point x="87" y="1384" type="line"/>
      <point x="70" y="1303" type="line"/>
      <point x="257" y="1236" type="line"/>
      <point x="257" y="149" type="line"/>
      <point x="77" y="85" type="line"/>
      <point x="62" y="0" type="line"/>
      <point x="699" y="0" type="line"/>
    </contour>
  </outline>
</glyph>
<glyph name="J" format="1">
  <advance width="739"/>
  <unicode hex="004A"/>
  <outline>
    <contour>
      <point x="40" y="1302" type="line"/>
      <point x="251" y="1236" type="line"/>
      <point x="251" y="175" type="line" smooth="yes"/>
      <point x="251" y="121"/>
      <point x="130" y="-181"/>
      <point x="83" y="-284" type="curve"/>
      <point x="147" y="-331" type="line"/>
      <point x="448" y="-78"/>
      <point x="511" y="58"/>
      <point x="511" y="443" type="curve" smooth="yes"/>
      <point x="511" y="1235" type="line"/>
      <point x="679" y="1299" type="line"/>
      <point x="694" y="1384" type="line"/>
      <point x="57" y="1384" type="line"/>
    </contour>
  </outline>
</glyph>
<glyph name="K" format="1">
  <advance width="1487"/>
  <unicode hex="004B"/>
  <outline>
    <contour>
      <point x="256" y="149" type="line"/>
      <point x="79" y="85" type="line"/>
      <point x="63" y="0" type="line"/>
      <point x="698" y="0" type="line"/>
      <point x="718" y="90" type="line"/>
      <point x="516" y="156" type="line"/>
      <point x="516" y="1234" type="line"/>
      <point x="685" y="1298" type="line"/>
      <point x="701" y="1384" type="line"/>
      <point x="88" y="1384" type="line"/>
      <point x="70" y="1303" type="line"/>
      <point x="256" y="1236" type="line"/>
    </contour>
    <contour>
      <point x="1296" y="152" type="line"/>
      <point x="851" y="751" type="line"/>
      <point x="1276" y="1237" type="line"/>
      <point x="1447" y="1297" type="line"/>
      <point x="1465" y="1384" type="line"/>
      <point x="880" y="1384" type="line"/>
      <point x="861" y="1305" type="line"/>
      <point x="1029" y="1238" type="line"/>
      <point x="584" y="702" type="line"/>
      <point x="1014" y="77" type="line"/>
      <point x="999" y="0" type="line"/>
      <point x="1467" y="0" type="line"/>
      <point x="1485" y="81" type="line"/>
    </contour>
  </outline>
</glyph>
<glyph name="L" format="1">
  <advance width="1225"/>
  <unicode hex="004C"/>
  <outline>
    <contour>
      <point x="1128" y="353" type="line"/>
      <point x="1001" y="161" type="line"/>
      <point x="516" y="100" type="line"/>
      <point x="516" y="1233" type="line"/>
      <point x="704" y="1298" type="line"/>
      <point x="720" y="1384" type="line"/>
      <point x="87" y="1384" type="line"/>
      <point x="70" y="1301" type="line"/>
      <point x="257" y="1238" type="line"/>
      <point x="257" y="151" type="line"/>
      <point x="78" y="86" type="line"/>
      <point x="63" y="0" type="line"/>
      <point x="1149" y="0" type="line"/>
      <point x="1226" y="334" type="line"/>
    </contour>
  </outline>
</glyph>
<glyph name="M" format="1">
  <advance width="1976"/>
  <unicode hex="004D"/>
  <outline>
    <contour>
      <point x="72" y="1296" type="line"/>
      <point x="256" y="1230" type="line"/>
      <point x="256" y="149" type="line"/>
      <point x="82" y="86" type="line"/>
      <point x="65" y="0" type="line"/>
      <point x="588" y="0" type="line"/>
      <point x="604" y="83" type="line"/>
      <point x="417" y="148" type="line"/>
      <point x="416" y="479"/>
      <point x="416" y="894"/>
      <point x="383" y="1143" type="curve"/>
      <point x="839" y="-15" type="line"/>
      <point x="1046" y="25" type="line"/>
      <point x="1200" y="403"/>
      <point x="1344" y="778"/>
      <point x="1462" y="1149" type="curve"/>
      <point x="1462" y="149" type="line"/>
      <point x="1285" y="85" type="line"/>
      <point x="1269" y="0" type="line"/>
      <point x="1890" y="0" type="line"/>
      <point x="1908" y="83" type="line"/>
      <point x="1718" y="148" type="line"/>
      <point x="1718" y="1225" type="line"/>
      <point x="1897" y="1290" type="line"/>
      <point x="1914" y="1384" type="line"/>
      <point x="1437" y="1384" type="line"/>
      <point x="1001" y="278" type="line"/>
      <point x="530" y="1384" type="line"/>
      <point x="91" y="1384" type="line"/>
    </contour>
  </outline>
</glyph>
<glyph name="N" format="1">
  <advance width="1554"/>
  <unicode hex="004E"/>
  <outline>
    <contour>
      <point x="256" y="149" type="line"/>
      <point x="85" y="85" type="line"/>
      <point x="69" y="0" type="line"/>
      <point x="608" y="0" type="line"/>
      <point x="626" y="83" type="line"/>
      <point x="420" y="148" type="line"/>
      <point x="420" y="456"/>
      <point x="420" y="764"/>
      <point x="390" y="1072" type="curve"/>
      <point x="1111" y="-25" type="line"/>
      <point x="1323" y="15" type="line"/>
      <point x="1323" y="1235" type="line"/>
      <point x="1492" y="1300" type="line"/>
      <point x="1507" y="1384" type="line"/>
      <point x="971" y="1384" type="line"/>
      <point x="954" y="1301" type="line"/>
      <point x="1158" y="1237" type="line"/>
      <point x="1158" y="933"/>
      <point x="1158" y="630"/>
      <point x="1184" y="326" type="curve"/>
      <point x="480" y="1384" type="line"/>
      <point x="86" y="1384" type="line"/>
      <point x="68" y="1301" type="line"/>
      <point x="256" y="1236" type="line"/>
    </contour>
  </outline>
</glyph>
<glyph name="P" format="1">
  <advance width="1234"/>
  <unicode hex="0050"/>
  <outline>
    <contour>
      <point x="257" y="149" type="line"/>
      <point x="79" y="85" type="line"/>
      <point x="61" y="0" type="line"/>
      <point x="742" y="0" type="line"/>
      <point x="758" y="82" type="line"/>
      <point x="517" y="148" type="line"/>
      <point x="517" y="1303" type="line"/>
      <point x="733" y="1300"/>
      <point x="922" y="1220"/>
      <point x="922" y="982" type="curve" smooth="yes"/>
      <point x="922" y="793"/>
      <point x="849" y="731"/>
      <point x="653" y="639" type="curve"/>
      <point x="641" y="573" type="line"/>
      <point x="761" y="573"/>
      <point x="926" y="598"/>
      <point x="1036" y="676" type="curve" smooth="yes"/>
      <point x="1130" y="743"/>
      <point x="1188" y="846"/>
      <point x="1188" y="975" type="curve" smooth="yes"/>
      <point x="1188" y="1120"/>
      <point x="1129" y="1228"/>
      <point x="1040" y="1290" type="curve" smooth="yes"/>
      <point x="907" y="1383"/>
      <point x="721" y="1384"/>
      <point x="540" y="1384" type="curve" smooth="yes"/>
      <point x="86" y="1384" type="line"/>
      <point x="69" y="1302" type="line"/>
      <point x="257" y="1236" type="line"/>
    </contour>
  </outline>
</glyph>
<glyph name="Q" format="1">
  <advance width="1458"/>
  <unicode hex="0051"/>
  <outline>
    <contour>
      <point x="1376" y="1173"/>
      <point x="1097" y="1419"/>
      <point x="771" y="1419" type="curve" smooth="yes"/>
      <point x="318" y="1419"/>
      <point x="82" y="1041"/>
      <point x="82" y="623" type="curve" smooth="yes"/>
      <point x="82" y="211"/>
      <point x="353" y="-35"/>
      <point x="700" y="-35" type="curve" smooth="yes"/>
      <point x="738" y="-35"/>
      <point x="775" y="-32"/>
      <point x="810" y="-26" type="curve"/>
      <point x="968" y="-185"/>
      <point x="1207" y="-323"/>
      <point x="1338" y="-323" type="curve"/>
      <point x="1374" y="-257" type="line"/>
      <point x="1064" y="77" type="line"/>
      <point x="1264" y="218"/>
      <point x="1376" y="477"/>
      <point x="1376" y="762" type="curve" smooth="yes"/>
    </contour>
    <contour>
      <point x="370" y="414"/>
      <point x="355" y="590"/>
      <point x="355" y="766" type="curve" smooth="yes"/>
      <point x="355" y="891"/>
      <point x="384" y="1113"/>
      <point x="464" y="1192" type="curve" smooth="yes"/>
      <point x="518" y="1244"/>
      <point x="602" y="1260"/>
      <point x="670" y="1260" type="curve" smooth="yes"/>
      <point x="834" y="1260"/>
      <point x="992" y="1150"/>
      <point x="1056" y="984" type="curve" smooth="yes"/>
      <point x="1096" y="882"/>
      <point x="1103" y="771"/>
      <point x="1103" y="617" type="curve" smooth="yes"/>
      <point x="1103" y="493"/>
      <point x="1073" y="283"/>
      <point x="1004" y="203" type="curve" smooth="yes"/>
      <point x="952" y="144"/>
      <point x="864" y="124"/>
      <point x="791" y="124" type="curve" smooth="yes"/>
      <point x="661" y="124"/>
      <point x="541" y="186"/>
      <point x="465" y="287" type="curve" smooth="yes"/>
    </contour>
  </outline>
</glyph>
<glyph name="T" format="1">
  <advance width="1395"/>
  <unicode hex="0054"/>
  <outline>
    <contour>
      <point x="566" y="154" type="line"/>
      <point x="368" y="90" type="line"/>
      <point x="350" y="0" type="line"/>
      <point x="1031" y="0" type="line"/>
      <point x="1049" y="90" type="line"/>
      <point x="822" y="153" type="line"/>
      <point x="822" y="1289" type="line"/>
      <point x="1144" y="1246" type="line"/>
      <point x="1262" y="990" type="line"/>
      <point x="1375" y="1015" type="line"/>
      <point x="1332" y="1397" type="line"/>
      <point x="1205" y="1384" type="line"/>
      <point x="222" y="1384" type="line"/>
      <point x="90" y="1393" type="line"/>
      <point x="8" y="1018" type="line"/>
      <point x="119" y="996" type="line"/>
      <point x="256" y="1247" type="line"/>
      <point x="566" y="1288" type="line"/>
    </contour>
  </outline>
</glyph>
<glyph name="V" format="1">
  <advance width="1387"/>
  <unicode hex="0056"/>
  <outline>
    <contour>
      <point x="1097" y="1243" type="line"/>
      <point x="776" y="202" type="line"/>
      <point x="406" y="1239" type="line"/>
      <point x="569" y="1293" type="line"/>
      <point x="585" y="1384" type="line"/>
      <point x="-15" y="1384" type="line"/>
      <point x="-33" y="1290" type="line"/>
      <point x="107" y="1240" type="line"/>
      <point x="591" y="-35" type="line"/>
      <point x="828" y="0" type="line"/>
      <point x="1267" y="1240" type="line"/>
      <point x="1399" y="1291" type="line"/>
      <point x="1417" y="1384" type="line"/>
      <point x="937" y="1384" type="line"/>
      <point x="919" y="1291" type="line"/>
    </contour>
  </outline>
</glyph>
<glyph name="W" format="1">
  <advance width="2105"/>
  <unicode hex="0057"/>
  <outline>
    <contour>
      <point x="2134" y="1384" type="line"/>
      <point x="1640" y="1384" type="line"/>
      <point x="1620" y="1290" type="line"/>
      <point x="1819" y="1242" type="line"/>
      <point x="1527" y="221" type="line"/>
      <point x="1214" y="1238" type="line"/>
      <point x="1405" y="1290" type="line"/>
      <point x="1422" y="1384" type="line"/>
      <point x="812" y="1384" type="line"/>
      <point x="796" y="1294" type="line"/>
      <point x="939" y="1242" type="line"/>
      <point x="991" y="1078" type="line"/>
      <point x="704" y="222" type="line"/>
      <point x="420" y="1239" type="line"/>
      <point x="575" y="1292" type="line"/>
      <point x="591" y="1384" type="line"/>
      <point x="6" y="1384" type="line"/>
      <point x="-12" y="1289" type="line"/>
      <point x="133" y="1240" type="line"/>
      <point x="523" y="-35" type="line"/>
      <point x="761" y="0" type="line"/>
      <point x="1055" y="878" type="line"/>
      <point x="1346" y="-35" type="line"/>
      <point x="1581" y="0" type="line"/>
      <point x="1986" y="1240" type="line"/>
      <point x="2117" y="1289" type="line"/>
    </contour>
  </outline>
</glyph>
<glyph name="X" format="1">
  <advance width="1401"/>
  <unicode hex="0058"/>
  <outline>
    <contour>
      <point x="1381" y="88" type="line"/>
      <point x="1233" y="142" type="line"/>
      <point x="841" y="704" type="line"/>
      <point x="1216" y="1240" type="line"/>
      <point x="1361" y="1287" type="line"/>
      <point x="1380" y="1384" type="line"/>
      <point x="884" y="1384" type="line"/>
      <point x="868" y="1303" type="line"/>
      <point x="1027" y="1239" type="line"/>
      <point x="765" y="816" type="line"/>
      <point x="489" y="1238" type="line"/>
      <point x="632" y="1297" type="line"/>
      <point x="647" y="1384" type="line"/>
      <point x="44" y="1384" type="line"/>
      <point x="26" y="1285" type="line"/>
      <point x="174" y="1240" type="line"/>
      <point x="565" y="673" type="line"/>
      <point x="181" y="146" type="line"/>
      <point x="36" y="93" type="line"/>
      <point x="20" y="0" type="line"/>
      <point x="514" y="0" type="line"/>
      <point x="533" y="82" type="line"/>
      <point x="372" y="145" type="line"/>
      <point x="640" y="562" type="line"/>
      <point x="915" y="146" type="line"/>
      <point x="772" y="86" type="line"/>
      <point x="757" y="0" type="line"/>
      <point x="1366" y="0" type="line"/>
    </contour>
  </outline>
</glyph>
<glyph name="Z" format="1">
  <advance width="1268"/>
  <unicode hex="005A"/>
  <outline>
    <contour>
      <point x="1095" y="380" type="line"/>
      <point x="970" y="165" type="line"/>
      <point x="343" y="116" type="line"/>
      <point x="1191" y="1261" type="line"/>
      <point x="1150" y="1384" type="line"/>
      <point x="318" y="1384" type="line"/>
      <point x="144" y="1394" type="line"/>
      <point x="96" y="1035" type="line"/>
      <point x="212" y="1013" type="line"/>
      <point x="315" y="1232" type="line"/>
      <point x="901" y="1281" type="line"/>
      <point x="58" y="151" type="line"/>
      <point x="115" y="0" type="line"/>
      <point x="1120" y="0" type="line"/>
      <point x="1202" y="360" type="line"/>
    </contour>
  </outline>
</glyph>
<glyph name="bracketleft" format="1">
  <advance width="630"/>
  <unicode hex="005B"/>
  <outline>
    <contour>
      <point x="605" y="1472" type="line"/>
      <point x="168" y="1472" type="line"/>
      <point x="168" y="-316" type="line"/>
      <point x="595" y="-316" type="line"/>
      <point x="614" y="-248" type="line"/>
      <point x="377" y="-173" type="line"/>
      <point x="377" y="1330" type="line"/>
      <point x="589" y="1399" type="line"/>
    </contour>
  </outline>
</glyph>
<glyph name="backslash" format="1">
  <advance width="915"/>
  <unicode hex="005C"/>
  <outline>
    <contour>
      <point x="241" y="1495" type="line"/>
      <point x="68" y="1444" type="line"/>
      <point x="658" y="-25" type="line"/>
      <point x="832" y="25" type="line"/>
    </contour>
  </outline>
</glyph>
<glyph name="bracketright" format="1">
  <advance width="627"/>
  <unicode hex="005D"/>
  <outline>
    <contour>
      <point x="459" y="-316" type="line"/>
      <point x="459" y="1472" type="line"/>
      <point x="41" y="1472" type="line"/>
      <point x="21" y="1400" type="line"/>
      <point x="250" y="1330" type="line"/>
      <point x="250" y="-173" type="line"/>
      <point x="37" y="-245" type="line"/>
      <point x="22" y="-316" type="line"/>
    </contour>
  </outline>
</glyph>
<glyph name="asciicircum" format="1">
  <advance width="881"/>
  <unicode hex="005E"/>
  <outline>
    <contour>
      <point x="199" y="958" type="line"/>
      <point x="440" y="1101" type="line"/>
      <point x="682" y="958" type="line"/>
      <point x="776" y="1017" type="line"/>
      <point x="511" y="1276" type="line"/>
      <point x="370" y="1276" type="line"/>
      <point x="105" y="1017" type="line"/>
    </contour>
  </outline>
</glyph>
<glyph name="underscore" format="1">
  <advance width="1025"/>
  <unicode hex="005F"/>
  <outline>
    <contour>
      <point x="1086" y="-183" type="line"/>
      <point x="-23" y="-183" type="line"/>
      <point x="-61" y="-349" type="line"/>
      <point x="1054" y="-349" type="line"/>
    </contour>
  </outline>
</glyph>
<glyph name="grave" format="1">
  <advance width="1024"/>
  <unicode hex="0060"/>
  <outline>
    <contour>
      <point x="268" y="1290" type="line"/>
      <point x="670" y="1054" type="line"/>
      <point x="694" y="1190" type="line"/>
      <point x="404" y="1457" type="line"/>
      <point x="300" y="1457" type="line"/>
    </contour>
  </outline>
</glyph>
<glyph name="b" format="1">
  <advance width="1135"/>
  <unicode hex="0062"/>
  <outline>
    <contour>
      <point x="115" y="-25" type="line"/>
      <point x="375" y="102" type="line"/>
      <point x="453" y="11"/>
      <point x="529" y="-25"/>
      <point x="642" y="-25" type="curve" smooth="yes"/>
      <point x="770" y="-25"/>
      <point x="862" y="41"/>
      <point x="927" y="116" type="curve" smooth="yes"/>
      <point x="1012" y="215"/>
      <point x="1059" y="355"/>
      <point x="1059" y="507" type="curve" smooth="yes"/>
      <point x="1059" y="733"/>
      <point x="973" y="975"/>
      <point x="728" y="975" type="curve" smooth="yes"/>
      <point x="613" y="975"/>
      <point x="484" y="896"/>
      <point x="402" y="829" type="curve"/>
      <point x="402" y="1472" type="line"/>
      <point x="22" y="1413" type="line"/>
      <point x="13" y="1365" type="line"/>
      <point x="161" y="1282" type="line"/>
      <point x="161" y="203" type="line"/>
      <point x="70" y="34" type="line"/>
    </contour>
    <contour>
      <point x="402" y="766" type="line"/>
      <point x="468" y="789"/>
      <point x="589" y="812"/>
      <point x="637" y="812" type="curve" smooth="yes"/>
      <point x="666" y="812"/>
      <point x="689" y="804"/>
      <point x="708" y="781" type="curve"/>
      <point x="784" y="705"/>
      <point x="822" y="571"/>
      <point x="822" y="434" type="curve" smooth="yes"/>
      <point x="822" y="334"/>
      <point x="799" y="194"/>
      <point x="759" y="158" type="curve"/>
      <point x="740" y="133"/>
      <point x="705" y="128"/>
      <point x="661" y="128" type="curve" smooth="yes"/>
      <point x="578" y="128"/>
      <point x="472" y="147"/>
      <point x="402" y="208" type="curve"/>
    </contour>
  </outline>
</glyph>
<glyph name="d" format="1">
  <advance width="1162"/>
  <unicode hex="0064"/>
  <outline>
    <contour>
      <point x="978" y="1472" type="line"/>
      <point x="597" y="1411" type="line"/>
      <point x="588" y="1365" type="line"/>
      <point x="736" y="1282" type="line"/>
      <point x="736" y="889" type="line"/>
      <point x="667" y="945"/>
      <point x="586" y="975"/>
      <point x="505" y="975" type="curve" smooth="yes"/>
      <point x="246" y="975"/>
      <point x="68" y="737"/>
      <point x="68" y="437" type="curve" smooth="yes"/>
      <point x="68" y="102"/>
      <point x="270" y="-25"/>
      <point x="464" y="-25" type="curve" smooth="yes"/>
      <point x="592" y="-25"/>
      <point x="703" y="43"/>
      <point x="771" y="131" type="curve"/>
      <point x="820" y="92"/>
      <point x="860" y="33"/>
      <point x="889" y="-25" type="curve"/>
      <point x="962" y="-25"/>
      <point x="1102" y="16"/>
      <point x="1139" y="34" type="curve"/>
      <point x="1152" y="95" type="line"/>
      <point x="1108" y="103"/>
      <point x="1011" y="139"/>
      <point x="978" y="195" type="curve"/>
    </contour>
    <contour>
      <point x="505" y="130"/>
      <point x="480" y="145"/>
      <point x="456" y="168" type="curve"/>
      <point x="382" y="232"/>
      <point x="310" y="363"/>
      <point x="310" y="535" type="curve" smooth="yes"/>
      <point x="310" y="640"/>
      <point x="326" y="724"/>
      <point x="360" y="781" type="curve" smooth="yes"/>
      <point x="384" y="823"/>
      <point x="430" y="829"/>
      <point x="477" y="829" type="curve" smooth="yes"/>
      <point x="575" y="829"/>
      <point x="681" y="785"/>
      <point x="736" y="705" type="curve"/>
      <point x="736" y="171" type="line"/>
      <point x="680" y="147"/>
      <point x="598" y="130"/>
      <point x="533" y="130" type="curve" smooth="yes"/>
    </contour>
  </outline>
</glyph>
<glyph name="e" format="1">
  <advance width="970"/>
  <unicode hex="0065"/>
  <outline>
    <contour>
      <point x="900" y="550"/>
      <point x="907" y="596"/>
      <point x="907" y="643" type="curve" smooth="yes"/>
      <point x="907" y="828"/>
      <point x="775" y="975"/>
      <point x="552" y="975" type="curve" smooth="yes"/>
      <point x="256" y="975"/>
      <point x="65" y="738"/>
      <point x="65" y="457" type="curve" smooth="yes"/>
      <point x="65" y="112"/>
      <point x="281" y="-25"/>
      <point x="504" y="-25" type="curve" smooth="yes"/>
      <point x="656" y="-25"/>
      <point x="808" y="65"/>
      <point x="879" y="154" type="curve"/>
      <point x="859" y="188" type="line"/>
      <point x="827" y="175"/>
      <point x="676" y="132"/>
      <point x="582" y="132" type="curve" smooth="yes"/>
      <point x="431" y="132"/>
      <point x="319" y="298"/>
      <point x="301" y="471" type="curve"/>
      <point x="831" y="471" type="line" smooth="yes"/>
      <point x="862" y="471"/>
      <point x="874" y="484"/>
      <point x="883" y="506" type="curve" smooth="yes"/>
    </contour>
    <contour>
      <point x="298" y="551" type="line"/>
      <point x="302" y="696"/>
      <point x="339" y="787"/>
      <point x="369" y="824" type="curve"/>
      <point x="388" y="845"/>
      <point x="425" y="847"/>
      <point x="452" y="847" type="curve" smooth="yes"/>
      <point x="578" y="847"/>
      <point x="686" y="760"/>
      <point x="694" y="591" type="curve"/>
    </contour>
  </outline>
</glyph>
<glyph name="f" format="1">
  <advance width="774"/>
  <unicode hex="0066"/>
  <outline>
    <contour>
      <point x="214" y="141" type="line"/>
      <point x="73" y="82" type="line"/>
      <point x="57" y="0" type="line"/>
      <point x="698" y="0" type="line"/>
      <point x="714" y="74" type="line"/>
      <point x="455" y="131" type="line"/>
      <point x="455" y="802" type="line"/>
      <point x="755" y="871" type="line"/>
      <point x="769" y="950" type="line"/>
      <point x="455" y="950" type="line"/>
      <point x="455" y="1172"/>
      <point x="479" y="1365"/>
      <point x="658" y="1403" type="curve"/>
      <point x="693" y="1229" type="line"/>
      <point x="713" y="1213"/>
      <point x="751" y="1188"/>
      <point x="780" y="1188" type="curve" smooth="yes"/>
      <point x="833" y="1188"/>
      <point x="931" y="1283"/>
      <point x="931" y="1342" type="curve" smooth="yes"/>
      <point x="931" y="1379"/>
      <point x="890" y="1416"/>
      <point x="849" y="1436" type="curve" smooth="yes"/>
      <point x="797" y="1461"/>
      <point x="737" y="1472"/>
      <point x="646" y="1472" type="curve" smooth="yes"/>
      <point x="340" y="1472"/>
      <point x="214" y="1313"/>
      <point x="214" y="950" type="curve"/>
      <point x="72" y="950" type="line"/>
      <point x="54" y="862" type="line"/>
      <point x="214" y="800" type="line"/>
    </contour>
  </outline>
</glyph>
<glyph name="g" format="1">
  <advance width="1068"/>
  <unicode hex="0067"/>
  <outline>
    <contour>
      <point x="430" y="125"/>
      <point x="359" y="128"/>
      <point x="322" y="141" type="curve" smooth="yes"/>
      <point x="306" y="147"/>
      <point x="292" y="161"/>
      <point x="292" y="178" type="curve" smooth="yes"/>
      <point x="292" y="208"/>
      <point x="324" y="261"/>
      <point x="343" y="293" type="curve"/>
      <point x="390" y="280"/>
      <point x="442" y="274"/>
      <point x="496" y="274" type="curve" smooth="yes"/>
      <point x="753" y="274"/>
      <point x="921" y="425"/>
      <point x="921" y="654" type="curve" smooth="yes"/>
      <point x="921" y="700"/>
      <point x="912" y="741"/>
      <point x="896" y="778" type="curve"/>
      <point x="1069" y="938" type="line"/>
      <point x="1050" y="979" type="line"/>
      <point x="977" y="979"/>
      <point x="867" y="959"/>
      <point x="775" y="914" type="curve"/>
      <point x="710" y="954"/>
      <point x="629" y="975"/>
      <point x="545" y="975" type="curve" smooth="yes"/>
      <point x="235" y="975"/>
      <point x="105" y="795"/>
      <point x="105" y="585" type="curve" smooth="yes"/>
      <point x="105" y="451"/>
      <point x="174" y="364"/>
      <point x="276" y="317" type="curve"/>
      <point x="193" y="288"/>
      <point x="79" y="225"/>
      <point x="79" y="122" type="curve" smooth="yes"/>
      <point x="79" y="50"/>
      <point x="128" y="-10"/>
      <point x="206" y="-39" type="curve"/>
      <point x="116" y="-93"/>
      <point x="19" y="-173"/>
      <point x="19" y="-276" type="curve" smooth="yes"/>
      <point x="19" y="-332"/>
      <point x="39" y="-381"/>
      <point x="87" y="-419" type="curve"/>
      <point x="161" y="-473"/>
      <point x="310" y="-500"/>
      <point x="427" y="-500" type="curve" smooth="yes"/>
      <point x="818" y="-500"/>
      <point x="1024" y="-293"/>
      <point x="1024" y="-78" type="curve" smooth="yes"/>
      <point x="1024" y="57"/>
      <point x="942" y="125"/>
      <point x="735" y="125" type="curve" smooth="yes"/>
    </contour>
    <contour>
      <point x="378" y="851"/>
      <point x="427" y="860"/>
      <point x="466" y="860" type="curve" smooth="yes"/>
      <point x="626" y="860"/>
      <point x="702" y="743"/>
      <point x="702" y="600" type="curve" smooth="yes"/>
      <point x="702" y="518"/>
      <point x="690" y="447"/>
      <point x="667" y="424" type="curve" smooth="yes"/>
      <point x="648" y="405"/>
      <point x="615" y="395"/>
      <point x="574" y="395" type="curve" smooth="yes"/>
      <point x="423" y="395"/>
      <point x="328" y="541"/>
      <point x="328" y="692" type="curve" smooth="yes"/>
      <point x="328" y="746"/>
      <point x="341" y="798"/>
      <point x="363" y="830" type="curve" smooth="yes"/>
    </contour>
    <contour>
      <point x="718" y="-348"/>
      <point x="605" y="-355"/>
      <point x="534" y="-355" type="curve" smooth="yes"/>
      <point x="387" y="-355"/>
      <point x="259" y="-315"/>
      <point x="225" y="-267" type="curve"/>
      <point x="218" y="-258"/>
      <point x="216" y="-246"/>
      <point x="216" y="-232" type="curve" smooth="yes"/>
      <point x="216" y="-182"/>
      <point x="251" y="-102"/>
      <point x="276" y="-55" type="curve"/>
      <point x="375" y="-69"/>
      <point x="539" y="-70"/>
      <point x="716" y="-70" type="curve" smooth="yes"/>
      <point x="813" y="-70"/>
      <point x="820" y="-111"/>
      <point x="820" y="-164" type="curve" smooth="yes"/>
      <point x="820" y="-237"/>
      <point x="786" y="-294"/>
      <point x="767" y="-310" type="curve"/>
    </contour>
  </outline>
</glyph>
<glyph name="h" format="1">
  <advance width="1241"/>
  <unicode hex="0068"/>
  <outline>
    <contour>
      <point x="1228" y="74" type="line"/>
      <point x="1066" y="131" type="line"/>
      <point x="1066" y="619" type="line" smooth="yes"/>
      <point x="1066" y="900"/>
      <point x="923" y="974"/>
      <point x="793" y="974" type="curve" smooth="yes"/>
      <point x="683" y="974"/>
      <point x="549" y="909"/>
      <point x="430" y="818" type="curve"/>
      <point x="430" y="1472" type="line"/>
      <point x="49" y="1412" type="line"/>
      <point x="40" y="1365" type="line"/>
      <point x="188" y="1281" type="line"/>
      <point x="188" y="135" type="line"/>
      <point x="50" y="79" type="line"/>
      <point x="34" y="0" type="line"/>
      <point x="563" y="0" type="line"/>
      <point x="580" y="73" type="line"/>
      <point x="430" y="131" type="line"/>
      <point x="430" y="754" type="line"/>
      <point x="505" y="779"/>
      <point x="652" y="808"/>
      <point x="713" y="808" type="curve" smooth="yes"/>
      <point x="729" y="808"/>
      <point x="739" y="804"/>
      <point x="751" y="795" type="curve"/>
      <point x="785" y="767"/>
      <point x="824" y="690"/>
      <point x="824" y="551" type="curve" smooth="yes"/>
      <point x="824" y="138" type="line"/>
      <point x="730" y="79" type="line"/>
      <point x="714" y="0" type="line"/>
      <point x="1211" y="0" type="line"/>
    </contour>
  </outline>
</glyph>
<glyph name="i" format="1">
  <advance width="631"/>
  <unicode hex="0069"/>
  <outline>
    <contour>
      <point x="406" y="1150"/>
      <point x="476" y="1285"/>
      <point x="462" y="1327" type="curve" smooth="yes"/>
      <point x="449" y="1362"/>
      <point x="320" y="1434"/>
      <point x="273" y="1419" type="curve" smooth="yes"/>
      <point x="233" y="1406"/>
      <point x="165" y="1270"/>
      <point x="180" y="1229" type="curve" smooth="yes"/>
      <point x="196" y="1188"/>
      <point x="330" y="1125"/>
      <point x="368" y="1137" type="curve" smooth="yes"/>
    </contour>
    <contour>
      <point x="205" y="135" type="line"/>
      <point x="64" y="80" type="line"/>
      <point x="49" y="0" type="line"/>
      <point x="583" y="0" type="line"/>
      <point x="599" y="73" type="line"/>
      <point x="447" y="131" type="line"/>
      <point x="447" y="965" type="line"/>
      <point x="66" y="903" type="line"/>
      <point x="57" y="856" type="line"/>
      <point x="205" y="773" type="line"/>
    </contour>
  </outline>
</glyph>
<glyph name="j" format="1">
  <advance width="565"/>
  <unicode hex="006A"/>
  <outline>
    <contour>
      <point x="372" y="1150"/>
      <point x="445" y="1282"/>
      <point x="430" y="1327" type="curve"/>
      <point x="417" y="1361"/>
      <point x="288" y="1435"/>
      <point x="241" y="1419" type="curve" smooth="yes"/>
      <point x="199" y="1406"/>
      <point x="133" y="1270"/>
      <point x="149" y="1229" type="curve" smooth="yes"/>
      <point x="164" y="1188"/>
      <point x="298" y="1125"/>
      <point x="336" y="1137" type="curve"/>
    </contour>
    <contour>
      <point x="32" y="856" type="line"/>
      <point x="180" y="772" type="line"/>
      <point x="180" y="0" type="line" smooth="yes"/>
      <point x="180" y="-239"/>
      <point x="172" y="-332"/>
      <point x="78" y="-439" type="curve"/>
      <point x="34" y="-249" type="line"/>
      <point x="9" y="-231"/>
      <point x="-26" y="-210"/>
      <point x="-51" y="-210" type="curve" smooth="yes"/>
      <point x="-102" y="-210"/>
      <point x="-206" y="-310"/>
      <point x="-206" y="-369" type="curve" smooth="yes"/>
      <point x="-206" y="-446"/>
      <point x="-69" y="-500"/>
      <point x="35" y="-500" type="curve" smooth="yes"/>
      <point x="366" y="-500"/>
      <point x="422" y="-221"/>
      <point x="422" y="28" type="curve" smooth="yes"/>
      <point x="422" y="965" type="line"/>
      <point x="40" y="903" type="line"/>
    </contour>
  </outline>
</glyph>
<glyph name="k" format="1">
  <advance width="1204"/>
  <unicode hex="006B"/>
  <outline>
    <contour>
      <point x="37" y="1365" type="line"/>
      <point x="185" y="1281" type="line"/>
      <point x="185" y="135" type="line"/>
      <point x="50" y="79" type="line"/>
      <point x="34" y="0" type="line"/>
      <point x="566" y="0" type="line"/>
      <point x="583" y="73" type="line"/>
      <point x="427" y="131" type="line"/>
      <point x="427" y="1472" type="line"/>
      <point x="46" y="1412" type="line"/>
    </contour>
    <contour>
      <point x="1064" y="124" type="line"/>
      <point x="712" y="602" type="line"/>
      <point x="973" y="830" type="line"/>
      <point x="1110" y="873" type="line"/>
      <point x="1126" y="950" type="line"/>
      <point x="678" y="950" type="line"/>
      <point x="664" y="880" type="line"/>
      <point x="782" y="836" type="line"/>
      <point x="468" y="550" type="line"/>
      <point x="796" y="66" type="line"/>
      <point x="784" y="0" type="line"/>
      <point x="1190" y="0" type="line"/>
      <point x="1206" y="70" type="line"/>
    </contour>
  </outline>
</glyph>
<glyph name="l" format="1">
  <advance width="614"/>
  <unicode hex="006C"/>
  <outline>
    <contour>
      <point x="37" y="1365" type="line"/>
      <point x="185" y="1281" type="line"/>
      <point x="185" y="135" type="line"/>
      <point x="50" y="79" type="line"/>
      <point x="34" y="0" type="line"/>
      <point x="566" y="0" type="line"/>
      <point x="583" y="73" type="line"/>
      <point x="427" y="131" type="line"/>
      <point x="427" y="1472" type="line"/>
      <point x="46" y="1412" type="line"/>
    </contour>
  </outline>
</glyph>
<glyph name="m" format="1">
  <advance width="1856"/>
  <unicode hex="006D"/>
  <outline>
    <contour>
      <point x="58" y="856" type="line"/>
      <point x="205" y="772" type="line"/>
      <point x="205" y="141" type="line"/>
      <point x="67" y="81" type="line"/>
      <point x="52" y="0" type="line"/>
      <point x="584" y="0" type="line"/>
      <point x="599" y="73" type="line"/>
      <point x="447" y="131" type="line"/>
      <point x="448" y="687" type="line" smooth="yes"/>
      <point x="448" y="712"/>
      <point x="446" y="735"/>
      <point x="442" y="755" type="curve"/>
      <point x="540" y="786"/>
      <point x="671" y="808"/>
      <point x="720" y="808" type="curve" smooth="yes"/>
      <point x="730" y="808"/>
      <point x="738" y="806"/>
      <point x="746" y="799" type="curve"/>
      <point x="786" y="767"/>
      <point x="824" y="689"/>
      <point x="824" y="500" type="curve" smooth="yes"/>
      <point x="824" y="138" type="line"/>
      <point x="729" y="79" type="line"/>
      <point x="714" y="0" type="line"/>
      <point x="1199" y="0" type="line"/>
      <point x="1216" y="74" type="line"/>
      <point x="1066" y="131" type="line"/>
      <point x="1066" y="477" type="line" smooth="yes"/>
      <point x="1066" y="597"/>
      <point x="1065" y="700"/>
      <point x="1051" y="754" type="curve"/>
      <point x="1148" y="789"/>
      <point x="1299" y="808"/>
      <point x="1331" y="808" type="curve" smooth="yes"/>
      <point x="1348" y="808"/>
      <point x="1357" y="804"/>
      <point x="1369" y="791" type="curve"/>
      <point x="1406" y="763"/>
      <point x="1440" y="683"/>
      <point x="1440" y="490" type="curve" smooth="yes"/>
      <point x="1440" y="138" type="line"/>
      <point x="1345" y="80" type="line"/>
      <point x="1329" y="0" type="line"/>
      <point x="1827" y="0" type="line"/>
      <point x="1843" y="75" type="line"/>
      <point x="1682" y="131" type="line"/>
      <point x="1682" y="531" type="line" smooth="yes"/>
      <point x="1682" y="864"/>
      <point x="1591" y="974"/>
      <point x="1404" y="974" type="curve" smooth="yes"/>
      <point x="1305" y="974"/>
      <point x="1154" y="904"/>
      <point x="1035" y="805" type="curve"/>
      <point x="986" y="935"/>
      <point x="884" y="974"/>
      <point x="801" y="974" type="curve" smooth="yes"/>
      <point x="683" y="974"/>
      <point x="544" y="900"/>
      <point x="427" y="803" type="curve"/>
      <point x="380" y="960" type="line"/>
      <point x="66" y="903" type="line"/>
    </contour>
  </outline>
</glyph>
<glyph name="n" format="1">
  <advance width="1257"/>
  <unicode hex="006E"/>
  <outline>
    <contour>
      <point x="58" y="856" type="line"/>
      <point x="205" y="772" type="line"/>
      <point x="205" y="141" type="line"/>
      <point x="68" y="82" type="line"/>
      <point x="52" y="0" type="line"/>
      <point x="583" y="0" type="line"/>
      <point x="600" y="73" type="line"/>
      <point x="448" y="131" type="line"/>
      <point x="447" y="698" type="line"/>
      <point x="447" y="721"/>
      <point x="441" y="752"/>
      <point x="441" y="752" type="curve"/>
      <point x="515" y="778"/>
      <point x="667" y="808"/>
      <point x="730" y="808" type="curve" smooth="yes"/>
      <point x="745" y="808"/>
      <point x="756" y="804"/>
      <point x="768" y="795" type="curve"/>
      <point x="802" y="767"/>
      <point x="841" y="690"/>
      <point x="841" y="551" type="curve" smooth="yes"/>
      <point x="841" y="138" type="line"/>
      <point x="746" y="79" type="line"/>
      <point x="730" y="0" type="line"/>
      <point x="1228" y="0" type="line"/>
      <point x="1244" y="74" type="line"/>
      <point x="1083" y="131" type="line"/>
      <point x="1083" y="619" type="line" smooth="yes"/>
      <point x="1083" y="900"/>
      <point x="939" y="974"/>
      <point x="810" y="974" type="curve" smooth="yes"/>
      <point x="694" y="974"/>
      <point x="551" y="901"/>
      <point x="427" y="803" type="curve"/>
      <point x="380" y="965" type="line"/>
      <point x="66" y="903" type="line"/>
    </contour>
  </outline>
</glyph>
<glyph name="p" format="1">
  <advance width="1151"/>
  <unicode hex="0070"/>
  <outline>
    <contour>
      <point x="681" y="-402" type="line"/>
      <point x="421" y="-344" type="line"/>
      <point x="421" y="78" type="line"/>
      <point x="475" y="6"/>
      <point x="570" y="-25"/>
      <point x="666" y="-25" type="curve" smooth="yes"/>
      <point x="746" y="-25"/>
      <point x="820" y="6"/>
      <point x="877" y="50" type="curve" smooth="yes"/>
      <point x="1001" y="146"/>
      <point x="1078" y="322"/>
      <point x="1078" y="504" type="curve" smooth="yes"/>
      <point x="1078" y="799"/>
      <point x="950" y="974"/>
      <point x="739" y="974" type="curve" smooth="yes"/>
      <point x="616" y="974"/>
      <point x="498" y="893"/>
      <point x="405" y="826" type="curve"/>
      <point x="354" y="960" type="line"/>
      <point x="41" y="903" type="line"/>
      <point x="32" y="856" type="line"/>
      <point x="179" y="772" type="line"/>
      <point x="179" y="-334" type="line"/>
      <point x="40" y="-393" type="line"/>
      <point x="25" y="-475" type="line"/>
      <point x="666" y="-475" type="line"/>
    </contour>
    <contour>
      <point x="484" y="791"/>
      <point x="594" y="813"/>
      <point x="644" y="813" type="curve" smooth="yes"/>
      <point x="672" y="813"/>
      <point x="694" y="806"/>
      <point x="718" y="780" type="curve" smooth="yes"/>
      <point x="793" y="703"/>
      <point x="839" y="576"/>
      <point x="839" y="417" type="curve" smooth="yes"/>
      <point x="839" y="296"/>
      <point x="807" y="189"/>
      <point x="776" y="157" type="curve"/>
      <point x="758" y="133"/>
      <point x="725" y="128"/>
      <point x="682" y="128" type="curve" smooth="yes"/>
      <point x="599" y="128"/>
      <point x="491" y="146"/>
      <point x="421" y="208" type="curve"/>
      <point x="421" y="695" type="line" smooth="yes"/>
      <point x="421" y="712"/>
      <point x="421" y="743"/>
      <point x="419" y="765" type="curve"/>
    </contour>
  </outline>
</glyph>
<glyph name="q" format="1">
  <advance width="1138"/>
  <unicode hex="0071"/>
  <outline>
    <contour>
      <point x="733" y="-340" type="line"/>
      <point x="503" y="-398" type="line"/>
      <point x="487" y="-475" type="line"/>
      <point x="1122" y="-475" type="line"/>
      <point x="1138" y="-399" type="line"/>
      <point x="975" y="-338" type="line"/>
      <point x="975" y="734" type="line"/>
      <point x="1065" y="899" type="line"/>
      <point x="1021" y="965" type="line"/>
      <point x="779" y="845" type="line"/>
      <point x="701" y="939"/>
      <point x="606" y="974"/>
      <point x="497" y="974" type="curve" smooth="yes"/>
      <point x="391" y="974"/>
      <point x="288" y="928"/>
      <point x="216" y="848" type="curve" smooth="yes"/>
      <point x="118" y="744"/>
      <point x="68" y="598"/>
      <point x="68" y="450" type="curve" smooth="yes"/>
      <point x="68" y="108"/>
      <point x="263" y="-25"/>
      <point x="452" y="-25" type="curve" smooth="yes"/>
      <point x="576" y="-25"/>
      <point x="675" y="38"/>
      <point x="733" y="98" type="curve"/>
    </contour>
    <contour>
      <point x="733" y="171" type="line"/>
      <point x="679" y="146"/>
      <point x="599" y="130"/>
      <point x="535" y="130" type="curve" smooth="yes"/>
      <point x="505" y="130"/>
      <point x="473" y="146"/>
      <point x="450" y="171" type="curve"/>
      <point x="349" y="261"/>
      <point x="309" y="400"/>
      <point x="309" y="535" type="curve" smooth="yes"/>
      <point x="309" y="630"/>
      <point x="323" y="723"/>
      <point x="359" y="780" type="curve" smooth="yes"/>
      <point x="384" y="822"/>
      <point x="422" y="829"/>
      <point x="477" y="829" type="curve" smooth="yes"/>
      <point x="582" y="829"/>
      <point x="685" y="772"/>
      <point x="733" y="704" type="curve"/>
    </contour>
  </outline>
</glyph>
<glyph name="r" format="1">
  <advance width="882"/>
  <unicode hex="0072"/>
  <outline>
    <contour>
      <point x="59" y="855" type="line"/>
      <point x="207" y="773" type="line"/>
      <point x="207" y="141" type="line"/>
      <point x="66" y="82" type="line"/>
      <point x="50" y="0" type="line"/>
      <point x="697" y="0" type="line"/>
      <point x="713" y="74" type="line"/>
      <point x="449" y="131" type="line"/>
      <point x="449" y="713" type="line"/>
      <point x="487" y="747"/>
      <point x="561" y="798"/>
      <point x="612" y="817" type="curve"/>
      <point x="632" y="712" type="line"/>
      <point x="651" y="697"/>
      <point x="689" y="678"/>
      <point x="717" y="678" type="curve" smooth="yes"/>
      <point x="774" y="678"/>
      <point x="870" y="783"/>
      <point x="870" y="843" type="curve" smooth="yes"/>
      <point x="870" y="880"/>
      <point x="837" y="914"/>
      <point x="800" y="937" type="curve" smooth="yes"/>
      <point x="764" y="959"/>
      <point x="721" y="972"/>
      <point x="688" y="972" type="curve" smooth="yes"/>
      <point x="595" y="972"/>
      <point x="521" y="922"/>
      <point x="436" y="776" type="curve"/>
      <point x="381" y="960" type="line"/>
      <point x="68" y="904" type="line"/>
    </contour>
  </outline>
</glyph>
<glyph name="s" format="1">
  <advance width="883"/>
  <unicode hex="0073"/>
  <outline>
    <contour>
      <point x="577" y="721" type="line"/>
      <point x="595" y="704"/>
      <point x="631" y="681"/>
      <point x="659" y="681" type="curve" smooth="yes"/>
      <point x="704" y="681"/>
      <point x="800" y="768"/>
      <point x="800" y="834" type="curve" smooth="yes"/>
      <point x="800" y="877"/>
      <point x="741" y="915"/>
      <point x="710" y="932" type="curve" smooth="yes"/>
      <point x="652" y="962"/>
      <point x="575" y="975"/>
      <point x="493" y="975" type="curve" smooth="yes"/>
      <point x="296" y="975"/>
      <point x="94" y="890"/>
      <point x="94" y="688" type="curve" smooth="yes"/>
      <point x="94" y="564"/>
      <point x="162" y="487"/>
      <point x="248" y="438" type="curve" smooth="yes"/>
      <point x="335" y="389"/>
      <point x="446" y="363"/>
      <point x="518" y="323" type="curve" smooth="yes"/>
      <point x="572" y="293"/>
      <point x="594" y="261"/>
      <point x="594" y="223" type="curve" smooth="yes"/>
      <point x="594" y="197"/>
      <point x="585" y="175"/>
      <point x="562" y="160" type="curve" smooth="yes"/>
      <point x="496" y="114"/>
      <point x="353" y="91"/>
      <point x="262" y="91" type="curve"/>
      <point x="217" y="292" type="line"/>
      <point x="106" y="316" type="line"/>
      <point x="57" y="75" type="line"/>
      <point x="146" y="16"/>
      <point x="243" y="-25"/>
      <point x="406" y="-25" type="curve" smooth="yes"/>
      <point x="613" y="-25"/>
      <point x="816" y="64"/>
      <point x="816" y="291" type="curve" smooth="yes"/>
      <point x="816" y="389"/>
      <point x="765" y="457"/>
      <point x="699" y="497" type="curve" smooth="yes"/>
      <point x="609" y="553"/>
      <point x="481" y="577"/>
      <point x="390" y="622" type="curve" smooth="yes"/>
      <point x="333" y="650"/>
      <point x="295" y="683"/>
      <point x="295" y="730" type="curve" smooth="yes"/>
      <point x="295" y="758"/>
      <point x="305" y="776"/>
      <point x="321" y="791" type="curve"/>
      <point x="375" y="838"/>
      <point x="475" y="876"/>
      <point x="546" y="886" type="curve"/>
    </contour>
  </outline>
</glyph>
<glyph name="t" format="1">
  <advance width="769"/>
  <unicode hex="0074"/>
  <outline>
    <contour>
      <point x="32" y="950" type="line"/>
      <point x="14" y="861" type="line"/>
      <point x="178" y="800" type="line"/>
      <point x="178" y="316" type="line" smooth="yes"/>
      <point x="178" y="74"/>
      <point x="292" y="-25"/>
      <point x="460" y="-25" type="curve" smooth="yes"/>
      <point x="577" y="-25"/>
      <point x="707" y="53"/>
      <point x="773" y="112" type="curve"/>
      <point x="756" y="153" type="line"/>
      <point x="742" y="151"/>
      <point x="607" y="121"/>
      <point x="546" y="121" type="curve" smooth="yes"/>
      <point x="526" y="121"/>
      <point x="510" y="125"/>
      <point x="499" y="132" type="curve" smooth="yes"/>
      <point x="446" y="167"/>
      <point x="420" y="268"/>
      <point x="420" y="367" type="curve" smooth="yes"/>
      <point x="420" y="800" type="line"/>
      <point x="718" y="863" type="line"/>
      <point x="734" y="950" type="line"/>
      <point x="420" y="950" type="line"/>
      <point x="420" y="1249" type="line"/>
      <point x="210" y="1163" type="line"/>
      <point x="178" y="950" type="line"/>
    </contour>
  </outline>
</glyph>
<glyph name="v" format="1">
  <advance width="1077"/>
  <unicode hex="0076"/>
  <outline>
    <contour>
      <point x="1093" y="950" type="line"/>
      <point x="708" y="950" type="line"/>
      <point x="694" y="880" type="line"/>
      <point x="822" y="824" type="line"/>
      <point x="607" y="209" type="line"/>
      <point x="372" y="826" type="line"/>
      <point x="481" y="878" type="line"/>
      <point x="496" y="950" type="line"/>
      <point x="-16" y="950" type="line"/>
      <point x="-28" y="881" type="line"/>
      <point x="115" y="822" type="line"/>
      <point x="452" y="-22" type="line"/>
      <point x="639" y="0" type="line"/>
      <point x="966" y="820" type="line"/>
      <point x="1081" y="883" type="line"/>
    </contour>
  </outline>
</glyph>
<glyph name="w" format="1">
  <advance width="1562"/>
  <unicode hex="0077"/>
  <outline>
    <contour>
      <point x="1566" y="950" type="line"/>
      <point x="1154" y="950" type="line"/>
      <point x="1142" y="878" type="line"/>
      <point x="1304" y="825" type="line"/>
      <point x="1152" y="203" type="line"/>
      <point x="871" y="950" type="line"/>
      <point x="767" y="950" type="line"/>
      <point x="540" y="203" type="line"/>
      <point x="375" y="824" type="line"/>
      <point x="487" y="878" type="line"/>
      <point x="501" y="950" type="line"/>
      <point x="-4" y="950" type="line"/>
      <point x="-17" y="880" type="line"/>
      <point x="127" y="821" type="line"/>
      <point x="385" y="-25" type="line"/>
      <point x="581" y="0" type="line"/>
      <point x="771" y="578" type="line"/>
      <point x="991" y="-25" type="line"/>
      <point x="1193" y="0" type="line"/>
      <point x="1436" y="821" type="line"/>
      <point x="1553" y="884" type="line"/>
    </contour>
  </outline>
</glyph>
<glyph name="x" format="1">
  <advance width="1180"/>
  <unicode hex="0078"/>
  <outline>
    <contour>
      <point x="1158" y="73" type="line"/>
      <point x="1012" y="118" type="line"/>
      <point x="717" y="483" type="line"/>
      <point x="1005" y="828" type="line"/>
      <point x="1125" y="868" type="line"/>
      <point x="1141" y="950" type="line"/>
      <point x="732" y="950" type="line"/>
      <point x="718" y="879" type="line"/>
      <point x="836" y="833" type="line"/>
      <point x="646" y="580" type="line"/>
      <point x="464" y="834" type="line"/>
      <point x="561" y="875" type="line"/>
      <point x="576" y="950" type="line"/>
      <point x="46" y="950" type="line"/>
      <point x="31" y="876" type="line"/>
      <point x="169" y="834" type="line"/>
      <point x="459" y="461" type="line"/>
      <point x="177" y="126" type="line"/>
      <point x="44" y="76" type="line"/>
      <point x="29" y="0" type="line"/>
      <point x="445" y="0" type="line"/>
      <point x="460" y="71" type="line"/>
      <point x="344" y="115" type="line"/>
      <point x="533" y="365" type="line"/>
      <point x="721" y="117" type="line"/>
      <point x="618" y="77" type="line"/>
      <point x="603" y="0" type="line"/>
      <point x="1145" y="0" type="line"/>
    </contour>
  </outline>
</glyph>
<glyph name="y" format="1">
  <advance width="1097"/>
  <unicode hex="0079"/>
  <outline>
    <contour>
      <point x="1104" y="950" type="line"/>
      <point x="698" y="950" type="line"/>
      <point x="686" y="881" type="line"/>
      <point x="813" y="824" type="line"/>
      <point x="608" y="206" type="line"/>
      <point x="369" y="826" type="line"/>
      <point x="485" y="878" type="line"/>
      <point x="500" y="950" type="line"/>
      <point x="-21" y="950" type="line"/>
      <point x="-34" y="879" type="line"/>
      <point x="108" y="821" type="line"/>
      <point x="462" y="-28" type="line"/>
      <point x="529" y="-20" type="line"/>
      <point x="451" y="-199"/>
      <point x="330" y="-395"/>
      <point x="285" y="-419" type="curve"/>
      <point x="250" y="-247" type="line"/>
      <point x="228" y="-226"/>
      <point x="185" y="-204"/>
      <point x="159" y="-204" type="curve" smooth="yes"/>
      <point x="105" y="-204"/>
      <point x="6" y="-308"/>
      <point x="6" y="-363" type="curve" smooth="yes"/>
      <point x="6" y="-449"/>
      <point x="148" y="-500"/>
      <point x="253" y="-500" type="curve" smooth="yes"/>
      <point x="289" y="-500"/>
      <point x="319" y="-495"/>
      <point x="347" y="-484" type="curve" smooth="yes"/>
      <point x="490" y="-428"/>
      <point x="589" y="-218"/>
      <point x="731" y="162" type="curve" smooth="yes"/>
      <point x="977" y="823" type="line"/>
      <point x="1091" y="879" type="line"/>
    </contour>
  </outline>
</glyph>
<glyph name="z" format="1">
  <advance width="965"/>
  <unicode hex="007A"/>
  <outline>
    <contour>
      <point x="765" y="299" type="line"/>
      <point x="696" y="124" type="line"/>
      <point x="333" y="95" type="line"/>
      <point x="893" y="828" type="line"/>
      <point x="848" y="950" type="line"/>
      <point x="99" y="950" type="line"/>
      <point x="99" y="664" type="line"/>
      <point x="209" y="671" type="line"/>
      <point x="279" y="833" type="line"/>
      <point x="641" y="856" type="line"/>
      <point x="51" y="100" type="line"/>
      <point x="98" y="0" type="line"/>
      <point x="876" y="0" type="line"/>
      <point x="874" y="306" type="line"/>
    </contour>
  </outline>
</glyph>
<glyph name="braceleft" format="1">
  <advance width="658"/>
  <unicode hex="007B"/>
  <outline>
    <contour>
      <point x="242" y="574"/>
      <point x="408" y="613"/>
      <point x="408" y="790" type="curve" smooth="yes"/>
      <point x="408" y="1309" type="line"/>
      <point x="622" y="1411" type="line"/>
      <point x="635" y="1482" type="line"/>
      <point x="236" y="1482"/>
      <point x="211" y="1429"/>
      <point x="211" y="1281" type="curve" smooth="yes"/>
      <point x="211" y="760" type="line" smooth="yes"/>
      <point x="211" y="694"/>
      <point x="116" y="630"/>
      <point x="74" y="605" type="curve" smooth="yes"/>
      <point x="67" y="601"/>
      <point x="53" y="588"/>
      <point x="53" y="572" type="curve" smooth="yes"/>
      <point x="53" y="556"/>
      <point x="65" y="545"/>
      <point x="74" y="540" type="curve" smooth="yes"/>
      <point x="117" y="517"/>
      <point x="211" y="460"/>
      <point x="211" y="393" type="curve" smooth="yes"/>
      <point x="211" y="-130" type="line" smooth="yes"/>
      <point x="211" y="-278"/>
      <point x="237" y="-331"/>
      <point x="619" y="-331" type="curve"/>
      <point x="634" y="-260" type="line"/>
      <point x="408" y="-161" type="line"/>
      <point x="408" y="353" type="line" smooth="yes"/>
      <point x="408" y="532"/>
      <point x="242" y="570"/>
      <point x="233" y="572" type="curve"/>
    </contour>
  </outline>
</glyph>
<glyph name="bar" format="1">
  <advance width="528"/>
  <unicode hex="007C"/>
  <outline>
    <contour>
      <point x="172" y="-500" type="line"/>
      <point x="355" y="-446" type="line"/>
      <point x="355" y="1472" type="line"/>
      <point x="172" y="1417" type="line"/>
    </contour>
  </outline>
</glyph>
<glyph name="braceright" format="1">
  <advance width="658"/>
  <unicode hex="007D"/>
  <outline>
    <contour>
      <point x="415" y="576"/>
      <point x="249" y="537"/>
      <point x="249" y="360" type="curve" smooth="yes"/>
      <point x="249" y="-159" type="line"/>
      <point x="36" y="-260" type="line"/>
      <point x="23" y="-331" type="line"/>
      <point x="422" y="-331"/>
      <point x="447" y="-278"/>
      <point x="447" y="-130" type="curve" smooth="yes"/>
      <point x="447" y="390" type="line" smooth="yes"/>
      <point x="447" y="457"/>
      <point x="542" y="521"/>
      <point x="584" y="545" type="curve" smooth="yes"/>
      <point x="591" y="549"/>
      <point x="605" y="562"/>
      <point x="605" y="578" type="curve" smooth="yes"/>
      <point x="605" y="594"/>
      <point x="593" y="605"/>
      <point x="584" y="610" type="curve" smooth="yes"/>
      <point x="541" y="633"/>
      <point x="447" y="690"/>
      <point x="447" y="757" type="curve" smooth="yes"/>
      <point x="447" y="1281" type="line" smooth="yes"/>
      <point x="447" y="1429"/>
      <point x="421" y="1482"/>
      <point x="39" y="1482" type="curve"/>
      <point x="23" y="1411" type="line"/>
      <point x="249" y="1311" type="line"/>
      <point x="249" y="797" type="line" smooth="yes"/>
      <point x="249" y="618"/>
      <point x="415" y="580"/>
      <point x="424" y="578" type="curve"/>
    </contour>
  </outline>
</glyph>
<glyph name="asciitilde" format="1">
  <advance width="923"/>
  <unicode hex="007E"/>
  <outline>
    <contour>
      <point x="132" y="448" type="line"/>
      <point x="194" y="507"/>
      <point x="290" y="549"/>
      <point x="330" y="549" type="curve" smooth="yes"/>
      <point x="383" y="549"/>
      <point x="465" y="422"/>
      <point x="582" y="422" type="curve" smooth="yes"/>
      <point x="672" y="422"/>
      <point x="746" y="498"/>
      <point x="813" y="567" type="curve"/>
      <point x="791" y="699" type="line"/>
      <point x="725" y="646"/>
      <point x="632" y="600"/>
      <point x="593" y="600" type="curve" smooth="yes"/>
      <point x="540" y="600"/>
      <point x="458" y="727"/>
      <point x="340" y="727" type="curve" smooth="yes"/>
      <point x="252" y="727"/>
      <point x="179" y="653"/>
      <point x="109" y="581" type="curve"/>
    </contour>
  </outline>
</glyph>
<glyph name="exclamdown" format="1">
  <advance width="534"/>
  <unicode hex="00A1"/>
  <outline>
    <contour>
      <point x="362" y="815"/>
      <point x="395" y="869"/>
      <point x="413" y="921" type="curve"/>
      <point x="427" y="954"/>
      <point x="436" y="988"/>
      <point x="431" y="1005" type="curve"/>
      <point x="421" y="1031"/>
      <point x="362" y="1067"/>
      <point x="309" y="1086" type="curve" smooth="yes"/>
      <point x="277" y="1098"/>
      <point x="248" y="1104"/>
      <point x="232" y="1099" type="curve"/>
      <point x="206" y="1089"/>
      <point x="175" y="1034"/>
      <point x="154" y="983" type="curve" smooth="yes"/>
      <point x="140" y="950"/>
      <point x="132" y="916"/>
      <point x="138" y="899" type="curve" smooth="yes"/>
      <point x="147" y="874"/>
      <point x="206" y="838"/>
      <point x="259" y="819" type="curve" smooth="yes"/>
      <point x="291" y="807"/>
      <point x="321" y="800"/>
      <point x="337" y="805" type="curve"/>
    </contour>
    <contour>
      <point x="182" y="661" type="line"/>
      <point x="163" y="-300" type="line"/>
      <point x="414" y="-300" type="line"/>
      <point x="414" y="-21"/>
      <point x="415" y="365"/>
      <point x="397" y="609" type="curve"/>
    </contour>
  </outline>
</glyph>
<glyph name="cent" format="1">
  <advance width="1005"/>
  <unicode hex="00A2"/>
  <outline>
    <contour>
      <point x="888" y="184" type="line"/>
      <point x="849" y="164"/>
      <point x="710" y="125"/>
      <point x="626" y="125" type="curve" smooth="yes"/>
      <point x="612" y="125"/>
      <point x="598" y="126"/>
      <point x="584" y="128" type="curve"/>
      <point x="614" y="548" type="line"/>
      <point x="644" y="891" type="line"/>
      <point x="648" y="891" type="line"/>
      <point x="683" y="737" type="line"/>
      <point x="703" y="717"/>
      <point x="731" y="697"/>
      <point x="756" y="697" type="curve" smooth="yes"/>
      <point x="805" y="697"/>
      <point x="898" y="786"/>
      <point x="898" y="846" type="curve" smooth="yes"/>
      <point x="898" y="879"/>
      <point x="860" y="916"/>
      <point x="819" y="936" type="curve"/>
      <point x="772" y="961"/>
      <point x="718" y="972"/>
      <point x="652" y="975" type="curve"/>
      <point x="667" y="1147" type="line"/>
      <point x="527" y="1117" type="line"/>
      <point x="516" y="966" type="line"/>
      <point x="265" y="926"/>
      <point x="77" y="741"/>
      <point x="77" y="450" type="curve" smooth="yes"/>
      <point x="77" y="207"/>
      <point x="215" y="31"/>
      <point x="440" y="-13" type="curve"/>
      <point x="425" y="-192" type="line"/>
      <point x="564" y="-159" type="line"/>
      <point x="574" y="-24" type="line"/>
      <point x="718" y="-17"/>
      <point x="844" y="61"/>
      <point x="917" y="150" type="curve"/>
    </contour>
    <contour>
      <point x="451" y="188" type="line"/>
      <point x="355" y="263"/>
      <point x="311" y="400"/>
      <point x="311" y="523" type="curve" smooth="yes"/>
      <point x="311" y="612"/>
      <point x="331" y="722"/>
      <point x="400" y="797" type="curve" smooth="yes"/>
      <point x="433" y="833"/>
      <point x="471" y="854"/>
      <point x="509" y="867" type="curve"/>
      <point x="483" y="499" type="line"/>
      <point x="456" y="183" type="line"/>
    </contour>
  </outline>
</glyph>
<glyph name="sterling" format="1">
  <advance width="1332"/>
  <unicode hex="00A3"/>
  <outline>
    <contour>
      <point x="1042" y="654" type="line"/>
      <point x="1052" y="739" type="line"/>
      <point x="600" y="739" type="line"/>
      <point x="629" y="931" type="line" smooth="yes"/>
      <point x="645" y="1043"/>
      <point x="674" y="1151"/>
      <point x="689" y="1167" type="curve"/>
      <point x="722" y="1214"/>
      <point x="801" y="1243"/>
      <point x="929" y="1243" type="curve" smooth="yes"/>
      <point x="953" y="1243"/>
      <point x="979" y="1240"/>
      <point x="1003" y="1232" type="curve"/>
      <point x="1107" y="1007" type="line"/>
      <point x="1220" y="1032" type="line"/>
      <point x="1189" y="1343" type="line"/>
      <point x="1074" y="1336" type="line"/>
      <point x="1052" y="1342"/>
      <point x="962" y="1365"/>
      <point x="881" y="1365" type="curve" smooth="yes"/>
      <point x="572" y="1365"/>
      <point x="399" y="1216"/>
      <point x="366" y="988" type="curve" smooth="yes"/>
      <point x="331" y="739" type="line"/>
      <point x="116" y="739" type="line"/>
      <point x="94" y="631" type="line"/>
      <point x="310" y="590" type="line"/>
      <point x="248" y="151" type="line"/>
      <point x="71" y="86" type="line"/>
      <point x="55" y="0" type="line"/>
      <point x="1154" y="0" type="line"/>
      <point x="1227" y="322" type="line"/>
      <point x="1130" y="340" type="line"/>
      <point x="1006" y="154" type="line"/>
      <point x="510" y="100" type="line"/>
      <point x="578" y="577" type="line"/>
    </contour>
  </outline>
</glyph>
<glyph name="currency" format="1">
  <advance width="1264"/>
  <unicode hex="00A4"/>
  <outline>
    <contour>
      <point x="105" y="281" type="line"/>
      <point x="227" y="158" type="line"/>
      <point x="346" y="281" type="line"/>
      <point x="423" y="218"/>
      <point x="525" y="182"/>
      <point x="632" y="182" type="curve" smooth="yes"/>
      <point x="740" y="182"/>
      <point x="837" y="219"/>
      <point x="915" y="282" type="curve"/>
      <point x="1028" y="155" type="line"/>
      <point x="1159" y="285" type="line"/>
      <point x="1024" y="414" type="line"/>
      <point x="1065" y="486"/>
      <point x="1088" y="569"/>
      <point x="1088" y="660" type="curve" smooth="yes"/>
      <point x="1088" y="750"/>
      <point x="1063" y="828"/>
      <point x="1022" y="894" type="curve"/>
      <point x="1156" y="1019" type="line"/>
      <point x="1033" y="1142" type="line"/>
      <point x="911" y="1013" type="line"/>
      <point x="837" y="1066"/>
      <point x="746" y="1096"/>
      <point x="653" y="1096" type="curve" smooth="yes"/>
      <point x="553" y="1096"/>
      <point x="463" y="1067"/>
      <point x="391" y="1016" type="curve"/>
      <point x="271" y="1143" type="line"/>
      <point x="143" y="1017" type="line"/>
      <point x="272" y="892" type="line"/>
      <point x="220" y="813"/>
      <point x="190" y="718"/>
      <point x="190" y="616" type="curve" smooth="yes"/>
      <point x="190" y="537"/>
      <point x="209" y="467"/>
      <point x="242" y="406" type="curve"/>
    </contour>
    <contour>
      <point x="510" y="387"/>
      <point x="405" y="524"/>
      <point x="405" y="670" type="curve" smooth="yes"/>
      <point x="405" y="786"/>
      <point x="492" y="893"/>
      <point x="610" y="893" type="curve" smooth="yes"/>
      <point x="764" y="893"/>
      <point x="871" y="764"/>
      <point x="871" y="607" type="curve" smooth="yes"/>
      <point x="871" y="487"/>
      <point x="784" y="387"/>
      <point x="668" y="387" type="curve" smooth="yes"/>
    </contour>
  </outline>
</glyph>
<glyph name="yen" format="1">
  <advance width="1400"/>
  <unicode hex="00A5"/>
  <outline>
    <contour>
      <point x="1328" y="1310" type="line"/>
      <point x="849" y="1310" type="line"/>
      <point x="832" y="1228" type="line"/>
      <point x="1014" y="1163" type="line"/>
      <point x="757" y="636" type="line"/>
      <point x="464" y="1165" type="line"/>
      <point x="617" y="1224" type="line"/>
      <point x="632" y="1310" type="line"/>
      <point x="86" y="1310" type="line"/>
      <point x="68" y="1216" type="line"/>
      <point x="204" y="1167" type="line"/>
      <point x="517" y="632" type="line"/>
      <point x="304" y="632" type="line"/>
      <point x="279" y="505" type="line"/>
      <point x="579" y="515" type="line"/>
      <point x="579" y="408" type="line"/>
      <point x="305" y="408" type="line"/>
      <point x="279" y="282" type="line"/>
      <point x="579" y="291" type="line"/>
      <point x="579" y="147" type="line"/>
      <point x="406" y="84" type="line"/>
      <point x="389" y="0" type="line"/>
      <point x="1003" y="0" type="line"/>
      <point x="1021" y="83" type="line"/>
      <point x="820" y="147" type="line"/>
      <point x="820" y="299" type="line"/>
      <point x="1118" y="308" type="line"/>
      <point x="1133" y="408" type="line"/>
      <point x="820" y="408" type="line"/>
      <point x="820" y="522" type="line"/>
      <point x="1117" y="532" type="line"/>
      <point x="1132" y="632" type="line"/>
      <point x="877" y="632" type="line"/>
      <point x="1177" y="1168" type="line"/>
      <point x="1304" y="1214" type="line"/>
    </contour>
  </outline>
</glyph>
<glyph name="brokenbar" format="1">
  <advance width="528"/>
  <unicode hex="00A6"/>
  <outline>
    <contour>
      <point x="172" y="650" type="line"/>
      <point x="355" y="704" type="line"/>
      <point x="355" y="1472" type="line"/>
      <point x="172" y="1417" type="line"/>
    </contour>
    <contour>
      <point x="172" y="-500" type="line"/>
      <point x="355" y="-446" type="line"/>
      <point x="355" y="322" type="line"/>
      <point x="172" y="267" type="line"/>
    </contour>
  </outline>
</glyph>
<glyph name="section" format="1">
  <advance width="1017"/>
  <unicode hex="00A7"/>
  <outline>
    <contour>
      <point x="618" y="493" type="line"/>
      <point x="748" y="494"/>
      <point x="920" y="605"/>
      <point x="920" y="773" type="curve" smooth="yes"/>
      <point x="920" y="932"/>
      <point x="836" y="1018"/>
      <point x="603" y="1116" type="curve" smooth="yes"/>
      <point x="463" y="1175"/>
      <point x="336" y="1221"/>
      <point x="336" y="1301" type="curve" smooth="yes"/>
      <point x="336" y="1327"/>
      <point x="344" y="1356"/>
      <point x="357" y="1371" type="curve" smooth="yes"/>
      <point x="401" y="1420"/>
      <point x="510" y="1450"/>
      <point x="667" y="1450" type="curve"/>
      <point x="696" y="1279" type="line"/>
      <point x="712" y="1262"/>
      <point x="749" y="1238"/>
      <point x="776" y="1238" type="curve" smooth="yes"/>
      <point x="822" y="1238"/>
      <point x="915" y="1329"/>
      <point x="915" y="1399" type="curve" smooth="yes"/>
      <point x="915" y="1487"/>
      <point x="704" y="1577"/>
      <point x="526" y="1577" type="curve" smooth="yes"/>
      <point x="290" y="1577"/>
      <point x="96" y="1446"/>
      <point x="96" y="1249" type="curve" smooth="yes"/>
      <point x="96" y="1093"/>
      <point x="218" y="1007"/>
      <point x="400" y="940" type="curve" smooth="yes"/>
      <point x="581" y="873"/>
      <point x="700" y="823"/>
      <point x="700" y="715" type="curve" smooth="yes"/>
      <point x="700" y="669"/>
      <point x="675" y="628"/>
      <point x="634" y="593" type="curve"/>
    </contour>
    <contour>
      <point x="400" y="900" type="line"/>
      <point x="269" y="899"/>
      <point x="96" y="787"/>
      <point x="96" y="619" type="curve" smooth="yes"/>
      <point x="96" y="461"/>
      <point x="180" y="374"/>
      <point x="413" y="276" type="curve" smooth="yes"/>
      <point x="554" y="217"/>
      <point x="680" y="171"/>
      <point x="680" y="91" type="curve" smooth="yes"/>
      <point x="680" y="65"/>
      <point x="673" y="36"/>
      <point x="660" y="22" type="curve" smooth="yes"/>
      <point x="616" y="-27"/>
      <point x="507" y="-58"/>
      <point x="350" y="-58" type="curve"/>
      <point x="321" y="114" type="line"/>
      <point x="304" y="130"/>
      <point x="268" y="154"/>
      <point x="241" y="154" type="curve" smooth="yes"/>
      <point x="195" y="154"/>
      <point x="101" y="64"/>
      <point x="101" y="-7" type="curve" smooth="yes"/>
      <point x="101" y="-95"/>
      <point x="312" y="-185"/>
      <point x="490" y="-185" type="curve" smooth="yes"/>
      <point x="727" y="-185"/>
      <point x="920" y="-54"/>
      <point x="920" y="143" type="curve" smooth="yes"/>
      <point x="920" y="299"/>
      <point x="799" y="385"/>
      <point x="616" y="453" type="curve" smooth="yes"/>
      <point x="436" y="520"/>
      <point x="317" y="569"/>
      <point x="317" y="677" type="curve" smooth="yes"/>
      <point x="317" y="723"/>
      <point x="342" y="764"/>
      <point x="383" y="799" type="curve"/>
    </contour>
  </outline>
</glyph>
<glyph name="dieresis" format="1">
  <advance width="1024"/>
  <unicode hex="00A8"/>
  <outline>
    <contour>
      <point x="184" y="1189"/>
      <point x="320" y="1124"/>
      <point x="358" y="1137" type="curve" smooth="yes"/>
      <point x="400" y="1153"/>
      <point x="457" y="1288"/>
      <point x="443" y="1327" type="curve"/>
      <point x="426" y="1367"/>
      <point x="300" y="1433"/>
      <point x="263" y="1419" type="curve" smooth="yes"/>
      <point x="220" y="1403"/>
      <point x="156" y="1269"/>
      <point x="171" y="1229" type="curve"/>
    </contour>
    <contour>
      <point x="596" y="1189"/>
      <point x="720" y="1124"/>
      <point x="760" y="1137" type="curve" smooth="yes"/>
      <point x="804" y="1153"/>
      <point x="867" y="1289"/>
      <point x="853" y="1327" type="curve"/>
      <point x="836" y="1368"/>
      <point x="702" y="1433"/>
      <point x="664" y="1419" type="curve" smooth="yes"/>
      <point x="623" y="1403"/>
      <point x="566" y="1270"/>
      <point x="580" y="1229" type="curve"/>
    </contour>
  </outline>
</glyph>
<glyph name="copyright" format="1">
  <advance width="1368"/>
  <unicode hex="00A9"/>
  <outline>
    <contour>
      <point x="96" y="187"/>
      <point x="312" y="-35"/>
      <point x="656" y="-35" type="curve" smooth="yes"/>
      <point x="1041" y="-35"/>
      <point x="1271" y="226"/>
      <point x="1271" y="594" type="curve" smooth="yes"/>
      <point x="1271" y="992"/>
      <point x="1014" y="1180"/>
      <point x="718" y="1180" type="curve" smooth="yes"/>
      <point x="326" y="1180"/>
      <point x="96" y="917"/>
      <point x="96" y="547" type="curve" smooth="yes"/>
    </contour>
    <contour>
      <point x="263" y="848"/>
      <point x="440" y="1038"/>
      <point x="668" y="1038" type="curve" smooth="yes"/>
      <point x="951" y="1038"/>
      <point x="1106" y="839"/>
      <point x="1106" y="540" type="curve" smooth="yes"/>
      <point x="1106" y="298"/>
      <point x="925" y="107"/>
      <point x="707" y="107" type="curve" smooth="yes"/>
      <point x="419" y="107"/>
      <point x="262" y="306"/>
      <point x="261" y="605" type="curve"/>
    </contour>
    <contour>
      <point x="380" y="367"/>
      <point x="501" y="232"/>
      <point x="682" y="232" type="curve" smooth="yes"/>
      <point x="790" y="232"/>
      <point x="879" y="287"/>
      <point x="947" y="360" type="curve"/>
      <point x="916" y="419" type="line"/>
      <point x="890" y="408"/>
      <point x="754" y="362"/>
      <point x="715" y="362" type="curve" smooth="yes"/>
      <point x="677" y="362"/>
      <point x="629" y="380"/>
      <point x="593" y="430" type="curve" smooth="yes"/>
      <point x="560" y="473"/>
      <point x="544" y="536"/>
      <point x="544" y="592" type="curve" smooth="yes"/>
      <point x="544" y="647"/>
      <point x="549" y="723"/>
      <point x="585" y="757" type="curve"/>
      <point x="605" y="778"/>
      <point x="643" y="788"/>
      <point x="683" y="788" type="curve" smooth="yes"/>
      <point x="717" y="788"/>
      <point x="757" y="783"/>
      <point x="789" y="771" type="curve"/>
      <point x="834" y="671" type="line"/>
      <point x="910" y="692" type="line"/>
      <point x="887" y="908" type="line"/>
      <point x="821" y="897" type="line"/>
      <point x="802" y="901"/>
      <point x="752" y="911"/>
      <point x="709" y="911" type="curve" smooth="yes"/>
      <point x="496" y="911"/>
      <point x="380" y="758"/>
      <point x="380" y="555" type="curve" smooth="yes"/>
    </contour>
  </outline>
</glyph>
<glyph name="ordfeminine" format="1">
  <advance width="1037"/>
  <unicode hex="00AA"/>
  <outline>
    <contour>
      <point x="476" y="624"/>
      <point x="595" y="699"/>
      <point x="625" y="749" type="curve"/>
      <point x="656" y="725"/>
      <point x="689" y="662"/>
      <point x="706" y="624" type="curve"/>
      <point x="775" y="624"/>
      <point x="874" y="654"/>
      <point x="916" y="674" type="curve"/>
      <point x="928" y="721" type="line"/>
      <point x="859" y="734"/>
      <point x="817" y="759"/>
      <point x="796" y="795" type="curve"/>
      <point x="796" y="1190" type="line" smooth="yes"/>
      <point x="796" y="1321"/>
      <point x="732" y="1420"/>
      <point x="555" y="1420" type="curve" smooth="yes"/>
      <point x="470" y="1420"/>
      <point x="355" y="1400"/>
      <point x="259" y="1359" type="curve"/>
      <point x="215" y="1342"/>
      <point x="166" y="1312"/>
      <point x="166" y="1285" type="curve" smooth="yes"/>
      <point x="166" y="1239"/>
      <point x="250" y="1161"/>
      <point x="291" y="1161" type="curve" smooth="yes"/>
      <point x="316" y="1161"/>
      <point x="352" y="1187"/>
      <point x="375" y="1204" type="curve"/>
      <point x="396" y="1327" type="line"/>
      <point x="406" y="1330"/>
      <point x="421" y="1332"/>
      <point x="434" y="1332" type="curve" smooth="yes"/>
      <point x="470" y="1332"/>
      <point x="511" y="1329"/>
      <point x="534" y="1312" type="curve"/>
      <point x="589" y="1279"/>
      <point x="599" y="1191"/>
      <point x="599" y="1068" type="curve"/>
      <point x="593" y="1070"/>
      <point x="559" y="1073"/>
      <point x="544" y="1073" type="curve" smooth="yes"/>
      <point x="489" y="1073"/>
      <point x="348" y="1070"/>
      <point x="265" y="1037" type="curve" smooth="yes"/>
      <point x="179" y="1000"/>
      <point x="138" y="952"/>
      <point x="138" y="845" type="curve" smooth="yes"/>
      <point x="138" y="750"/>
      <point x="206" y="624"/>
      <point x="369" y="624" type="curve" smooth="yes"/>
    </contour>
    <contour>
      <point x="377" y="781"/>
      <point x="349" y="844"/>
      <point x="349" y="892" type="curve" smooth="yes"/>
      <point x="349" y="912"/>
      <point x="351" y="929"/>
      <point x="362" y="942" type="curve"/>
      <point x="378" y="959"/>
      <point x="448" y="987"/>
      <point x="599" y="999" type="curve"/>
      <point x="599" y="796" type="line"/>
      <point x="564" y="779"/>
      <point x="483" y="759"/>
      <point x="430" y="759" type="curve" smooth="yes"/>
      <point x="424" y="759"/>
      <point x="414" y="761"/>
      <point x="408" y="763" type="curve"/>
    </contour>
    <contour>
      <point x="168" y="516" type="line"/>
      <point x="140" y="373" type="line"/>
      <point x="318" y="373"/>
      <point x="653" y="379"/>
      <point x="905" y="394" type="curve"/>
      <point x="935" y="516" type="line"/>
    </contour>
  </outline>
</glyph>
<glyph name="guillemotleft" format="1">
  <advance width="1009"/>
  <unicode hex="00AB"/>
  <outline>
    <contour>
      <point x="452" y="635"/>
      <point x="554" y="772"/>
      <point x="594" y="861" type="curve"/>
      <point x="497" y="937" type="line"/>
      <point x="52" y="461" type="line"/>
      <point x="498" y="-14" type="line"/>
      <point x="595" y="62" type="line"/>
      <point x="551" y="152"/>
      <point x="450" y="292"/>
      <point x="313" y="461" type="curve"/>
    </contour>
    <contour>
      <point x="811" y="567"/>
      <point x="885" y="675"/>
      <point x="918" y="747" type="curve"/>
      <point x="822" y="823" type="line"/>
      <point x="491" y="461" type="line"/>
      <point x="823" y="100" type="line"/>
      <point x="920" y="176" type="line"/>
      <point x="883" y="247"/>
      <point x="822" y="347"/>
      <point x="737" y="461" type="curve"/>
    </contour>
  </outline>
</glyph>
<glyph name="logicalnot" format="1">
  <advance width="1024"/>
  <unicode hex="00AC"/>
  <outline>
    <contour>
      <point x="140" y="654" type="line"/>
      <point x="114" y="481" type="line"/>
      <point x="708" y="488" type="line"/>
      <point x="720" y="177" type="line"/>
      <point x="872" y="155" type="line"/>
      <point x="872" y="654" type="line"/>
    </contour>
  </outline>
</glyph>
<glyph name="softhyphen" format="1">
  <advance width="881"/>
  <unicode hex="00AD"/>
  <outline>
    <contour>
      <point x="186" y="622" type="line"/>
      <point x="147" y="436" type="line"/>
      <point x="279" y="436"/>
      <point x="584" y="452"/>
      <point x="716" y="470" type="curve"/>
      <point x="745" y="622" type="line"/>
    </contour>
  </outline>
</glyph>
<glyph name="registered" format="1">
  <advance width="1196"/>
  <unicode hex="00AE"/>
  <outline>
    <contour>
      <point x="902" y="541"/>
      <point x="1112" y="768"/>
      <point x="1112" y="1075" type="curve" smooth="yes"/>
      <point x="1112" y="1390"/>
      <point x="876" y="1594"/>
      <point x="618" y="1594" type="curve" smooth="yes"/>
      <point x="292" y="1594"/>
      <point x="85" y="1362"/>
      <point x="85" y="1055" type="curve" smooth="yes"/>
      <point x="85" y="756"/>
      <point x="306" y="541"/>
      <point x="583" y="541" type="curve" smooth="yes"/>
    </contour>
    <contour>
      <point x="221" y="1293"/>
      <point x="366" y="1478"/>
      <point x="564" y="1478" type="curve" smooth="yes"/>
      <point x="808" y="1478"/>
      <point x="972" y="1302"/>
      <point x="972" y="1038" type="curve" smooth="yes"/>
      <point x="972" y="833"/>
      <point x="825" y="658"/>
      <point x="635" y="658" type="curve" smooth="yes"/>
      <point x="380" y="658"/>
      <point x="221" y="848"/>
      <point x="221" y="1098" type="curve" smooth="yes"/>
    </contour>
    <contour>
      <point x="371" y="873" type="line"/>
      <point x="358" y="808" type="line"/>
      <point x="602" y="808" type="line"/>
      <point x="620" y="865" type="line"/>
      <point x="548" y="890" type="line"/>
      <point x="548" y="1288" type="line"/>
      <point x="606" y="1280"/>
      <point x="690" y="1263"/>
      <point x="690" y="1191" type="curve" smooth="yes"/>
      <point x="690" y="1138"/>
      <point x="656" y="1102"/>
      <point x="584" y="1076" type="curve"/>
      <point x="688" y="849" type="line"/>
      <point x="680" y="808" type="line"/>
      <point x="863" y="808" type="line"/>
      <point x="876" y="854" type="line"/>
      <point x="804" y="893" type="line"/>
      <point x="715" y="1062" type="line"/>
      <point x="798" y="1096"/>
      <point x="825" y="1138"/>
      <point x="825" y="1207" type="curve" smooth="yes"/>
      <point x="825" y="1264"/>
      <point x="787" y="1309"/>
      <point x="738" y="1329" type="curve" smooth="yes"/>
      <point x="678" y="1355"/>
      <point x="594" y="1359"/>
      <point x="527" y="1359" type="curve" smooth="yes"/>
      <point x="369" y="1359" type="line"/>
      <point x="353" y="1295" type="line"/>
      <point x="425" y="1269" type="line"/>
      <point x="425" y="897" type="line"/>
    </contour>
  </outline>
</glyph>
<glyph name="macron" format="1">
  <advance width="1024"/>
  <unicode hex="00AF"/>
  <outline>
    <contour>
      <point x="262" y="1303" type="line"/>
      <point x="229" y="1138" type="line"/>
      <point x="402" y="1138"/>
      <point x="594" y="1141"/>
      <point x="765" y="1150" type="curve"/>
      <point x="795" y="1303" type="line"/>
    </contour>
  </outline>
</glyph>
<glyph name="degree" format="1">
  <advance width="760"/>
  <unicode hex="00B0"/>
  <outline>
    <contour>
      <point x="551" y="888"/>
      <point x="674" y="1010"/>
      <point x="674" y="1180" type="curve" smooth="yes"/>
      <point x="674" y="1344"/>
      <point x="535" y="1450"/>
      <point x="389" y="1450" type="curve" smooth="yes"/>
      <point x="205" y="1450"/>
      <point x="87" y="1323"/>
      <point x="87" y="1156" type="curve" smooth="yes"/>
      <point x="87" y="992"/>
      <point x="220" y="888"/>
      <point x="377" y="888" type="curve" smooth="yes"/>
    </contour>
    <contour>
      <point x="294" y="1030"/>
      <point x="248" y="1105"/>
      <point x="248" y="1184" type="curve" smooth="yes"/>
      <point x="248" y="1252"/>
      <point x="294" y="1312"/>
      <point x="364" y="1312" type="curve" smooth="yes"/>
      <point x="456" y="1312"/>
      <point x="509" y="1238"/>
      <point x="509" y="1153" type="curve" smooth="yes"/>
      <point x="509" y="1084"/>
      <point x="464" y="1030"/>
      <point x="393" y="1030" type="curve" smooth="yes"/>
    </contour>
  </outline>
</glyph>
<glyph name="plusminus" format="1">
  <advance width="1024"/>
  <unicode hex="00B1"/>
  <outline>
    <contour>
      <point x="418" y="531" type="line"/>
      <point x="418" y="259" type="line"/>
      <point x="589" y="282" type="line"/>
      <point x="589" y="534" type="line"/>
      <point x="870" y="549" type="line"/>
      <point x="891" y="702" type="line"/>
      <point x="589" y="702" type="line"/>
      <point x="589" y="944" type="line"/>
      <point x="418" y="922" type="line"/>
      <point x="418" y="702" type="line"/>
      <point x="152" y="702" type="line"/>
      <point x="125" y="530" type="line"/>
    </contour>
    <contour>
      <point x="155" y="159" type="line"/>
      <point x="129" y="-13" type="line"/>
      <point x="381" y="-12"/>
      <point x="628" y="-6"/>
      <point x="871" y="6" type="curve"/>
      <point x="892" y="159" type="line"/>
    </contour>
  </outline>
</glyph>
<glyph name="twosuperior" format="1">
  <advance width="700"/>
  <unicode hex="00B2"/>
  <outline>
    <contour>
      <point x="461" y="1186"/>
      <point x="605" y="1334"/>
      <point x="605" y="1472" type="curve" smooth="yes"/>
      <point x="605" y="1602"/>
      <point x="507" y="1683"/>
      <point x="333" y="1683" type="curve" smooth="yes"/>
      <point x="244" y="1683"/>
      <point x="153" y="1663"/>
      <point x="67" y="1615" type="curve"/>
      <point x="109" y="1517" type="line"/>
      <point x="179" y="1537"/>
      <point x="233" y="1545"/>
      <point x="279" y="1545" type="curve" smooth="yes"/>
      <point x="368" y="1545"/>
      <point x="400" y="1499"/>
      <point x="400" y="1449" type="curve" smooth="yes"/>
      <point x="400" y="1400"/>
      <point x="370" y="1346"/>
      <point x="308" y="1269" type="curve" smooth="yes"/>
      <point x="270" y="1223"/>
      <point x="71" y="997"/>
      <point x="41" y="966" type="curve"/>
      <point x="68" y="896" type="line"/>
      <point x="660" y="896" type="line"/>
      <point x="627" y="1046" type="line"/>
      <point x="500" y="1039"/>
      <point x="381" y="1028"/>
      <point x="273" y="1010" type="curve"/>
    </contour>
  </outline>
</glyph>
<glyph name="threesuperior" format="1">
  <advance width="652"/>
  <unicode hex="00B3"/>
  <outline>
    <contour>
      <point x="82" y="841" type="line"/>
      <point x="300" y="841"/>
      <point x="584" y="911"/>
      <point x="584" y="1146" type="curve" smooth="yes"/>
      <point x="584" y="1252"/>
      <point x="507" y="1326"/>
      <point x="390" y="1339" type="curve"/>
      <point x="602" y="1596" type="line"/>
      <point x="577" y="1670" type="line"/>
      <point x="39" y="1670" type="line"/>
      <point x="73" y="1538" type="line"/>
      <point x="158" y="1538"/>
      <point x="306" y="1550"/>
      <point x="427" y="1564" type="curve"/>
      <point x="185" y="1342" type="line"/>
      <point x="171" y="1272" type="line"/>
      <point x="277" y="1270"/>
      <point x="382" y="1242"/>
      <point x="382" y="1139" type="curve" smooth="yes"/>
      <point x="382" y="1003"/>
      <point x="222" y="960"/>
      <point x="56" y="924" type="curve"/>
    </contour>
  </outline>
</glyph>
<glyph name="acute" format="1">
  <advance width="1024"/>
  <unicode hex="00B4"/>
  <outline>
    <contour>
      <point x="622" y="1457" type="line"/>
      <point x="331" y="1191" type="line"/>
      <point x="356" y="1054" type="line"/>
      <point x="756" y="1290" type="line"/>
      <point x="724" y="1457" type="line"/>
    </contour>
  </outline>
</glyph>
<glyph name="uni00B5" format="1">
  <advance width="1292"/>
  <unicode hex="00B5"/>
  <outline>
    <contour>
      <point x="1043" y="975" type="line"/>
      <point x="800" y="933" type="line"/>
      <point x="800" y="250" type="line"/>
      <point x="800" y="233" type="line"/>
      <point x="743" y="176"/>
      <point x="667" y="152"/>
      <point x="597" y="152" type="curve" smooth="yes"/>
      <point x="459" y="152"/>
      <point x="406" y="298"/>
      <point x="406" y="428" type="curve" smooth="yes"/>
      <point x="406" y="975" type="line"/>
      <point x="165" y="933" type="line"/>
      <point x="165" y="-500" type="line"/>
      <point x="406" y="-458" type="line"/>
      <point x="385" y="40" type="line"/>
      <point x="431" y="-9"/>
      <point x="491" y="-29"/>
      <point x="552" y="-29" type="curve" smooth="yes"/>
      <point x="649" y="-29"/>
      <point x="753" y="31"/>
      <point x="804" y="117" type="curve"/>
      <point x="813" y="17"/>
      <point x="843" y="-26"/>
      <point x="936" y="-26" type="curve" smooth="yes"/>
      <point x="999" y="-26"/>
      <point x="1099" y="-5"/>
      <point x="1241" y="37" type="curve"/>
      <point x="1250" y="101" type="line"/>
      <point x="1086" y="101"/>
      <point x="1043" y="116"/>
      <point x="1043" y="205" type="curve" smooth="yes"/>
    </contour>
  </outline>
</glyph>
<glyph name="paragraph" format="1">
  <advance width="1485"/>
  <unicode hex="00B6"/>
  <outline>
    <contour>
      <point x="561" y="-35" type="line"/>
      <point x="802" y="21" type="line"/>
      <point x="796" y="1225" type="line"/>
      <point x="981" y="1225" type="line"/>
      <point x="974" y="-35" type="line"/>
      <point x="1216" y="21" type="line"/>
      <point x="1216" y="1235" type="line"/>
      <point x="1395" y="1300" type="line"/>
      <point x="1410" y="1384" type="line"/>
      <point x="652" y="1384" type="line" smooth="yes"/>
      <point x="437" y="1384"/>
      <point x="298" y="1353"/>
      <point x="209" y="1285" type="curve" smooth="yes"/>
      <point x="125" y="1220"/>
      <point x="87" y="1129"/>
      <point x="87" y="997" type="curve" smooth="yes"/>
      <point x="87" y="883"/>
      <point x="124" y="800"/>
      <point x="206" y="729" type="curve" smooth="yes"/>
      <point x="292" y="655"/>
      <point x="407" y="620"/>
      <point x="573" y="616" type="curve"/>
    </contour>
  </outline>
</glyph>
<glyph name="cedilla" format="1">
  <advance width="1024"/>
  <unicode hex="00B8"/>
  <outline>
    <contour>
      <point x="568" y="7" type="line"/>
      <point x="463" y="7" type="line"/>
      <point x="428" y="-22"/>
      <point x="357" y="-124"/>
      <point x="354" y="-173" type="curve"/>
      <point x="469" y="-194"/>
      <point x="536" y="-220"/>
      <point x="536" y="-262" type="curve" smooth="yes"/>
      <point x="536" y="-291"/>
      <point x="515" y="-337"/>
      <point x="315" y="-411" type="curve"/>
      <point x="335" y="-475" type="line"/>
      <point x="472" y="-475"/>
      <point x="705" y="-419"/>
      <point x="705" y="-255" type="curve" smooth="yes"/>
      <point x="705" y="-160"/>
      <point x="645" y="-112"/>
      <point x="526" y="-84" type="curve"/>
    </contour>
  </outline>
</glyph>
<glyph name="onesuperior" format="1">
  <advance width="586"/>
  <unicode hex="00B9"/>
  <outline>
    <contour>
      <point x="213" y="1002" type="line"/>
      <point x="73" y="975" type="line"/>
      <point x="55" y="896" type="line"/>
      <point x="542" y="896" type="line"/>
      <point x="562" y="979" type="line"/>
      <point x="419" y="1004" type="line"/>
      <point x="419" y="1685" type="line"/>
      <point x="62" y="1621" type="line"/>
      <point x="49" y="1548" type="line"/>
      <point x="213" y="1548" type="line"/>
    </contour>
  </outline>
</glyph>
<glyph name="ordmasculine" format="1">
  <advance width="989"/>
  <unicode hex="00BA"/>
  <outline>
    <contour>
      <point x="134" y="737"/>
      <point x="297" y="624"/>
      <point x="501" y="624" type="curve" smooth="yes"/>
      <point x="698" y="624"/>
      <point x="854" y="824"/>
      <point x="854" y="1047" type="curve" smooth="yes"/>
      <point x="854" y="1303"/>
      <point x="691" y="1419"/>
      <point x="496" y="1419" type="curve" smooth="yes"/>
      <point x="281" y="1419"/>
      <point x="134" y="1214"/>
      <point x="134" y="996" type="curve" smooth="yes"/>
    </contour>
    <contour>
      <point x="376" y="753"/>
      <point x="306" y="934"/>
      <point x="306" y="1086" type="curve" smooth="yes"/>
      <point x="306" y="1154"/>
      <point x="325" y="1235"/>
      <point x="355" y="1266" type="curve"/>
      <point x="368" y="1281"/>
      <point x="395" y="1292"/>
      <point x="434" y="1292" type="curve" smooth="yes"/>
      <point x="597" y="1292"/>
      <point x="682" y="1132"/>
      <point x="682" y="958" type="curve" smooth="yes"/>
      <point x="682" y="903"/>
      <point x="667" y="809"/>
      <point x="633" y="779" type="curve"/>
      <point x="614" y="759"/>
      <point x="580" y="753"/>
      <point x="553" y="753" type="curve" smooth="yes"/>
    </contour>
    <contour>
      <point x="168" y="516" type="line"/>
      <point x="140" y="373" type="line"/>
      <point x="318" y="373"/>
      <point x="580" y="379"/>
      <point x="833" y="394" type="curve"/>
      <point x="862" y="516" type="line"/>
    </contour>
  </outline>
</glyph>
<glyph name="guillemotright" format="1">
  <advance width="1009"/>
  <unicode hex="00BB"/>
  <outline>
    <contour>
      <point x="559" y="292"/>
      <point x="458" y="152"/>
      <point x="415" y="62" type="curve"/>
      <point x="511" y="-14" type="line"/>
      <point x="957" y="461" type="line"/>
      <point x="512" y="937" type="line"/>
      <point x="416" y="861" type="line"/>
      <point x="456" y="772"/>
      <point x="557" y="635"/>
      <point x="697" y="461" type="curve"/>
    </contour>
    <contour>
      <point x="188" y="347"/>
      <point x="126" y="247"/>
      <point x="90" y="176" type="curve"/>
      <point x="187" y="100" type="line"/>
      <point x="518" y="461" type="line"/>
      <point x="187" y="823" type="line"/>
      <point x="91" y="747" type="line"/>
      <point x="124" y="675"/>
      <point x="198" y="567"/>
      <point x="273" y="461" type="curve"/>
    </contour>
  </outline>
</glyph>
<glyph name="onequarter" format="1">
  <advance width="1651"/>
  <unicode hex="00BC"/>
  <outline>
    <contour>
      <point x="213" y="717" type="line"/>
      <point x="73" y="690" type="line"/>
      <point x="55" y="611" type="line"/>
      <point x="542" y="611" type="line"/>
      <point x="562" y="694" type="line"/>
      <point x="419" y="719" type="line"/>
      <point x="419" y="1400" type="line"/>
      <point x="62" y="1336" type="line"/>
      <point x="49" y="1263" type="line"/>
      <point x="213" y="1263" type="line"/>
    </contour>
    <contour>
      <point x="355" y="242" type="line"/>
      <point x="511" y="197" type="line"/>
      <point x="1233" y="1146" type="line"/>
      <point x="1070" y="1196" type="line"/>
    </contour>
    <contour>
      <point x="886" y="272" type="line"/>
      <point x="917" y="210" type="line"/>
      <point x="1265" y="210" type="line"/>
      <point x="1265" y="-63" type="line"/>
      <point x="1455" y="-29" type="line"/>
      <point x="1455" y="210" type="line"/>
      <point x="1537" y="210" type="line"/>
      <point x="1553" y="334" type="line"/>
      <point x="1452" y="331" type="line"/>
      <point x="1452" y="460" type="line"/>
      <point x="1269" y="424" type="line"/>
      <point x="1269" y="320" type="line"/>
      <point x="1091" y="313" type="line"/>
      <point x="1421" y="770" type="line"/>
      <point x="1221" y="803" type="line"/>
    </contour>
  </outline>
</glyph>
<glyph name="onehalf" format="1">
  <advance width="1640"/>
  <unicode hex="00BD"/>
  <outline>
    <contour>
      <point x="213" y="717" type="line"/>
      <point x="73" y="690" type="line"/>
      <point x="55" y="611" type="line"/>
      <point x="542" y="611" type="line"/>
      <point x="562" y="694" type="line"/>
      <point x="419" y="719" type="line"/>
      <point x="419" y="1400" type="line"/>
      <point x="62" y="1336" type="line"/>
      <point x="49" y="1263" type="line"/>
      <point x="213" y="1263" type="line"/>
    </contour>
    <contour>
      <point x="355" y="242" type="line"/>
      <point x="511" y="197" type="line"/>
      <point x="1233" y="1146" type="line"/>
      <point x="1070" y="1196" type="line"/>
    </contour>
    <contour>
      <point x="1404" y="290"/>
      <point x="1548" y="438"/>
      <point x="1548" y="576" type="curve" smooth="yes"/>
      <point x="1548" y="706"/>
      <point x="1450" y="787"/>
      <point x="1275" y="787" type="curve" smooth="yes"/>
      <point x="1187" y="787"/>
      <point x="1096" y="767"/>
      <point x="1010" y="719" type="curve"/>
      <point x="1052" y="621" type="line"/>
      <point x="1122" y="641"/>
      <point x="1176" y="649"/>
      <point x="1222" y="649" type="curve" smooth="yes"/>
      <point x="1311" y="649"/>
      <point x="1343" y="604"/>
      <point x="1343" y="553" type="curve" smooth="yes"/>
      <point x="1343" y="504"/>
      <point x="1312" y="451"/>
      <point x="1250" y="374" type="curve" smooth="yes"/>
      <point x="1213" y="327"/>
      <point x="1014" y="101"/>
      <point x="984" y="70" type="curve"/>
      <point x="1011" y="0" type="line"/>
      <point x="1603" y="0" type="line"/>
      <point x="1570" y="150" type="line"/>
      <point x="1443" y="143"/>
      <point x="1324" y="132"/>
      <point x="1216" y="114" type="curve"/>
    </contour>
  </outline>
</glyph>
<glyph name="threequarters" format="1">
  <advance width="1717"/>
  <unicode hex="00BE"/>
  <outline>
    <contour>
      <point x="82" y="556" type="line"/>
      <point x="300" y="555"/>
      <point x="584" y="626"/>
      <point x="584" y="861" type="curve" smooth="yes"/>
      <point x="584" y="966"/>
      <point x="507" y="1041"/>
      <point x="390" y="1054" type="curve"/>
      <point x="602" y="1311" type="line"/>
      <point x="577" y="1385" type="line"/>
      <point x="39" y="1385" type="line"/>
      <point x="73" y="1253" type="line"/>
      <point x="158" y="1253"/>
      <point x="306" y="1265"/>
      <point x="427" y="1279" type="curve"/>
      <point x="185" y="1057" type="line"/>
      <point x="171" y="987" type="line"/>
      <point x="277" y="985"/>
      <point x="382" y="957"/>
      <point x="382" y="853" type="curve" smooth="yes"/>
      <point x="382" y="717"/>
      <point x="222" y="675"/>
      <point x="56" y="639" type="curve"/>
    </contour>
    <contour>
      <point x="342" y="242" type="line"/>
      <point x="499" y="197" type="line"/>
      <point x="1221" y="1146" type="line"/>
      <point x="1057" y="1196" type="line"/>
    </contour>
    <contour>
      <point x="873" y="272" type="line"/>
      <point x="904" y="210" type="line"/>
      <point x="1252" y="210" type="line"/>
      <point x="1252" y="-63" type="line"/>
      <point x="1443" y="-29" type="line"/>
      <point x="1443" y="210" type="line"/>
      <point x="1524" y="210" type="line"/>
      <point x="1541" y="334" type="line"/>
      <point x="1440" y="331" type="line"/>
      <point x="1440" y="460" type="line"/>
      <point x="1257" y="424" type="line"/>
      <point x="1257" y="320" type="line"/>
      <point x="1079" y="313" type="line"/>
      <point x="1409" y="770" type="line"/>
      <point x="1208" y="803" type="line"/>
    </contour>
  </outline>
</glyph>
<glyph name="questiondown" format="1">
  <advance width="931"/>
  <unicode hex="00BF"/>
  <outline>
    <contour>
      <point x="465" y="1101"/>
      <point x="388" y="953"/>
      <point x="405" y="908" type="curve" smooth="yes"/>
      <point x="419" y="869"/>
      <point x="560" y="790"/>
      <point x="610" y="807" type="curve"/>
      <point x="654" y="820"/>
      <point x="729" y="970"/>
      <point x="712" y="1014" type="curve" smooth="yes"/>
      <point x="695" y="1059"/>
      <point x="549" y="1128"/>
      <point x="507" y="1115" type="curve" smooth="yes"/>
    </contour>
    <contour>
      <point x="660" y="619" type="line"/>
      <point x="471" y="665" type="line"/>
      <point x="455" y="608"/>
      <point x="418" y="472"/>
      <point x="409" y="431" type="curve"/>
      <point x="171" y="339"/>
      <point x="60" y="223"/>
      <point x="60" y="35" type="curve" smooth="yes"/>
      <point x="60" y="-211"/>
      <point x="343" y="-325"/>
      <point x="567" y="-325" type="curve" smooth="yes"/>
      <point x="687" y="-325"/>
      <point x="840" y="-280"/>
      <point x="840" y="-194" type="curve" smooth="yes"/>
      <point x="840" y="-134"/>
      <point x="743" y="-40"/>
      <point x="689" y="-40" type="curve" smooth="yes"/>
      <point x="661" y="-40"/>
      <point x="624" y="-64"/>
      <point x="605" y="-81" type="curve"/>
      <point x="567" y="-248" type="line"/>
      <point x="497" y="-244"/>
      <point x="327" y="-128"/>
      <point x="327" y="59" type="curve" smooth="yes"/>
      <point x="327" y="177"/>
      <point x="411" y="293"/>
      <point x="646" y="412" type="curve" smooth="yes"/>
      <point x="664" y="421"/>
      <point x="667" y="427"/>
      <point x="666" y="449" type="curve" smooth="yes"/>
    </contour>
  </outline>
</glyph>
<glyph name="Agrave" format="1">
  <advance width="1394"/>
  <unicode hex="00C0"/>
  <outline>
    <contour>
      <point x="902" y="1491" type="line"/>
      <point x="923" y="1599" type="line"/>
      <point x="567" y="1795" type="line"/>
      <point x="463" y="1795" type="line"/>
      <point x="433" y="1636" type="line"/>
    </contour>
    <contour>
      <point x="1424" y="97" type="line"/>
      <point x="1269" y="143" type="line"/>
      <point x="778" y="1419" type="line"/>
      <point x="590" y="1384" type="line"/>
      <point x="142" y="150" type="line"/>
      <point x="-17" y="94" type="line"/>
      <point x="-34" y="0" type="line"/>
      <point x="479" y="0" type="line"/>
      <point x="496" y="82" type="line"/>
      <point x="302" y="146" type="line"/>
      <point x="302" y="146"/>
      <point x="342" y="262"/>
      <point x="395" y="416" type="curve"/>
      <point x="561" y="415"/>
      <point x="725" y="420"/>
      <point x="887" y="430" type="curve"/>
      <point x="988" y="143" type="line"/>
      <point x="827" y="85" type="line"/>
      <point x="812" y="0" type="line"/>
      <point x="1400" y="0" type="line"/>
    </contour>
    <contour>
      <point x="839" y="568" type="line"/>
      <point x="447" y="568" type="line"/>
      <point x="532" y="819"/>
      <point x="624" y="1099"/>
      <point x="633" y="1155" type="curve"/>
    </contour>
  </outline>
</glyph>
<glyph name="Atilde" format="1">
  <advance width="1394"/>
  <unicode hex="00C3"/>
  <outline>
    <contour>
      <point x="601" y="1648"/>
      <point x="675" y="1518"/>
      <point x="797" y="1518" type="curve" smooth="yes"/>
      <point x="891" y="1518"/>
      <point x="963" y="1592"/>
      <point x="1032" y="1668" type="curve"/>
      <point x="1012" y="1793" type="line"/>
      <point x="938" y="1732"/>
      <point x="851" y="1684"/>
      <point x="812" y="1684" type="curve" smooth="yes"/>
      <point x="757" y="1684"/>
      <point x="680" y="1815"/>
      <point x="558" y="1815" type="curve" smooth="yes"/>
      <point x="465" y="1815"/>
      <point x="395" y="1742"/>
      <point x="323" y="1663" type="curve"/>
      <point x="347" y="1539" type="line"/>
      <point x="413" y="1603"/>
      <point x="505" y="1648"/>
      <point x="545" y="1648" type="curve" smooth="yes"/>
    </contour>
    <contour>
      <point x="1424" y="97" type="line"/>
      <point x="1269" y="143" type="line"/>
      <point x="778" y="1419" type="line"/>
      <point x="590" y="1384" type="line"/>
      <point x="142" y="150" type="line"/>
      <point x="-17" y="94" type="line"/>
      <point x="-34" y="0" type="line"/>
      <point x="479" y="0" type="line"/>
      <point x="496" y="82" type="line"/>
      <point x="302" y="146" type="line"/>
      <point x="302" y="146"/>
      <point x="342" y="262"/>
      <point x="395" y="416" type="curve"/>
      <point x="561" y="415"/>
      <point x="725" y="420"/>
      <point x="887" y="430" type="curve"/>
      <point x="988" y="143" type="line"/>
      <point x="827" y="85" type="line"/>
      <point x="812" y="0" type="line"/>
      <point x="1400" y="0" type="line"/>
    </contour>
    <contour>
      <point x="839" y="568" type="line"/>
      <point x="447" y="568" type="line"/>
      <point x="532" y="819"/>
      <point x="624" y="1099"/>
      <point x="633" y="1155" type="curve"/>
    </contour>
  </outline>
</glyph>
<glyph name="Adieresis" format="1">
  <advance width="1394"/>
  <unicode hex="00C4"/>
  <outline>
    <contour>
      <point x="975" y="1521"/>
      <point x="1028" y="1640"/>
      <point x="1017" y="1673" type="curve" smooth="yes"/>
      <point x="1004" y="1709"/>
      <point x="884" y="1764"/>
      <point x="853" y="1752" type="curve"/>
      <point x="814" y="1740"/>
      <point x="763" y="1621"/>
      <point x="773" y="1587" type="curve"/>
      <point x="787" y="1551"/>
      <point x="903" y="1497"/>
      <point x="937" y="1507" type="curve"/>
    </contour>
    <contour>
      <point x="541" y="1521"/>
      <point x="593" y="1639"/>
      <point x="582" y="1673" type="curve"/>
      <point x="568" y="1709"/>
      <point x="450" y="1763"/>
      <point x="419" y="1752" type="curve" smooth="yes"/>
      <point x="380" y="1739"/>
      <point x="327" y="1621"/>
      <point x="339" y="1587" type="curve" smooth="yes"/>
      <point x="352" y="1551"/>
      <point x="469" y="1497"/>
      <point x="502" y="1507" type="curve"/>
    </contour>
    <contour>
      <point x="1424" y="97" type="line"/>
      <point x="1269" y="143" type="line"/>
      <point x="778" y="1419" type="line"/>
      <point x="590" y="1384" type="line"/>
      <point x="142" y="150" type="line"/>
      <point x="-17" y="94" type="line"/>
      <point x="-34" y="0" type="line"/>
      <point x="479" y="0" type="line"/>
      <point x="496" y="82" type="line"/>
      <point x="302" y="146" type="line"/>
      <point x="302" y="146"/>
      <point x="342" y="262"/>
      <point x="395" y="416" type="curve"/>
      <point x="561" y="415"/>
      <point x="725" y="420"/>
      <point x="887" y="430" type="curve"/>
      <point x="988" y="143" type="line"/>
      <point x="827" y="85" type="line"/>
      <point x="812" y="0" type="line"/>
      <point x="1400" y="0" type="line"/>
    </contour>
    <contour>
      <point x="839" y="568" type="line"/>
      <point x="447" y="568" type="line"/>
      <point x="532" y="819"/>
      <point x="624" y="1099"/>
      <point x="633" y="1155" type="curve"/>
    </contour>
  </outline>
</glyph>
<glyph name="Aring" format="1">
  <advance width="1394"/>
  <unicode hex="00C5"/>
  <outline>
    <contour>
      <point x="1424" y="97" type="line"/>
      <point x="1269" y="143" type="line"/>
      <point x="799" y="1364" type="line"/>
      <point x="845" y="1398"/>
      <point x="872" y="1452"/>
      <point x="872" y="1518" type="curve" smooth="yes"/>
      <point x="872" y="1626"/>
      <point x="781" y="1696"/>
      <point x="683" y="1696" type="curve" smooth="yes"/>
      <point x="562" y="1696"/>
      <point x="484" y="1612"/>
      <point x="484" y="1502" type="curve" smooth="yes"/>
      <point x="484" y="1431"/>
      <point x="522" y="1377"/>
      <point x="577" y="1348" type="curve"/>
      <point x="142" y="150" type="line"/>
      <point x="-17" y="94" type="line"/>
      <point x="-34" y="0" type="line"/>
      <point x="479" y="0" type="line"/>
      <point x="496" y="82" type="line"/>
      <point x="302" y="146" type="line"/>
      <point x="302" y="146"/>
      <point x="342" y="262"/>
      <point x="395" y="416" type="curve"/>
      <point x="561" y="415"/>
      <point x="725" y="420"/>
      <point x="887" y="430" type="curve"/>
      <point x="988" y="143" type="line"/>
      <point x="827" y="85" type="line"/>
      <point x="812" y="0" type="line"/>
      <point x="1400" y="0" type="line"/>
    </contour>
    <contour>
      <point x="722" y="1592"/>
      <point x="751" y="1549"/>
      <point x="751" y="1502" type="curve" smooth="yes"/>
      <point x="751" y="1462"/>
      <point x="726" y="1431"/>
      <point x="685" y="1431" type="curve" smooth="yes"/>
      <point x="629" y="1431"/>
      <point x="603" y="1475"/>
      <point x="603" y="1519" type="curve" smooth="yes"/>
      <point x="603" y="1557"/>
      <point x="629" y="1592"/>
      <point x="669" y="1592" type="curve" smooth="yes"/>
    </contour>
    <contour>
      <point x="839" y="568" type="line"/>
      <point x="447" y="568" type="line"/>
      <point x="532" y="819"/>
      <point x="624" y="1099"/>
      <point x="633" y="1155" type="curve"/>
    </contour>
  </outline>
</glyph>
<glyph name="AE" format="1">
  <advance width="1892"/>
  <unicode hex="00C6"/>
  <outline>
    <contour>
      <point x="890" y="150" type="line"/>
      <point x="714" y="87" type="line"/>
      <point x="697" y="0" type="line"/>
      <point x="1769" y="0" type="line"/>
      <point x="1847" y="335" type="line"/>
      <point x="1750" y="351" type="line"/>
      <point x="1628" y="161" type="line"/>
      <point x="1361" y="136"/>
      <point x="1164" y="105"/>
      <point x="1145" y="99" type="curve"/>
      <point x="1145" y="659" type="line"/>
      <point x="1231" y="642"/>
      <point x="1389" y="633"/>
      <point x="1399" y="633" type="curve"/>
      <point x="1441" y="472" type="line"/>
      <point x="1527" y="457" type="line"/>
      <point x="1546" y="919" type="line"/>
      <point x="1460" y="940" type="line"/>
      <point x="1400" y="771" type="line"/>
      <point x="1388" y="771"/>
      <point x="1227" y="758"/>
      <point x="1145" y="741" type="curve"/>
      <point x="1145" y="1296" type="line"/>
      <point x="1289" y="1272"/>
      <point x="1429" y="1253"/>
      <point x="1567" y="1239" type="curve"/>
      <point x="1665" y="1023" type="line"/>
      <point x="1776" y="1046" type="line"/>
      <point x="1738" y="1397" type="line"/>
      <point x="1603" y="1384" type="line"/>
      <point x="568" y="1384" type="line"/>
      <point x="551" y="1302" type="line"/>
      <point x="716" y="1248" type="line"/>
      <point x="131" y="148" type="line"/>
      <point x="-21" y="93" type="line"/>
      <point x="-40" y="0" type="line"/>
      <point x="466" y="0" type="line"/>
      <point x="486" y="82" type="line"/>
      <point x="303" y="146" type="line"/>
      <point x="447" y="418" type="line"/>
      <point x="605" y="418"/>
      <point x="777" y="420"/>
      <point x="890" y="433" type="curve"/>
    </contour>
    <contour>
      <point x="890" y="1209" type="line"/>
      <point x="890" y="568" type="line"/>
      <point x="524" y="568" type="line"/>
      <point x="850" y="1209" type="line"/>
    </contour>
  </outline>
</glyph>
<glyph name="Ecircumflex" format="1">
  <advance width="1299"/>
  <unicode hex="00CA"/>
  <outline>
    <contour>
      <point x="322" y="1564" type="line"/>
      <point x="398" y="1493" type="line"/>
      <point x="648" y="1620" type="line"/>
      <point x="898" y="1493" type="line"/>
      <point x="974" y="1564" type="line"/>
      <point x="702" y="1793" type="line"/>
      <point x="593" y="1793" type="line"/>
    </contour>
    <contour>
      <point x="1034" y="161" type="line"/>
      <point x="516" y="99" type="line"/>
      <point x="516" y="659" type="line"/>
      <point x="604" y="641"/>
      <point x="695" y="635"/>
      <point x="788" y="633" type="curve"/>
      <point x="834" y="474" type="line"/>
      <point x="923" y="457" type="line"/>
      <point x="940" y="920" type="line"/>
      <point x="853" y="941" type="line"/>
      <point x="789" y="771" type="line"/>
      <point x="697" y="765"/>
      <point x="605" y="755"/>
      <point x="516" y="741" type="curve"/>
      <point x="516" y="1296" type="line"/>
      <point x="973" y="1239" type="line"/>
      <point x="1071" y="1022" type="line"/>
      <point x="1179" y="1046" type="line"/>
      <point x="1144" y="1397" type="line"/>
      <point x="1010" y="1384" type="line"/>
      <point x="89" y="1384" type="line"/>
      <point x="69" y="1304" type="line"/>
      <point x="256" y="1238" type="line"/>
      <point x="256" y="151" type="line"/>
      <point x="76" y="87" type="line"/>
      <point x="59" y="0" type="line"/>
      <point x="1178" y="0" type="line"/>
      <point x="1256" y="333" type="line"/>
      <point x="1157" y="352" type="line"/>
    </contour>
  </outline>
</glyph>
<glyph name="Edieresis" format="1">
  <advance width="1299"/>
  <unicode hex="00CB"/>
  <outline>
    <contour>
      <point x="756" y="1551"/>
      <point x="872" y="1497"/>
      <point x="906" y="1507" type="curve"/>
      <point x="944" y="1521"/>
      <point x="997" y="1640"/>
      <point x="986" y="1673" type="curve" smooth="yes"/>
      <point x="973" y="1709"/>
      <point x="853" y="1764"/>
      <point x="822" y="1752" type="curve"/>
      <point x="783" y="1740"/>
      <point x="732" y="1621"/>
      <point x="742" y="1587" type="curve"/>
    </contour>
    <contour>
      <point x="321" y="1551"/>
      <point x="438" y="1497"/>
      <point x="471" y="1507" type="curve"/>
      <point x="510" y="1521"/>
      <point x="562" y="1639"/>
      <point x="551" y="1673" type="curve"/>
      <point x="537" y="1709"/>
      <point x="419" y="1763"/>
      <point x="388" y="1752" type="curve" smooth="yes"/>
      <point x="349" y="1739"/>
      <point x="296" y="1621"/>
      <point x="308" y="1587" type="curve" smooth="yes"/>
    </contour>
    <contour>
      <point x="1034" y="161" type="line"/>
      <point x="516" y="99" type="line"/>
      <point x="516" y="659" type="line"/>
      <point x="604" y="641"/>
      <point x="695" y="635"/>
      <point x="788" y="633" type="curve"/>
      <point x="834" y="474" type="line"/>
      <point x="923" y="457" type="line"/>
      <point x="940" y="920" type="line"/>
      <point x="853" y="941" type="line"/>
      <point x="789" y="771" type="line"/>
      <point x="697" y="765"/>
      <point x="605" y="755"/>
      <point x="516" y="741" type="curve"/>
      <point x="516" y="1296" type="line"/>
      <point x="973" y="1239" type="line"/>
      <point x="1071" y="1022" type="line"/>
      <point x="1179" y="1046" type="line"/>
      <point x="1144" y="1397" type="line"/>
      <point x="1010" y="1384" type="line"/>
      <point x="89" y="1384" type="line"/>
      <point x="69" y="1304" type="line"/>
      <point x="256" y="1238" type="line"/>
      <point x="256" y="151" type="line"/>
      <point x="76" y="87" type="line"/>
      <point x="59" y="0" type="line"/>
      <point x="1178" y="0" type="line"/>
      <point x="1256" y="333" type="line"/>
      <point x="1157" y="352" type="line"/>
    </contour>
  </outline>
</glyph>
<glyph name="Iacute" format="1">
  <advance width="775"/>
  <unicode hex="00CD"/>
  <outline>
    <contour>
      <point x="198" y="1598" type="line"/>
      <point x="220" y="1491" type="line"/>
      <point x="689" y="1636" type="line"/>
      <point x="659" y="1795" type="line"/>
      <point x="555" y="1795" type="line"/>
    </contour>
    <contour>
      <point x="257" y="150" type="line"/>
      <point x="79" y="86" type="line"/>
      <point x="62" y="0" type="line"/>
      <point x="689" y="0" type="line"/>
      <point x="708" y="83" type="line"/>
      <point x="516" y="150" type="line"/>
      <point x="516" y="1234" type="line"/>
      <point x="697" y="1300" type="line"/>
      <point x="713" y="1384" type="line"/>
      <point x="86" y="1384" type="line"/>
      <point x="69" y="1302" type="line"/>
      <point x="257" y="1236" type="line"/>
    </contour>
  </outline>
</glyph>
<glyph name="Idieresis" format="1">
  <advance width="775"/>
  <unicode hex="00CF"/>
  <outline>
    <contour>
      <point x="496" y="1551"/>
      <point x="612" y="1497"/>
      <point x="646" y="1507" type="curve"/>
      <point x="684" y="1521"/>
      <point x="737" y="1640"/>
      <point x="726" y="1673" type="curve" smooth="yes"/>
      <point x="713" y="1709"/>
      <point x="593" y="1764"/>
      <point x="562" y="1752" type="curve"/>
      <point x="523" y="1740"/>
      <point x="472" y="1621"/>
      <point x="482" y="1587" type="curve"/>
    </contour>
    <contour>
      <point x="61" y="1551"/>
      <point x="178" y="1497"/>
      <point x="211" y="1507" type="curve"/>
      <point x="250" y="1521"/>
      <point x="302" y="1639"/>
      <point x="291" y="1673" type="curve"/>
      <point x="277" y="1709"/>
      <point x="159" y="1763"/>
      <point x="128" y="1752" type="curve" smooth="yes"/>
      <point x="89" y="1739"/>
      <point x="36" y="1621"/>
      <point x="48" y="1587" type="curve" smooth="yes"/>
    </contour>
    <contour>
      <point x="257" y="150" type="line"/>
      <point x="79" y="86" type="line"/>
      <point x="62" y="0" type="line"/>
      <point x="689" y="0" type="line"/>
      <point x="708" y="83" type="line"/>
      <point x="516" y="150" type="line"/>
      <point x="516" y="1234" type="line"/>
      <point x="697" y="1300" type="line"/>
      <point x="713" y="1384" type="line"/>
      <point x="86" y="1384" type="line"/>
      <point x="69" y="1302" type="line"/>
      <point x="257" y="1236" type="line"/>
    </contour>
  </outline>
</glyph>
<glyph name="Eth" format="1">
  <advance width="1474"/>
  <unicode hex="00D0"/>
  <outline>
    <contour>
      <point x="965" y="1371"/>
      <point x="739" y="1384"/>
      <point x="545" y="1384" type="curve" smooth="yes"/>
      <point x="87" y="1384" type="line"/>
      <point x="70" y="1302" type="line"/>
      <point x="257" y="1236" type="line"/>
      <point x="257" y="770" type="line"/>
      <point x="100" y="770" type="line"/>
      <point x="66" y="605" type="line"/>
      <point x="257" y="611" type="line"/>
      <point x="257" y="149" type="line"/>
      <point x="81" y="85" type="line"/>
      <point x="64" y="0" type="line"/>
      <point x="505" y="0" type="line" smooth="yes"/>
      <point x="781" y="0"/>
      <point x="1058" y="19"/>
      <point x="1228" y="199" type="curve" smooth="yes"/>
      <point x="1347" y="324"/>
      <point x="1397" y="505"/>
      <point x="1397" y="702" type="curve" smooth="yes"/>
      <point x="1397" y="935"/>
      <point x="1323" y="1144"/>
      <point x="1121" y="1272" type="curve" smooth="yes"/>
    </contour>
    <contour>
      <point x="516" y="620" type="line"/>
      <point x="779" y="629" type="line"/>
      <point x="809" y="770" type="line"/>
      <point x="516" y="770" type="line"/>
      <point x="516" y="1293" type="line"/>
      <point x="661" y="1274"/>
      <point x="811" y="1232"/>
      <point x="900" y="1171" type="curve" smooth="yes"/>
      <point x="1048" y="1068"/>
      <point x="1123" y="912"/>
      <point x="1123" y="697" type="curve" smooth="yes"/>
      <point x="1123" y="283"/>
      <point x="919" y="149"/>
      <point x="516" y="95" type="curve"/>
    </contour>
  </outline>
</glyph>
<glyph name="Ntilde" format="1">
  <advance width="1554"/>
  <unicode hex="00D1"/>
  <outline>
    <contour>
      <point x="439" y="1539" type="line"/>
      <point x="505" y="1603"/>
      <point x="597" y="1648"/>
      <point x="637" y="1648" type="curve" smooth="yes"/>
      <point x="693" y="1648"/>
      <point x="767" y="1518"/>
      <point x="889" y="1518" type="curve" smooth="yes"/>
      <point x="983" y="1518"/>
      <point x="1055" y="1592"/>
      <point x="1124" y="1668" type="curve"/>
      <point x="1104" y="1793" type="line"/>
      <point x="1030" y="1732"/>
      <point x="943" y="1684"/>
      <point x="904" y="1684" type="curve" smooth="yes"/>
      <point x="849" y="1684"/>
      <point x="772" y="1815"/>
      <point x="650" y="1815" type="curve" smooth="yes"/>
      <point x="557" y="1815"/>
      <point x="487" y="1742"/>
      <point x="415" y="1663" type="curve"/>
    </contour>
    <contour>
      <point x="256" y="149" type="line"/>
      <point x="85" y="85" type="line"/>
      <point x="69" y="0" type="line"/>
      <point x="608" y="0" type="line"/>
      <point x="626" y="83" type="line"/>
      <point x="420" y="148" type="line"/>
      <point x="420" y="456"/>
      <point x="420" y="764"/>
      <point x="390" y="1072" type="curve"/>
      <point x="1111" y="-25" type="line"/>
      <point x="1323" y="15" type="line"/>
      <point x="1323" y="1235" type="line"/>
      <point x="1492" y="1300" type="line"/>
      <point x="1507" y="1384" type="line"/>
      <point x="971" y="1384" type="line"/>
      <point x="954" y="1301" type="line"/>
      <point x="1158" y="1237" type="line"/>
      <point x="1158" y="933"/>
      <point x="1158" y="630"/>
      <point x="1184" y="326" type="curve"/>
      <point x="480" y="1384" type="line"/>
      <point x="86" y="1384" type="line"/>
      <point x="68" y="1301" type="line"/>
      <point x="256" y="1236" type="line"/>
    </contour>
  </outline>
</glyph>
<glyph name="Ocircumflex" format="1">
  <advance width="1457"/>
  <unicode hex="00D4"/>
  <outline>
    <contour>
      <point x="410" y="1564" type="line"/>
      <point x="486" y="1493" type="line"/>
      <point x="736" y="1620" type="line"/>
      <point x="986" y="1493" type="line"/>
      <point x="1062" y="1564" type="line"/>
      <point x="790" y="1793" type="line"/>
      <point x="681" y="1793" type="line"/>
    </contour>
    <contour>
      <point x="82" y="211"/>
      <point x="353" y="-35"/>
      <point x="700" y="-35" type="curve" smooth="yes"/>
      <point x="1124" y="-35"/>
      <point x="1376" y="335"/>
      <point x="1376" y="762" type="curve" smooth="yes"/>
      <point x="1376" y="1173"/>
      <point x="1097" y="1419"/>
      <point x="771" y="1419" type="curve" smooth="yes"/>
      <point x="318" y="1419"/>
      <point x="82" y="1041"/>
      <point x="82" y="623" type="curve" smooth="yes"/>
    </contour>
    <contour>
      <point x="370" y="414"/>
      <point x="355" y="590"/>
      <point x="355" y="766" type="curve" smooth="yes"/>
      <point x="355" y="891"/>
      <point x="384" y="1113"/>
      <point x="464" y="1192" type="curve" smooth="yes"/>
      <point x="518" y="1244"/>
      <point x="602" y="1260"/>
      <point x="670" y="1260" type="curve" smooth="yes"/>
      <point x="834" y="1260"/>
      <point x="992" y="1150"/>
      <point x="1056" y="984" type="curve" smooth="yes"/>
      <point x="1096" y="882"/>
      <point x="1103" y="771"/>
      <point x="1103" y="617" type="curve" smooth="yes"/>
      <point x="1103" y="493"/>
      <point x="1073" y="283"/>
      <point x="1004" y="203" type="curve" smooth="yes"/>
      <point x="952" y="144"/>
      <point x="864" y="124"/>
      <point x="791" y="124" type="curve" smooth="yes"/>
      <point x="661" y="124"/>
      <point x="541" y="186"/>
      <point x="465" y="287" type="curve" smooth="yes"/>
    </contour>
  </outline>
</glyph>
<glyph name="Odieresis" format="1">
  <advance width="1457"/>
  <unicode hex="00D6"/>
  <outline>
    <contour>
      <point x="844" y="1551"/>
      <point x="960" y="1497"/>
      <point x="994" y="1507" type="curve"/>
      <point x="1032" y="1521"/>
      <point x="1085" y="1640"/>
      <point x="1074" y="1673" type="curve" smooth="yes"/>
      <point x="1061" y="1709"/>
      <point x="941" y="1764"/>
      <point x="910" y="1752" type="curve"/>
      <point x="871" y="1740"/>
      <point x="820" y="1621"/>
      <point x="830" y="1587" type="curve"/>
    </contour>
    <contour>
      <point x="409" y="1551"/>
      <point x="526" y="1497"/>
      <point x="559" y="1507" type="curve"/>
      <point x="598" y="1521"/>
      <point x="650" y="1639"/>
      <point x="639" y="1673" type="curve"/>
      <point x="625" y="1709"/>
      <point x="507" y="1763"/>
      <point x="476" y="1752" type="curve" smooth="yes"/>
      <point x="437" y="1739"/>
      <point x="384" y="1621"/>
      <point x="396" y="1587" type="curve" smooth="yes"/>
    </contour>
    <contour>
      <point x="82" y="211"/>
      <point x="353" y="-35"/>
      <point x="700" y="-35" type="curve" smooth="yes"/>
      <point x="1124" y="-35"/>
      <point x="1376" y="335"/>
      <point x="1376" y="762" type="curve" smooth="yes"/>
      <point x="1376" y="1173"/>
      <point x="1097" y="1419"/>
      <point x="771" y="1419" type="curve" smooth="yes"/>
      <point x="318" y="1419"/>
      <point x="82" y="1041"/>
      <point x="82" y="623" type="curve" smooth="yes"/>
    </contour>
    <contour>
      <point x="370" y="414"/>
      <point x="355" y="590"/>
      <point x="355" y="766" type="curve" smooth="yes"/>
      <point x="355" y="891"/>
      <point x="384" y="1113"/>
      <point x="464" y="1192" type="curve" smooth="yes"/>
      <point x="518" y="1244"/>
      <point x="602" y="1260"/>
      <point x="670" y="1260" type="curve" smooth="yes"/>
      <point x="834" y="1260"/>
      <point x="992" y="1150"/>
      <point x="1056" y="984" type="curve" smooth="yes"/>
      <point x="1096" y="882"/>
      <point x="1103" y="771"/>
      <point x="1103" y="617" type="curve" smooth="yes"/>
      <point x="1103" y="493"/>
      <point x="1073" y="283"/>
      <point x="1004" y="203" type="curve" smooth="yes"/>
      <point x="952" y="144"/>
      <point x="864" y="124"/>
      <point x="791" y="124" type="curve" smooth="yes"/>
      <point x="661" y="124"/>
      <point x="541" y="186"/>
      <point x="465" y="287" type="curve" smooth="yes"/>
    </contour>
  </outline>
</glyph>
<glyph name="multiply" format="1">
  <advance width="1024"/>
  <unicode hex="00D7"/>
  <outline>
    <contour>
      <point x="632" y="576" type="line"/>
      <point x="862" y="797" type="line"/>
      <point x="742" y="909" type="line"/>
      <point x="513" y="690" type="line"/>
      <point x="284" y="909" type="line"/>
      <point x="164" y="797" type="line"/>
      <point x="394" y="576" type="line"/>
      <point x="173" y="365" type="line"/>
      <point x="294" y="252" type="line"/>
      <point x="513" y="462" type="line"/>
      <point x="732" y="252" type="line"/>
      <point x="853" y="365" type="line"/>
    </contour>
  </outline>
</glyph>
<glyph name="Oslash" format="1">
  <advance width="1457"/>
  <unicode hex="00D8"/>
  <outline>
    <contour>
      <point x="1166" y="1463" type="line"/>
      <point x="992" y="1514" type="line"/>
      <point x="943" y="1395" type="line"/>
      <point x="888" y="1411"/>
      <point x="830" y="1419"/>
      <point x="771" y="1419" type="curve" smooth="yes"/>
      <point x="318" y="1419"/>
      <point x="82" y="1041"/>
      <point x="82" y="623" type="curve" smooth="yes"/>
      <point x="82" y="349"/>
      <point x="202" y="149"/>
      <point x="384" y="45" type="curve"/>
      <point x="317" y="-117" type="line"/>
      <point x="492" y="-167" type="line"/>
      <point x="553" y="-19" type="line"/>
      <point x="600" y="-30"/>
      <point x="649" y="-35"/>
      <point x="700" y="-35" type="curve" smooth="yes"/>
      <point x="1124" y="-35"/>
      <point x="1376" y="335"/>
      <point x="1376" y="762" type="curve" smooth="yes"/>
      <point x="1376" y="1018"/>
      <point x="1267" y="1211"/>
      <point x="1106" y="1319" type="curve"/>
    </contour>
    <contour>
      <point x="364" y="406"/>
      <point x="355" y="587"/>
      <point x="355" y="766" type="curve" smooth="yes"/>
      <point x="355" y="891"/>
      <point x="384" y="1114"/>
      <point x="464" y="1193" type="curve" smooth="yes"/>
      <point x="518" y="1246"/>
      <point x="610" y="1265"/>
      <point x="678" y="1265" type="curve" smooth="yes"/>
      <point x="744" y="1265"/>
      <point x="811" y="1249"/>
      <point x="870" y="1219" type="curve"/>
      <point x="471" y="256" type="line"/>
      <point x="465" y="264"/>
      <point x="458" y="272"/>
      <point x="452" y="280" type="curve" smooth="yes"/>
    </contour>
    <contour>
      <point x="951" y="140"/>
      <point x="857" y="120"/>
      <point x="784" y="120" type="curve" smooth="yes"/>
      <point x="727" y="120"/>
      <point x="673" y="131"/>
      <point x="623" y="150" type="curve"/>
      <point x="1014" y="1097" type="line"/>
      <point x="1033" y="1070"/>
      <point x="1049" y="1041"/>
      <point x="1061" y="1010" type="curve" smooth="yes"/>
      <point x="1100" y="906"/>
      <point x="1103" y="778"/>
      <point x="1103" y="617" type="curve" smooth="yes"/>
      <point x="1103" y="493"/>
      <point x="1072" y="285"/>
      <point x="1004" y="204" type="curve" smooth="yes"/>
    </contour>
  </outline>
</glyph>
<glyph name="Uacute" format="1">
  <advance width="1518"/>
  <unicode hex="00DA"/>
  <outline>
    <contour>
      <point x="615" y="1598" type="line"/>
      <point x="637" y="1491" type="line"/>
      <point x="1106" y="1636" type="line"/>
      <point x="1076" y="1795" type="line"/>
      <point x="972" y="1795" type="line"/>
    </contour>
    <contour>
      <point x="472" y="1225" type="line"/>
      <point x="663" y="1282" type="line"/>
      <point x="685" y="1384" type="line"/>
      <point x="62" y="1384" type="line"/>
      <point x="45" y="1303" type="line"/>
      <point x="216" y="1236" type="line"/>
      <point x="216" y="469" type="line" smooth="yes"/>
      <point x="216" y="159"/>
      <point x="386" y="-35"/>
      <point x="746" y="-35" type="curve" smooth="yes"/>
      <point x="1111" y="-35"/>
      <point x="1312" y="162"/>
      <point x="1312" y="494" type="curve" smooth="yes"/>
      <point x="1312" y="1232" type="line"/>
      <point x="1465" y="1299" type="line"/>
      <point x="1481" y="1384" type="line"/>
      <point x="960" y="1384" type="line"/>
      <point x="943" y="1302" type="line"/>
      <point x="1140" y="1234" type="line"/>
      <point x="1140" y="477" type="line" smooth="yes"/>
      <point x="1140" y="356"/>
      <point x="1112" y="258"/>
      <point x="1051" y="196" type="curve" smooth="yes"/>
      <point x="1004" y="148"/>
      <point x="933" y="124"/>
      <point x="852" y="124" type="curve" smooth="yes"/>
      <point x="618" y="124"/>
      <point x="472" y="298"/>
      <point x="472" y="536" type="curve" smooth="yes"/>
    </contour>
  </outline>
</glyph>
<glyph name="Udieresis" format="1">
  <advance width="1518"/>
  <unicode hex="00DC"/>
  <outline>
    <contour>
      <point x="913" y="1551"/>
      <point x="1029" y="1497"/>
      <point x="1063" y="1507" type="curve"/>
      <point x="1101" y="1521"/>
      <point x="1154" y="1640"/>
      <point x="1143" y="1673" type="curve" smooth="yes"/>
      <point x="1130" y="1709"/>
      <point x="1010" y="1764"/>
      <point x="979" y="1752" type="curve"/>
      <point x="940" y="1740"/>
      <point x="889" y="1621"/>
      <point x="899" y="1587" type="curve"/>
    </contour>
    <contour>
      <point x="478" y="1551"/>
      <point x="595" y="1497"/>
      <point x="628" y="1507" type="curve"/>
      <point x="667" y="1521"/>
      <point x="719" y="1639"/>
      <point x="708" y="1673" type="curve"/>
      <point x="694" y="1709"/>
      <point x="576" y="1763"/>
      <point x="545" y="1752" type="curve" smooth="yes"/>
      <point x="506" y="1739"/>
      <point x="453" y="1621"/>
      <point x="465" y="1587" type="curve" smooth="yes"/>
    </contour>
    <contour>
      <point x="472" y="1225" type="line"/>
      <point x="663" y="1282" type="line"/>
      <point x="685" y="1384" type="line"/>
      <point x="62" y="1384" type="line"/>
      <point x="45" y="1303" type="line"/>
      <point x="216" y="1236" type="line"/>
      <point x="216" y="469" type="line" smooth="yes"/>
      <point x="216" y="159"/>
      <point x="386" y="-35"/>
      <point x="746" y="-35" type="curve" smooth="yes"/>
      <point x="1111" y="-35"/>
      <point x="1312" y="162"/>
      <point x="1312" y="494" type="curve" smooth="yes"/>
      <point x="1312" y="1232" type="line"/>
      <point x="1465" y="1299" type="line"/>
      <point x="1481" y="1384" type="line"/>
      <point x="960" y="1384" type="line"/>
      <point x="943" y="1302" type="line"/>
      <point x="1140" y="1234" type="line"/>
      <point x="1140" y="477" type="line" smooth="yes"/>
      <point x="1140" y="356"/>
      <point x="1112" y="258"/>
      <point x="1051" y="196" type="curve" smooth="yes"/>
      <point x="1004" y="148"/>
      <point x="933" y="124"/>
      <point x="852" y="124" type="curve" smooth="yes"/>
      <point x="618" y="124"/>
      <point x="472" y="298"/>
      <point x="472" y="536" type="curve" smooth="yes"/>
    </contour>
  </outline>
</glyph>
<glyph name="Yacute" format="1">
  <advance width="1252"/>
  <unicode hex="00DD"/>
  <outline>
    <contour>
      <point x="452" y="1598" type="line"/>
      <point x="474" y="1491" type="line"/>
      <point x="943" y="1636" type="line"/>
      <point x="913" y="1795" type="line"/>
      <point x="809" y="1795" type="line"/>
    </contour>
    <contour>
      <point x="504" y="147" type="line"/>
      <point x="330" y="83" type="line"/>
      <point x="315" y="0" type="line"/>
      <point x="945" y="0" type="line"/>
      <point x="961" y="82" type="line"/>
      <point x="760" y="147" type="line"/>
      <point x="760" y="560" type="line"/>
      <point x="1125" y="1240" type="line"/>
      <point x="1260" y="1289" type="line"/>
      <point x="1275" y="1384" type="line"/>
      <point x="789" y="1384" type="line"/>
      <point x="772" y="1302" type="line"/>
      <point x="955" y="1235" type="line"/>
      <point x="867" y="1056"/>
      <point x="763" y="847"/>
      <point x="701" y="681" type="curve"/>
      <point x="382" y="1237" type="line"/>
      <point x="538" y="1296" type="line"/>
      <point x="555" y="1384" type="line"/>
      <point x="-17" y="1384" type="line"/>
      <point x="-34" y="1290" type="line"/>
      <point x="101" y="1240" type="line"/>
      <point x="504" y="558" type="line"/>
    </contour>
  </outline>
</glyph>
<glyph name="Thorn" format="1">
  <advance width="1238"/>
  <unicode hex="00DE"/>
  <outline>
    <contour>
      <point x="955" y="1130"/>
      <point x="772" y="1143"/>
      <point x="516" y="1144" type="curve"/>
      <point x="516" y="1234" type="line"/>
      <point x="698" y="1300" type="line"/>
      <point x="713" y="1384" type="line"/>
      <point x="86" y="1384" type="line"/>
      <point x="69" y="1302" type="line"/>
      <point x="257" y="1236" type="line"/>
      <point x="257" y="150" type="line"/>
      <point x="79" y="86" type="line"/>
      <point x="62" y="0" type="line"/>
      <point x="730" y="0" type="line"/>
      <point x="749" y="83" type="line"/>
      <point x="516" y="150" type="line"/>
      <point x="516" y="1063" type="line"/>
      <point x="736" y="1058"/>
      <point x="922" y="979"/>
      <point x="922" y="745" type="curve" smooth="yes"/>
      <point x="922" y="560"/>
      <point x="853" y="488"/>
      <point x="653" y="400" type="curve"/>
      <point x="640" y="332" type="line"/>
      <point x="768" y="332"/>
      <point x="924" y="358"/>
      <point x="1036" y="436" type="curve" smooth="yes"/>
      <point x="1131" y="501"/>
      <point x="1188" y="606"/>
      <point x="1188" y="735" type="curve" smooth="yes"/>
      <point x="1188" y="870"/>
      <point x="1145" y="963"/>
      <point x="1075" y="1025" type="curve" smooth="yes"/>
    </contour>
  </outline>
</glyph>
<glyph name="germandbls" format="1">
  <advance width="1304"/>
  <unicode hex="00DF"/>
  <outline>
    <contour>
      <point x="211" y="141" type="line"/>
      <point x="71" y="82" type="line"/>
      <point x="56" y="0" type="line"/>
      <point x="477" y="0" type="line"/>
      <point x="453" y="125" type="line"/>
      <point x="453" y="1067" type="line" smooth="yes"/>
      <point x="453" y="1210"/>
      <point x="462" y="1277"/>
      <point x="507" y="1331" type="curve"/>
      <point x="522" y="1347"/>
      <point x="567" y="1363"/>
      <point x="644" y="1363" type="curve" smooth="yes"/>
      <point x="788" y="1363"/>
      <point x="924" y="1293"/>
      <point x="924" y="1140" type="curve" smooth="yes"/>
      <point x="924" y="1121"/>
      <point x="924" y="1092"/>
      <point x="908" y="1078" type="curve" smooth="yes"/>
      <point x="851" y="1026"/>
      <point x="637" y="933"/>
      <point x="637" y="743" type="curve" smooth="yes"/>
      <point x="637" y="585"/>
      <point x="733" y="515"/>
      <point x="859" y="431" type="curve" smooth="yes"/>
      <point x="970" y="359"/>
      <point x="1046" y="310"/>
      <point x="1046" y="215" type="curve" smooth="yes"/>
      <point x="1046" y="186"/>
      <point x="1040" y="158"/>
      <point x="1018" y="141" type="curve" smooth="yes"/>
      <point x="991" y="121"/>
      <point x="893" y="94"/>
      <point x="787" y="92" type="curve"/>
      <point x="746" y="291" type="line"/>
      <point x="637" y="312" type="line"/>
      <point x="593" y="73" type="line"/>
      <point x="695" y="0"/>
      <point x="808" y="-25"/>
      <point x="935" y="-25" type="curve" smooth="yes"/>
      <point x="1128" y="-25"/>
      <point x="1272" y="59"/>
      <point x="1272" y="252" type="curve" smooth="yes"/>
      <point x="1272" y="405"/>
      <point x="1168" y="495"/>
      <point x="1036" y="578" type="curve" smooth="yes"/>
      <point x="901" y="664"/>
      <point x="847" y="703"/>
      <point x="847" y="775" type="curve" smooth="yes"/>
      <point x="847" y="955"/>
      <point x="1124" y="953"/>
      <point x="1124" y="1185" type="curve" smooth="yes"/>
      <point x="1124" y="1367"/>
      <point x="954" y="1480"/>
      <point x="718" y="1480" type="curve" smooth="yes"/>
      <point x="549" y="1480"/>
      <point x="413" y="1436"/>
      <point x="333" y="1344" type="curve"/>
      <point x="255" y="1261"/>
      <point x="211" y="1136"/>
      <point x="211" y="995" type="curve" smooth="yes"/>
      <point x="211" y="950" type="line"/>
      <point x="69" y="950" type="line"/>
      <point x="51" y="861" type="line"/>
      <point x="211" y="800" type="line"/>
    </contour>
  </outline>
</glyph>
<glyph name="atilde" format="1">
  <advance width="1037"/>
  <unicode hex="00E3"/>
  <outline>
    <contour>
      <point x="161" y="1140" type="line"/>
      <point x="223" y="1199"/>
      <point x="319" y="1241"/>
      <point x="359" y="1241" type="curve" smooth="yes"/>
      <point x="412" y="1241"/>
      <point x="494" y="1114"/>
      <point x="610" y="1114" type="curve" smooth="yes"/>
      <point x="700" y="1114"/>
      <point x="775" y="1190"/>
      <point x="842" y="1259" type="curve"/>
      <point x="820" y="1391" type="line"/>
      <point x="753" y="1338"/>
      <point x="661" y="1292"/>
      <point x="622" y="1292" type="curve" smooth="yes"/>
      <point x="569" y="1292"/>
      <point x="486" y="1419"/>
      <point x="369" y="1419" type="curve" smooth="yes"/>
      <point x="281" y="1419"/>
      <point x="207" y="1345"/>
      <point x="138" y="1273" type="curve"/>
    </contour>
    <contour>
      <point x="62" y="125"/>
      <point x="131" y="-25"/>
      <point x="336" y="-25" type="curve" smooth="yes"/>
      <point x="470" y="-25"/>
      <point x="594" y="58"/>
      <point x="648" y="132" type="curve"/>
      <point x="704" y="86"/>
      <point x="737" y="35"/>
      <point x="766" y="-25" type="curve"/>
      <point x="858" y="-23"/>
      <point x="945" y="-2"/>
      <point x="1024" y="35" type="curve"/>
      <point x="1037" y="93" type="line"/>
      <point x="961" y="112"/>
      <point x="904" y="144"/>
      <point x="863" y="196" type="curve"/>
      <point x="863" y="674" type="line" smooth="yes"/>
      <point x="863" y="846"/>
      <point x="791" y="975"/>
      <point x="579" y="975" type="curve" smooth="yes"/>
      <point x="515" y="975"/>
      <point x="332" y="949"/>
      <point x="210" y="896" type="curve" smooth="yes"/>
      <point x="162" y="874"/>
      <point x="96" y="836"/>
      <point x="96" y="797" type="curve" smooth="yes"/>
      <point x="96" y="734"/>
      <point x="197" y="652"/>
      <point x="247" y="652" type="curve" smooth="yes"/>
      <point x="270" y="652"/>
      <point x="306" y="670"/>
      <point x="331" y="692" type="curve"/>
      <point x="362" y="868" type="line"/>
      <point x="379" y="872"/>
      <point x="400" y="875"/>
      <point x="421" y="875" type="curve" smooth="yes"/>
      <point x="463" y="875"/>
      <point x="508" y="867"/>
      <point x="534" y="851" type="curve" smooth="yes"/>
      <point x="613" y="803"/>
      <point x="621" y="667"/>
      <point x="621" y="579" type="curve" smooth="yes"/>
      <point x="621" y="525" type="line"/>
      <point x="582" y="530"/>
      <point x="532" y="533"/>
      <point x="491" y="533" type="curve" smooth="yes"/>
      <point x="405" y="533"/>
      <point x="289" y="521"/>
      <point x="213" y="488" type="curve" smooth="yes"/>
      <point x="105" y="442"/>
      <point x="62" y="369"/>
      <point x="62" y="241" type="curve" smooth="yes"/>
    </contour>
    <contour>
      <point x="340" y="152"/>
      <point x="303" y="238"/>
      <point x="303" y="301" type="curve" smooth="yes"/>
      <point x="303" y="323"/>
      <point x="306" y="349"/>
      <point x="319" y="366" type="curve"/>
      <point x="338" y="388"/>
      <point x="431" y="439"/>
      <point x="621" y="460" type="curve"/>
      <point x="621" y="165" type="line"/>
      <point x="572" y="143"/>
      <point x="473" y="117"/>
      <point x="414" y="117" type="curve" smooth="yes"/>
      <point x="402" y="117"/>
      <point x="391" y="120"/>
      <point x="383" y="127" type="curve"/>
    </contour>
  </outline>
</glyph>
<glyph name="adieresis" format="1">
  <advance width="1037"/>
  <unicode hex="00E4"/>
  <outline>
    <contour>
      <point x="162" y="1189"/>
      <point x="298" y="1124"/>
      <point x="336" y="1137" type="curve" smooth="yes"/>
      <point x="378" y="1153"/>
      <point x="435" y="1288"/>
      <point x="421" y="1327" type="curve"/>
      <point x="404" y="1367"/>
      <point x="278" y="1433"/>
      <point x="241" y="1419" type="curve" smooth="yes"/>
      <point x="198" y="1403"/>
      <point x="134" y="1269"/>
      <point x="149" y="1229" type="curve"/>
    </contour>
    <contour>
      <point x="574" y="1189"/>
      <point x="698" y="1124"/>
      <point x="738" y="1137" type="curve" smooth="yes"/>
      <point x="782" y="1153"/>
      <point x="845" y="1289"/>
      <point x="831" y="1327" type="curve"/>
      <point x="814" y="1368"/>
      <point x="680" y="1433"/>
      <point x="642" y="1419" type="curve" smooth="yes"/>
      <point x="601" y="1403"/>
      <point x="544" y="1270"/>
      <point x="558" y="1229" type="curve"/>
    </contour>
    <contour>
      <point x="62" y="125"/>
      <point x="131" y="-25"/>
      <point x="336" y="-25" type="curve" smooth="yes"/>
      <point x="470" y="-25"/>
      <point x="594" y="58"/>
      <point x="648" y="132" type="curve"/>
      <point x="704" y="86"/>
      <point x="737" y="35"/>
      <point x="766" y="-25" type="curve"/>
      <point x="858" y="-23"/>
      <point x="945" y="-2"/>
      <point x="1024" y="35" type="curve"/>
      <point x="1037" y="93" type="line"/>
      <point x="961" y="112"/>
      <point x="904" y="144"/>
      <point x="863" y="196" type="curve"/>
      <point x="863" y="674" type="line" smooth="yes"/>
      <point x="863" y="846"/>
      <point x="791" y="975"/>
      <point x="579" y="975" type="curve" smooth="yes"/>
      <point x="515" y="975"/>
      <point x="332" y="949"/>
      <point x="210" y="896" type="curve" smooth="yes"/>
      <point x="162" y="874"/>
      <point x="96" y="836"/>
      <point x="96" y="797" type="curve" smooth="yes"/>
      <point x="96" y="734"/>
      <point x="197" y="652"/>
      <point x="247" y="652" type="curve" smooth="yes"/>
      <point x="270" y="652"/>
      <point x="306" y="670"/>
      <point x="331" y="692" type="curve"/>
      <point x="362" y="868" type="line"/>
      <point x="379" y="872"/>
      <point x="400" y="875"/>
      <point x="421" y="875" type="curve" smooth="yes"/>
      <point x="463" y="875"/>
      <point x="508" y="867"/>
      <point x="534" y="851" type="curve" smooth="yes"/>
      <point x="613" y="803"/>
      <point x="621" y="667"/>
      <point x="621" y="579" type="curve" smooth="yes"/>
      <point x="621" y="525" type="line"/>
      <point x="582" y="530"/>
      <point x="532" y="533"/>
      <point x="491" y="533" type="curve" smooth="yes"/>
      <point x="405" y="533"/>
      <point x="289" y="521"/>
      <point x="213" y="488" type="curve" smooth="yes"/>
      <point x="105" y="442"/>
      <point x="62" y="369"/>
      <point x="62" y="241" type="curve" smooth="yes"/>
    </contour>
    <contour>
      <point x="340" y="152"/>
      <point x="303" y="238"/>
      <point x="303" y="301" type="curve" smooth="yes"/>
      <point x="303" y="323"/>
      <point x="306" y="349"/>
      <point x="319" y="366" type="curve"/>
      <point x="338" y="388"/>
      <point x="431" y="439"/>
      <point x="621" y="460" type="curve"/>
      <point x="621" y="165" type="line"/>
      <point x="572" y="143"/>
      <point x="473" y="117"/>
      <point x="414" y="117" type="curve" smooth="yes"/>
      <point x="402" y="117"/>
      <point x="391" y="120"/>
      <point x="383" y="127" type="curve"/>
    </contour>
  </outline>
</glyph>
<glyph name="ae" format="1">
  <advance width="1462"/>
  <unicode hex="00E6"/>
  <outline>
    <contour>
      <point x="62" y="125"/>
      <point x="134" y="-25"/>
      <point x="323" y="-25" type="curve" smooth="yes"/>
      <point x="478" y="-25"/>
      <point x="613" y="52"/>
      <point x="685" y="137" type="curve"/>
      <point x="771" y="25"/>
      <point x="898" y="-25"/>
      <point x="1034" y="-25" type="curve" smooth="yes"/>
      <point x="1175" y="-25"/>
      <point x="1308" y="64"/>
      <point x="1374" y="155" type="curve"/>
      <point x="1352" y="190" type="line"/>
      <point x="1320" y="175"/>
      <point x="1198" y="128"/>
      <point x="1107" y="128" type="curve" smooth="yes"/>
      <point x="954" y="128"/>
      <point x="832" y="306"/>
      <point x="827" y="489" type="curve"/>
      <point x="1312" y="489" type="line" smooth="yes"/>
      <point x="1346" y="489"/>
      <point x="1360" y="502"/>
      <point x="1369" y="524" type="curve" smooth="yes"/>
      <point x="1389" y="569"/>
      <point x="1399" y="614"/>
      <point x="1399" y="657" type="curve" smooth="yes"/>
      <point x="1399" y="828"/>
      <point x="1286" y="975"/>
      <point x="1074" y="975" type="curve" smooth="yes"/>
      <point x="961" y="975"/>
      <point x="869" y="939"/>
      <point x="796" y="878" type="curve"/>
      <point x="752" y="938"/>
      <point x="681" y="975"/>
      <point x="569" y="975" type="curve" smooth="yes"/>
      <point x="504" y="975"/>
      <point x="327" y="950"/>
      <point x="204" y="896" type="curve" smooth="yes"/>
      <point x="156" y="874"/>
      <point x="89" y="836"/>
      <point x="89" y="797" type="curve" smooth="yes"/>
      <point x="89" y="734"/>
      <point x="191" y="652"/>
      <point x="241" y="652" type="curve" smooth="yes"/>
      <point x="264" y="652"/>
      <point x="300" y="670"/>
      <point x="325" y="692" type="curve"/>
      <point x="357" y="868" type="line"/>
      <point x="373" y="872"/>
      <point x="393" y="875"/>
      <point x="415" y="875" type="curve" smooth="yes"/>
      <point x="458" y="875"/>
      <point x="498" y="867"/>
      <point x="524" y="851" type="curve" smooth="yes"/>
      <point x="607" y="802"/>
      <point x="617" y="665"/>
      <point x="617" y="575" type="curve" smooth="yes"/>
      <point x="617" y="525" type="line"/>
      <point x="579" y="527"/>
      <point x="537" y="529"/>
      <point x="497" y="529" type="curve" smooth="yes"/>
      <point x="409" y="529"/>
      <point x="293" y="515"/>
      <point x="216" y="485" type="curve" smooth="yes"/>
      <point x="106" y="440"/>
      <point x="62" y="376"/>
      <point x="62" y="241" type="curve" smooth="yes"/>
    </contour>
    <contour>
      <point x="827" y="563" type="line"/>
      <point x="834" y="704"/>
      <point x="868" y="800"/>
      <point x="894" y="835" type="curve"/>
      <point x="913" y="857"/>
      <point x="950" y="859"/>
      <point x="974" y="859" type="curve" smooth="yes"/>
      <point x="1088" y="859"/>
      <point x="1177" y="766"/>
      <point x="1177" y="603" type="curve"/>
    </contour>
    <contour>
      <point x="340" y="152"/>
      <point x="303" y="233"/>
      <point x="303" y="295" type="curve" smooth="yes"/>
      <point x="303" y="319"/>
      <point x="305" y="343"/>
      <point x="319" y="362" type="curve"/>
      <point x="338" y="384"/>
      <point x="426" y="436"/>
      <point x="617" y="458" type="curve"/>
      <point x="617" y="172" type="line"/>
      <point x="569" y="142"/>
      <point x="477" y="117"/>
      <point x="414" y="117" type="curve" smooth="yes"/>
      <point x="402" y="117"/>
      <point x="391" y="120"/>
      <point x="383" y="127" type="curve"/>
    </contour>
  </outline>
</glyph>
<glyph name="ccedilla" format="1">
  <advance width="908"/>
  <unicode hex="00E7"/>
  <outline>
    <contour>
      <point x="851" y="183" type="line"/>
      <point x="823" y="171"/>
      <point x="679" y="130"/>
      <point x="596" y="130" type="curve" smooth="yes"/>
      <point x="506" y="130"/>
      <point x="436" y="179"/>
      <point x="387" y="251" type="curve" smooth="yes"/>
      <point x="330" y="333"/>
      <point x="307" y="425"/>
      <point x="307" y="530" type="curve" smooth="yes"/>
      <point x="307" y="617"/>
      <point x="330" y="717"/>
      <point x="394" y="794" type="curve" smooth="yes"/>
      <point x="448" y="856"/>
      <point x="516" y="882"/>
      <point x="587" y="889" type="curve"/>
      <point x="619" y="729" type="line"/>
      <point x="641" y="709"/>
      <point x="678" y="688"/>
      <point x="706" y="688" type="curve" smooth="yes"/>
      <point x="756" y="688"/>
      <point x="856" y="780"/>
      <point x="856" y="843" type="curve" smooth="yes"/>
      <point x="856" y="880"/>
      <point x="813" y="919"/>
      <point x="767" y="939" type="curve" smooth="yes"/>
      <point x="714" y="962"/>
      <point x="654" y="973"/>
      <point x="582" y="973" type="curve" smooth="yes"/>
      <point x="302" y="973"/>
      <point x="65" y="792"/>
      <point x="65" y="456" type="curve" smooth="yes"/>
      <point x="65" y="199"/>
      <point x="199" y="9"/>
      <point x="449" y="-21" type="curve"/>
      <point x="413" y="-64"/>
      <point x="369" y="-135"/>
      <point x="367" y="-173" type="curve"/>
      <point x="482" y="-194"/>
      <point x="549" y="-220"/>
      <point x="549" y="-262" type="curve" smooth="yes"/>
      <point x="549" y="-291"/>
      <point x="528" y="-337"/>
      <point x="328" y="-411" type="curve"/>
      <point x="348" y="-475" type="line"/>
      <point x="485" y="-475"/>
      <point x="718" y="-419"/>
      <point x="718" y="-255" type="curve" smooth="yes"/>
      <point x="718" y="-160"/>
      <point x="658" y="-112"/>
      <point x="539" y="-84" type="curve"/>
      <point x="568" y="-22" type="line"/>
      <point x="707" y="-5"/>
      <point x="820" y="84"/>
      <point x="871" y="151" type="curve"/>
    </contour>
  </outline>
</glyph>
